%
M48
M72
T01C0.0320
T02C0.0360
T03C0.0400
T04C0.1260
%
T01
X4150Y6650
X5150Y6650
X7150Y6650
X8150Y6650
X10150Y6650
X11150Y6650
X13150Y6650
X14150Y6650
X16150Y6650
X17150Y6650
X19150Y6650
X20150Y6650
X22150Y6650
X23150Y6650
X25150Y6650
X26150Y6650
X26150Y9650
X25150Y9650
X23150Y9650
X22150Y9650
X20150Y9650
X19150Y9650
X19150Y11150
X20150Y11150
X22150Y11150
X23150Y11150
X25150Y11150
X26150Y11150
X21150Y16150
X20150Y16150
X19150Y16150
X18150Y16150
X17150Y16150
X16150Y16150
X15150Y16150
X14150Y16150
X13150Y16150
X12150Y16150
X11150Y11150
X10150Y11150
X8150Y11150
X7150Y11150
X5150Y11150
X4150Y11150
X4150Y9650
X5150Y9650
X7150Y9650
X8150Y9650
X10150Y9650
X11150Y9650
X13150Y9650
X14150Y9650
X14150Y11150
X13150Y11150
X16150Y11150
X17150Y11150
X17150Y9650
X16150Y9650
T02
X15650Y13650
X14650Y13650
X14650Y14650
X15650Y14650
X16650Y14650
X17650Y14650
X18650Y14650
X18650Y13650
X17650Y13650
X16650Y13650
T03
X15760Y5430
X14540Y5430
X12760Y5430
X11540Y5430
X9760Y5430
X8540Y5430
X6760Y5430
X5540Y5430
X3760Y5430
X3760Y2870
X5540Y2870
X6760Y2870
X8540Y2870
X9760Y2870
X11540Y2870
X12760Y2870
X14540Y2870
X15760Y2870
X17540Y2870
X18760Y2870
X20540Y2870
X21760Y2870
X23540Y2870
X24760Y2870
X26540Y2870
X26540Y5430
X24760Y5430
X23540Y5430
X21760Y5430
X20540Y5430
X18760Y5430
X17540Y5430
T04
X2150Y2650
X2150Y16650
X28150Y16650
X28150Y2650
M30
