G75*
G70*
%OFA0B0*%
%FSLAX24Y24*%
%IPPOS*%
%LPD*%
%AMOC8*
5,1,8,0,0,1.08239X$1,22.5*
%
%ADD10C,0.0000*%
D10*
X000650Y001157D02*
X029646Y001157D01*
X029646Y018150D01*
X000650Y018150D01*
X000650Y001157D01*
X001520Y002650D02*
X001522Y002700D01*
X001528Y002750D01*
X001538Y002799D01*
X001552Y002847D01*
X001569Y002894D01*
X001590Y002939D01*
X001615Y002983D01*
X001643Y003024D01*
X001675Y003063D01*
X001709Y003100D01*
X001746Y003134D01*
X001786Y003164D01*
X001828Y003191D01*
X001872Y003215D01*
X001918Y003236D01*
X001965Y003252D01*
X002013Y003265D01*
X002063Y003274D01*
X002112Y003279D01*
X002163Y003280D01*
X002213Y003277D01*
X002262Y003270D01*
X002311Y003259D01*
X002359Y003244D01*
X002405Y003226D01*
X002450Y003204D01*
X002493Y003178D01*
X002534Y003149D01*
X002573Y003117D01*
X002609Y003082D01*
X002641Y003044D01*
X002671Y003004D01*
X002698Y002961D01*
X002721Y002917D01*
X002740Y002871D01*
X002756Y002823D01*
X002768Y002774D01*
X002776Y002725D01*
X002780Y002675D01*
X002780Y002625D01*
X002776Y002575D01*
X002768Y002526D01*
X002756Y002477D01*
X002740Y002429D01*
X002721Y002383D01*
X002698Y002339D01*
X002671Y002296D01*
X002641Y002256D01*
X002609Y002218D01*
X002573Y002183D01*
X002534Y002151D01*
X002493Y002122D01*
X002450Y002096D01*
X002405Y002074D01*
X002359Y002056D01*
X002311Y002041D01*
X002262Y002030D01*
X002213Y002023D01*
X002163Y002020D01*
X002112Y002021D01*
X002063Y002026D01*
X002013Y002035D01*
X001965Y002048D01*
X001918Y002064D01*
X001872Y002085D01*
X001828Y002109D01*
X001786Y002136D01*
X001746Y002166D01*
X001709Y002200D01*
X001675Y002237D01*
X001643Y002276D01*
X001615Y002317D01*
X001590Y002361D01*
X001569Y002406D01*
X001552Y002453D01*
X001538Y002501D01*
X001528Y002550D01*
X001522Y002600D01*
X001520Y002650D01*
X001520Y016650D02*
X001522Y016700D01*
X001528Y016750D01*
X001538Y016799D01*
X001552Y016847D01*
X001569Y016894D01*
X001590Y016939D01*
X001615Y016983D01*
X001643Y017024D01*
X001675Y017063D01*
X001709Y017100D01*
X001746Y017134D01*
X001786Y017164D01*
X001828Y017191D01*
X001872Y017215D01*
X001918Y017236D01*
X001965Y017252D01*
X002013Y017265D01*
X002063Y017274D01*
X002112Y017279D01*
X002163Y017280D01*
X002213Y017277D01*
X002262Y017270D01*
X002311Y017259D01*
X002359Y017244D01*
X002405Y017226D01*
X002450Y017204D01*
X002493Y017178D01*
X002534Y017149D01*
X002573Y017117D01*
X002609Y017082D01*
X002641Y017044D01*
X002671Y017004D01*
X002698Y016961D01*
X002721Y016917D01*
X002740Y016871D01*
X002756Y016823D01*
X002768Y016774D01*
X002776Y016725D01*
X002780Y016675D01*
X002780Y016625D01*
X002776Y016575D01*
X002768Y016526D01*
X002756Y016477D01*
X002740Y016429D01*
X002721Y016383D01*
X002698Y016339D01*
X002671Y016296D01*
X002641Y016256D01*
X002609Y016218D01*
X002573Y016183D01*
X002534Y016151D01*
X002493Y016122D01*
X002450Y016096D01*
X002405Y016074D01*
X002359Y016056D01*
X002311Y016041D01*
X002262Y016030D01*
X002213Y016023D01*
X002163Y016020D01*
X002112Y016021D01*
X002063Y016026D01*
X002013Y016035D01*
X001965Y016048D01*
X001918Y016064D01*
X001872Y016085D01*
X001828Y016109D01*
X001786Y016136D01*
X001746Y016166D01*
X001709Y016200D01*
X001675Y016237D01*
X001643Y016276D01*
X001615Y016317D01*
X001590Y016361D01*
X001569Y016406D01*
X001552Y016453D01*
X001538Y016501D01*
X001528Y016550D01*
X001522Y016600D01*
X001520Y016650D01*
X027520Y016650D02*
X027522Y016700D01*
X027528Y016750D01*
X027538Y016799D01*
X027552Y016847D01*
X027569Y016894D01*
X027590Y016939D01*
X027615Y016983D01*
X027643Y017024D01*
X027675Y017063D01*
X027709Y017100D01*
X027746Y017134D01*
X027786Y017164D01*
X027828Y017191D01*
X027872Y017215D01*
X027918Y017236D01*
X027965Y017252D01*
X028013Y017265D01*
X028063Y017274D01*
X028112Y017279D01*
X028163Y017280D01*
X028213Y017277D01*
X028262Y017270D01*
X028311Y017259D01*
X028359Y017244D01*
X028405Y017226D01*
X028450Y017204D01*
X028493Y017178D01*
X028534Y017149D01*
X028573Y017117D01*
X028609Y017082D01*
X028641Y017044D01*
X028671Y017004D01*
X028698Y016961D01*
X028721Y016917D01*
X028740Y016871D01*
X028756Y016823D01*
X028768Y016774D01*
X028776Y016725D01*
X028780Y016675D01*
X028780Y016625D01*
X028776Y016575D01*
X028768Y016526D01*
X028756Y016477D01*
X028740Y016429D01*
X028721Y016383D01*
X028698Y016339D01*
X028671Y016296D01*
X028641Y016256D01*
X028609Y016218D01*
X028573Y016183D01*
X028534Y016151D01*
X028493Y016122D01*
X028450Y016096D01*
X028405Y016074D01*
X028359Y016056D01*
X028311Y016041D01*
X028262Y016030D01*
X028213Y016023D01*
X028163Y016020D01*
X028112Y016021D01*
X028063Y016026D01*
X028013Y016035D01*
X027965Y016048D01*
X027918Y016064D01*
X027872Y016085D01*
X027828Y016109D01*
X027786Y016136D01*
X027746Y016166D01*
X027709Y016200D01*
X027675Y016237D01*
X027643Y016276D01*
X027615Y016317D01*
X027590Y016361D01*
X027569Y016406D01*
X027552Y016453D01*
X027538Y016501D01*
X027528Y016550D01*
X027522Y016600D01*
X027520Y016650D01*
X027520Y002650D02*
X027522Y002700D01*
X027528Y002750D01*
X027538Y002799D01*
X027552Y002847D01*
X027569Y002894D01*
X027590Y002939D01*
X027615Y002983D01*
X027643Y003024D01*
X027675Y003063D01*
X027709Y003100D01*
X027746Y003134D01*
X027786Y003164D01*
X027828Y003191D01*
X027872Y003215D01*
X027918Y003236D01*
X027965Y003252D01*
X028013Y003265D01*
X028063Y003274D01*
X028112Y003279D01*
X028163Y003280D01*
X028213Y003277D01*
X028262Y003270D01*
X028311Y003259D01*
X028359Y003244D01*
X028405Y003226D01*
X028450Y003204D01*
X028493Y003178D01*
X028534Y003149D01*
X028573Y003117D01*
X028609Y003082D01*
X028641Y003044D01*
X028671Y003004D01*
X028698Y002961D01*
X028721Y002917D01*
X028740Y002871D01*
X028756Y002823D01*
X028768Y002774D01*
X028776Y002725D01*
X028780Y002675D01*
X028780Y002625D01*
X028776Y002575D01*
X028768Y002526D01*
X028756Y002477D01*
X028740Y002429D01*
X028721Y002383D01*
X028698Y002339D01*
X028671Y002296D01*
X028641Y002256D01*
X028609Y002218D01*
X028573Y002183D01*
X028534Y002151D01*
X028493Y002122D01*
X028450Y002096D01*
X028405Y002074D01*
X028359Y002056D01*
X028311Y002041D01*
X028262Y002030D01*
X028213Y002023D01*
X028163Y002020D01*
X028112Y002021D01*
X028063Y002026D01*
X028013Y002035D01*
X027965Y002048D01*
X027918Y002064D01*
X027872Y002085D01*
X027828Y002109D01*
X027786Y002136D01*
X027746Y002166D01*
X027709Y002200D01*
X027675Y002237D01*
X027643Y002276D01*
X027615Y002317D01*
X027590Y002361D01*
X027569Y002406D01*
X027552Y002453D01*
X027538Y002501D01*
X027528Y002550D01*
X027522Y002600D01*
X027520Y002650D01*
M02*
