G75*
G70*
%OFA0B0*%
%FSLAX24Y24*%
%IPPOS*%
%LPD*%
%AMOC8*
5,1,8,0,0,1.08239X$1,22.5*
%
%ADD10C,0.0740*%
%ADD11C,0.0520*%
%ADD12C,0.0560*%
%ADD13C,0.0100*%
D10*
X003760Y002870D03*
X005540Y002870D03*
X006760Y002870D03*
X008540Y002870D03*
X009760Y002870D03*
X011540Y002870D03*
X012760Y002870D03*
X014540Y002870D03*
X015760Y002870D03*
X017540Y002870D03*
X018760Y002870D03*
X020540Y002870D03*
X021760Y002870D03*
X023540Y002870D03*
X024760Y002870D03*
X026540Y002870D03*
X026540Y005430D03*
X024760Y005430D03*
X023540Y005430D03*
X021760Y005430D03*
X020540Y005430D03*
X018760Y005430D03*
X017540Y005430D03*
X015760Y005430D03*
X014540Y005430D03*
X012760Y005430D03*
X011540Y005430D03*
X009760Y005430D03*
X008540Y005430D03*
X006760Y005430D03*
X005540Y005430D03*
X003760Y005430D03*
D11*
X004150Y006650D03*
X005150Y006650D03*
X007150Y006650D03*
X008150Y006650D03*
X010150Y006650D03*
X011150Y006650D03*
X013150Y006650D03*
X014150Y006650D03*
X016150Y006650D03*
X017150Y006650D03*
X019150Y006650D03*
X020150Y006650D03*
X022150Y006650D03*
X023150Y006650D03*
X025150Y006650D03*
X026150Y006650D03*
X026150Y009650D03*
X025150Y009650D03*
X023150Y009650D03*
X022150Y009650D03*
X020150Y009650D03*
X019150Y009650D03*
X019150Y011150D03*
X020150Y011150D03*
X022150Y011150D03*
X023150Y011150D03*
X025150Y011150D03*
X026150Y011150D03*
X021150Y016150D03*
X020150Y016150D03*
X019150Y016150D03*
X018150Y016150D03*
X017150Y016150D03*
X016150Y016150D03*
X015150Y016150D03*
X014150Y016150D03*
X013150Y016150D03*
X012150Y016150D03*
X011150Y011150D03*
X010150Y011150D03*
X008150Y011150D03*
X007150Y011150D03*
X005150Y011150D03*
X004150Y011150D03*
X004150Y009650D03*
X005150Y009650D03*
X007150Y009650D03*
X008150Y009650D03*
X010150Y009650D03*
X011150Y009650D03*
X013150Y009650D03*
X014150Y009650D03*
X014150Y011150D03*
X013150Y011150D03*
X016150Y011150D03*
X017150Y011150D03*
X017150Y009650D03*
X016150Y009650D03*
D12*
X015650Y013650D03*
X014650Y013650D03*
X014650Y014650D03*
X015650Y014650D03*
X016650Y014650D03*
X017650Y014650D03*
X018650Y014650D03*
X018650Y013650D03*
X017650Y013650D03*
X016650Y013650D03*
D13*
X002567Y001644D02*
X002432Y001607D01*
X027868Y001607D01*
X027733Y001644D01*
X027487Y001786D01*
X027286Y001987D01*
X027144Y002233D01*
X027070Y002508D01*
X027070Y002792D01*
X027144Y003067D01*
X027286Y003313D01*
X027487Y003514D01*
X027733Y003656D01*
X028008Y003730D01*
X028292Y003730D01*
X028567Y003656D01*
X028813Y003514D01*
X029014Y003313D01*
X029156Y003067D01*
X029196Y002919D01*
X029196Y016381D01*
X029156Y016233D01*
X029014Y015987D01*
X028813Y015786D01*
X028567Y015644D01*
X028292Y015570D01*
X028008Y015570D01*
X027733Y015644D01*
X027487Y015786D01*
X027286Y015987D01*
X027144Y016233D01*
X027070Y016508D01*
X027070Y016792D01*
X027144Y017067D01*
X027286Y017313D01*
X027487Y017514D01*
X027733Y017656D01*
X027896Y017700D01*
X002404Y017700D01*
X002567Y017656D01*
X002813Y017514D01*
X003014Y017313D01*
X003156Y017067D01*
X003230Y016792D01*
X003230Y016508D01*
X003156Y016233D01*
X003014Y015987D01*
X002813Y015786D01*
X002567Y015644D01*
X002292Y015570D01*
X002008Y015570D01*
X001733Y015644D01*
X001487Y015786D01*
X001286Y015987D01*
X001144Y016233D01*
X001100Y016396D01*
X001100Y002904D01*
X001144Y003067D01*
X001286Y003313D01*
X001487Y003514D01*
X001733Y003656D01*
X002008Y003730D01*
X002292Y003730D01*
X002567Y003656D01*
X002813Y003514D01*
X003014Y003313D01*
X003156Y003067D01*
X003230Y002792D01*
X003230Y002508D01*
X003156Y002233D01*
X003014Y001987D01*
X002813Y001786D01*
X002567Y001644D01*
X002562Y001643D02*
X027738Y001643D01*
X027565Y001741D02*
X002735Y001741D01*
X002867Y001840D02*
X027433Y001840D01*
X027335Y001938D02*
X002965Y001938D01*
X003043Y002037D02*
X027257Y002037D01*
X027200Y002135D02*
X003100Y002135D01*
X003156Y002234D02*
X027144Y002234D01*
X027117Y002332D02*
X003183Y002332D01*
X003209Y002431D02*
X003514Y002431D01*
X003477Y002446D02*
X003661Y002370D01*
X003859Y002370D01*
X004043Y002446D01*
X004184Y002587D01*
X004260Y002771D01*
X004260Y002969D01*
X004184Y003153D01*
X004043Y003294D01*
X003859Y003370D01*
X003661Y003370D01*
X003477Y003294D01*
X003336Y003153D01*
X003260Y002969D01*
X003260Y002771D01*
X003336Y002587D01*
X003477Y002446D01*
X003394Y002529D02*
X003230Y002529D01*
X003230Y002628D02*
X003319Y002628D01*
X003278Y002726D02*
X003230Y002726D01*
X003221Y002825D02*
X003260Y002825D01*
X003260Y002923D02*
X003195Y002923D01*
X003168Y003022D02*
X003282Y003022D01*
X003322Y003120D02*
X003126Y003120D01*
X003069Y003219D02*
X003401Y003219D01*
X003533Y003317D02*
X003010Y003317D01*
X002912Y003416D02*
X027388Y003416D01*
X027487Y003514D02*
X002813Y003514D01*
X002643Y003613D02*
X027657Y003613D01*
X027937Y003711D02*
X002363Y003711D01*
X001937Y003711D02*
X001100Y003711D01*
X001100Y003613D02*
X001657Y003613D01*
X001487Y003514D02*
X001100Y003514D01*
X001100Y003416D02*
X001388Y003416D01*
X001290Y003317D02*
X001100Y003317D01*
X001100Y003219D02*
X001231Y003219D01*
X001174Y003120D02*
X001100Y003120D01*
X001100Y003022D02*
X001132Y003022D01*
X001105Y002923D02*
X001100Y002923D01*
X001100Y003810D02*
X029196Y003810D01*
X029196Y003908D02*
X001100Y003908D01*
X001100Y004007D02*
X029196Y004007D01*
X029196Y004105D02*
X001100Y004105D01*
X001100Y004204D02*
X029196Y004204D01*
X029196Y004302D02*
X001100Y004302D01*
X001100Y004401D02*
X029196Y004401D01*
X029196Y004499D02*
X001100Y004499D01*
X001100Y004598D02*
X029196Y004598D01*
X029196Y004696D02*
X001100Y004696D01*
X001100Y004795D02*
X029196Y004795D01*
X029196Y004893D02*
X001100Y004893D01*
X001100Y004992D02*
X003512Y004992D01*
X003477Y005006D02*
X003661Y004930D01*
X003859Y004930D01*
X004043Y005006D01*
X004184Y005147D01*
X004260Y005331D01*
X004260Y005529D01*
X004184Y005713D01*
X004043Y005854D01*
X003859Y005930D01*
X003661Y005930D01*
X003477Y005854D01*
X003336Y005713D01*
X003260Y005529D01*
X003260Y005331D01*
X003336Y005147D01*
X003477Y005006D01*
X003393Y005090D02*
X001100Y005090D01*
X001100Y005189D02*
X003319Y005189D01*
X003278Y005287D02*
X001100Y005287D01*
X001100Y005386D02*
X003260Y005386D01*
X003260Y005484D02*
X001100Y005484D01*
X001100Y005583D02*
X003282Y005583D01*
X003323Y005681D02*
X001100Y005681D01*
X001100Y005780D02*
X003402Y005780D01*
X003535Y005878D02*
X001100Y005878D01*
X001100Y005977D02*
X029196Y005977D01*
X029196Y006075D02*
X001100Y006075D01*
X001100Y006174D02*
X029196Y006174D01*
X029196Y006272D02*
X026257Y006272D01*
X026228Y006260D02*
X026371Y006319D01*
X026481Y006429D01*
X026540Y006572D01*
X026540Y006728D01*
X026481Y006871D01*
X026371Y006981D01*
X026228Y007040D01*
X026072Y007040D01*
X025929Y006981D01*
X025819Y006871D01*
X025760Y006728D01*
X025760Y006572D01*
X025819Y006429D01*
X025929Y006319D01*
X026072Y006260D01*
X026228Y006260D01*
X026043Y006272D02*
X025311Y006272D01*
X025307Y006270D02*
X025365Y006299D01*
X025417Y006337D01*
X025463Y006383D01*
X025501Y006435D01*
X025530Y006493D01*
X025550Y006554D01*
X025560Y006618D01*
X025560Y006620D01*
X025180Y006620D01*
X025180Y006680D01*
X025120Y006680D01*
X025120Y007060D01*
X025118Y007060D01*
X025054Y007050D01*
X024993Y007030D01*
X024935Y007001D01*
X024883Y006963D01*
X024837Y006917D01*
X024799Y006865D01*
X024770Y006807D01*
X024750Y006746D01*
X024740Y006682D01*
X024740Y006680D01*
X025120Y006680D01*
X025120Y006620D01*
X024740Y006620D01*
X024740Y006618D01*
X024750Y006554D01*
X024770Y006493D01*
X024799Y006435D01*
X024837Y006383D01*
X024883Y006337D01*
X024935Y006299D01*
X024993Y006270D01*
X025054Y006250D01*
X025118Y006240D01*
X025120Y006240D01*
X025120Y006620D01*
X025180Y006620D01*
X025180Y006240D01*
X025182Y006240D01*
X025246Y006250D01*
X025307Y006270D01*
X025180Y006272D02*
X025120Y006272D01*
X025120Y006371D02*
X025180Y006371D01*
X025180Y006469D02*
X025120Y006469D01*
X025120Y006568D02*
X025180Y006568D01*
X025180Y006666D02*
X025760Y006666D01*
X025762Y006568D02*
X025552Y006568D01*
X025518Y006469D02*
X025803Y006469D01*
X025878Y006371D02*
X025450Y006371D01*
X025560Y006680D02*
X025180Y006680D01*
X025180Y007060D01*
X025182Y007060D01*
X025246Y007050D01*
X025307Y007030D01*
X025365Y007001D01*
X025417Y006963D01*
X025463Y006917D01*
X025501Y006865D01*
X025530Y006807D01*
X025550Y006746D01*
X025560Y006682D01*
X025560Y006680D01*
X025544Y006765D02*
X025775Y006765D01*
X025816Y006863D02*
X025502Y006863D01*
X025418Y006962D02*
X025910Y006962D01*
X026390Y006962D02*
X029196Y006962D01*
X029196Y007060D02*
X001100Y007060D01*
X001100Y006962D02*
X003882Y006962D01*
X003883Y006963D02*
X003837Y006917D01*
X003799Y006865D01*
X003770Y006807D01*
X003750Y006746D01*
X003740Y006682D01*
X003740Y006680D01*
X004120Y006680D01*
X004120Y007060D01*
X004118Y007060D01*
X004054Y007050D01*
X003993Y007030D01*
X003935Y007001D01*
X003883Y006963D01*
X003798Y006863D02*
X001100Y006863D01*
X001100Y006765D02*
X003756Y006765D01*
X003740Y006620D02*
X003740Y006618D01*
X003750Y006554D01*
X003770Y006493D01*
X003799Y006435D01*
X003837Y006383D01*
X003883Y006337D01*
X003935Y006299D01*
X003993Y006270D01*
X004054Y006250D01*
X004118Y006240D01*
X004120Y006240D01*
X004120Y006620D01*
X003740Y006620D01*
X003748Y006568D02*
X001100Y006568D01*
X001100Y006666D02*
X004120Y006666D01*
X004120Y006680D02*
X004120Y006620D01*
X004180Y006620D01*
X004180Y006680D01*
X004120Y006680D01*
X004180Y006680D02*
X004180Y007060D01*
X004182Y007060D01*
X004246Y007050D01*
X004307Y007030D01*
X004365Y007001D01*
X004417Y006963D01*
X004463Y006917D01*
X004501Y006865D01*
X004530Y006807D01*
X004550Y006746D01*
X004560Y006682D01*
X004560Y006680D01*
X004180Y006680D01*
X004180Y006666D02*
X004760Y006666D01*
X004760Y006728D02*
X004760Y006572D01*
X004819Y006429D01*
X004929Y006319D01*
X005072Y006260D01*
X005228Y006260D01*
X005371Y006319D01*
X005481Y006429D01*
X005540Y006572D01*
X005540Y006728D01*
X005481Y006871D01*
X005371Y006981D01*
X005228Y007040D01*
X005072Y007040D01*
X004929Y006981D01*
X004819Y006871D01*
X004760Y006728D01*
X004775Y006765D02*
X004544Y006765D01*
X004502Y006863D02*
X004816Y006863D01*
X004910Y006962D02*
X004418Y006962D01*
X004180Y006962D02*
X004120Y006962D01*
X004120Y006863D02*
X004180Y006863D01*
X004180Y006765D02*
X004120Y006765D01*
X004180Y006620D02*
X004560Y006620D01*
X004560Y006618D01*
X004550Y006554D01*
X004530Y006493D01*
X004501Y006435D01*
X004463Y006383D01*
X004417Y006337D01*
X004365Y006299D01*
X004307Y006270D01*
X004246Y006250D01*
X004182Y006240D01*
X004180Y006240D01*
X004180Y006620D01*
X004180Y006568D02*
X004120Y006568D01*
X004120Y006469D02*
X004180Y006469D01*
X004180Y006371D02*
X004120Y006371D01*
X004120Y006272D02*
X004180Y006272D01*
X004311Y006272D02*
X005043Y006272D01*
X004878Y006371D02*
X004450Y006371D01*
X004518Y006469D02*
X004803Y006469D01*
X004762Y006568D02*
X004552Y006568D01*
X003989Y006272D02*
X001100Y006272D01*
X001100Y006371D02*
X003850Y006371D01*
X003782Y006469D02*
X001100Y006469D01*
X001100Y007159D02*
X029196Y007159D01*
X029196Y007257D02*
X001100Y007257D01*
X001100Y007356D02*
X029196Y007356D01*
X029196Y007454D02*
X001100Y007454D01*
X001100Y007553D02*
X029196Y007553D01*
X029196Y007651D02*
X001100Y007651D01*
X001100Y007750D02*
X029196Y007750D01*
X029196Y007848D02*
X001100Y007848D01*
X001100Y007947D02*
X029196Y007947D01*
X029196Y008045D02*
X001100Y008045D01*
X001100Y008144D02*
X029196Y008144D01*
X029196Y008242D02*
X001100Y008242D01*
X001100Y008341D02*
X029196Y008341D01*
X029196Y008439D02*
X001100Y008439D01*
X001100Y008538D02*
X029196Y008538D01*
X029196Y008636D02*
X001100Y008636D01*
X001100Y008735D02*
X029196Y008735D01*
X029196Y008833D02*
X001100Y008833D01*
X001100Y008932D02*
X029196Y008932D01*
X029196Y009030D02*
X001100Y009030D01*
X001100Y009129D02*
X029196Y009129D01*
X029196Y009227D02*
X001100Y009227D01*
X001100Y009326D02*
X003923Y009326D01*
X003929Y009319D02*
X004072Y009260D01*
X004228Y009260D01*
X004371Y009319D01*
X004481Y009429D01*
X004540Y009572D01*
X004540Y009728D01*
X004481Y009871D01*
X004371Y009981D01*
X004228Y010040D01*
X004072Y010040D01*
X003929Y009981D01*
X003819Y009871D01*
X003760Y009728D01*
X003760Y009572D01*
X003819Y009429D01*
X003929Y009319D01*
X003824Y009424D02*
X001100Y009424D01*
X001100Y009523D02*
X003781Y009523D01*
X003760Y009621D02*
X001100Y009621D01*
X001100Y009720D02*
X003760Y009720D01*
X003797Y009818D02*
X001100Y009818D01*
X001100Y009917D02*
X003865Y009917D01*
X004012Y010015D02*
X001100Y010015D01*
X001100Y010114D02*
X029196Y010114D01*
X029196Y010212D02*
X001100Y010212D01*
X001100Y010311D02*
X029196Y010311D01*
X029196Y010409D02*
X001100Y010409D01*
X001100Y010508D02*
X029196Y010508D01*
X029196Y010606D02*
X001100Y010606D01*
X001100Y010705D02*
X029196Y010705D01*
X029196Y010803D02*
X026331Y010803D01*
X026371Y010819D02*
X026481Y010929D01*
X026540Y011072D01*
X026540Y011228D01*
X026481Y011371D01*
X026371Y011481D01*
X026228Y011540D01*
X026072Y011540D01*
X025929Y011481D01*
X025819Y011371D01*
X025760Y011228D01*
X025760Y011072D01*
X025819Y010929D01*
X025929Y010819D01*
X026072Y010760D01*
X026228Y010760D01*
X026371Y010819D01*
X026453Y010902D02*
X029196Y010902D01*
X029196Y011000D02*
X026510Y011000D01*
X026540Y011099D02*
X029196Y011099D01*
X029196Y011197D02*
X026540Y011197D01*
X026512Y011296D02*
X029196Y011296D01*
X029196Y011394D02*
X026458Y011394D01*
X026342Y011493D02*
X029196Y011493D01*
X029196Y011591D02*
X001100Y011591D01*
X001100Y011493D02*
X003958Y011493D01*
X003929Y011481D02*
X003819Y011371D01*
X003760Y011228D01*
X003760Y011072D01*
X003819Y010929D01*
X003929Y010819D01*
X004072Y010760D01*
X004228Y010760D01*
X004371Y010819D01*
X004481Y010929D01*
X004540Y011072D01*
X004540Y011228D01*
X004481Y011371D01*
X004371Y011481D01*
X004228Y011540D01*
X004072Y011540D01*
X003929Y011481D01*
X003842Y011394D02*
X001100Y011394D01*
X001100Y011296D02*
X003788Y011296D01*
X003760Y011197D02*
X001100Y011197D01*
X001100Y011099D02*
X003760Y011099D01*
X003790Y011000D02*
X001100Y011000D01*
X001100Y010902D02*
X003847Y010902D01*
X003969Y010803D02*
X001100Y010803D01*
X001100Y011690D02*
X029196Y011690D01*
X029196Y011788D02*
X001100Y011788D01*
X001100Y011887D02*
X029196Y011887D01*
X029196Y011985D02*
X001100Y011985D01*
X001100Y012084D02*
X029196Y012084D01*
X029196Y012182D02*
X001100Y012182D01*
X001100Y012281D02*
X029196Y012281D01*
X029196Y012379D02*
X001100Y012379D01*
X001100Y012478D02*
X029196Y012478D01*
X029196Y012576D02*
X001100Y012576D01*
X001100Y012675D02*
X029196Y012675D01*
X029196Y012773D02*
X001100Y012773D01*
X001100Y012872D02*
X029196Y012872D01*
X029196Y012970D02*
X001100Y012970D01*
X001100Y013069D02*
X029196Y013069D01*
X029196Y013167D02*
X001100Y013167D01*
X001100Y013266D02*
X014507Y013266D01*
X014568Y013240D02*
X014732Y013240D01*
X014882Y013302D01*
X014998Y013418D01*
X015060Y013568D01*
X015060Y013732D01*
X014998Y013882D01*
X014882Y013998D01*
X014732Y014060D01*
X014568Y014060D01*
X014418Y013998D01*
X014302Y013882D01*
X014240Y013732D01*
X014240Y013568D01*
X014302Y013418D01*
X014418Y013302D01*
X014568Y013240D01*
X014793Y013266D02*
X015507Y013266D01*
X015568Y013240D02*
X015732Y013240D01*
X015882Y013302D01*
X015998Y013418D01*
X016060Y013568D01*
X016060Y013732D01*
X015998Y013882D01*
X015882Y013998D01*
X015732Y014060D01*
X015568Y014060D01*
X015418Y013998D01*
X015302Y013882D01*
X015240Y013732D01*
X015240Y013568D01*
X015302Y013418D01*
X015418Y013302D01*
X015568Y013240D01*
X015793Y013266D02*
X016457Y013266D01*
X016485Y013252D02*
X016549Y013231D01*
X016610Y013221D01*
X016610Y013610D01*
X016690Y013610D01*
X016690Y013690D01*
X017079Y013690D01*
X017069Y013751D01*
X017048Y013815D01*
X017018Y013875D01*
X016978Y013930D01*
X016930Y013978D01*
X016875Y014018D01*
X016815Y014048D01*
X016751Y014069D01*
X016690Y014079D01*
X016690Y013690D01*
X016610Y013690D01*
X016610Y014079D01*
X016549Y014069D01*
X016485Y014048D01*
X016425Y014018D01*
X016370Y013978D01*
X016322Y013930D01*
X016282Y013875D01*
X016252Y013815D01*
X016231Y013751D01*
X016221Y013690D01*
X016610Y013690D01*
X016610Y013610D01*
X016221Y013610D01*
X016231Y013549D01*
X016252Y013485D01*
X016282Y013425D01*
X016322Y013370D01*
X016370Y013322D01*
X016425Y013282D01*
X016485Y013252D01*
X016610Y013266D02*
X016690Y013266D01*
X016690Y013221D02*
X016751Y013231D01*
X016815Y013252D01*
X016875Y013282D01*
X016930Y013322D01*
X016978Y013370D01*
X017018Y013425D01*
X017048Y013485D01*
X017069Y013549D01*
X017079Y013610D01*
X016690Y013610D01*
X016690Y013221D01*
X016690Y013364D02*
X016610Y013364D01*
X016610Y013463D02*
X016690Y013463D01*
X016690Y013561D02*
X016610Y013561D01*
X016610Y013660D02*
X016060Y013660D01*
X016049Y013758D02*
X016233Y013758D01*
X016273Y013857D02*
X016008Y013857D01*
X015925Y013955D02*
X016347Y013955D01*
X016500Y014054D02*
X015747Y014054D01*
X015732Y014240D02*
X015568Y014240D01*
X015418Y014302D01*
X015302Y014418D01*
X015240Y014568D01*
X015240Y014732D01*
X015302Y014882D01*
X015418Y014998D01*
X015568Y015060D01*
X015732Y015060D01*
X015882Y014998D01*
X015998Y014882D01*
X016060Y014732D01*
X016060Y014568D01*
X015998Y014418D01*
X015882Y014302D01*
X015732Y014240D01*
X015757Y014251D02*
X016543Y014251D01*
X016568Y014240D02*
X016732Y014240D01*
X016882Y014302D01*
X016998Y014418D01*
X017060Y014568D01*
X017060Y014732D01*
X016998Y014882D01*
X016882Y014998D01*
X016732Y015060D01*
X016568Y015060D01*
X016418Y014998D01*
X016302Y014882D01*
X016240Y014732D01*
X016240Y014568D01*
X016302Y014418D01*
X016418Y014302D01*
X016568Y014240D01*
X016757Y014251D02*
X017543Y014251D01*
X017568Y014240D02*
X017418Y014302D01*
X017302Y014418D01*
X017240Y014568D01*
X017240Y014732D01*
X017302Y014882D01*
X017418Y014998D01*
X017568Y015060D01*
X017732Y015060D01*
X017882Y014998D01*
X017998Y014882D01*
X018060Y014732D01*
X018060Y014568D01*
X017998Y014418D01*
X017882Y014302D01*
X017732Y014240D01*
X017568Y014240D01*
X017568Y014060D02*
X017418Y013998D01*
X017302Y013882D01*
X017240Y013732D01*
X017240Y013568D01*
X017302Y013418D01*
X017418Y013302D01*
X017568Y013240D01*
X017732Y013240D01*
X017882Y013302D01*
X017998Y013418D01*
X018060Y013568D01*
X018060Y013732D01*
X017998Y013882D01*
X017882Y013998D01*
X017732Y014060D01*
X017568Y014060D01*
X017553Y014054D02*
X016800Y014054D01*
X016690Y014054D02*
X016610Y014054D01*
X016610Y013955D02*
X016690Y013955D01*
X016690Y013857D02*
X016610Y013857D01*
X016610Y013758D02*
X016690Y013758D01*
X016690Y013660D02*
X017240Y013660D01*
X017251Y013758D02*
X017067Y013758D01*
X017027Y013857D02*
X017292Y013857D01*
X017375Y013955D02*
X016953Y013955D01*
X016929Y014349D02*
X017371Y014349D01*
X017290Y014448D02*
X017010Y014448D01*
X017051Y014546D02*
X017249Y014546D01*
X017240Y014645D02*
X017060Y014645D01*
X017055Y014743D02*
X017245Y014743D01*
X017286Y014842D02*
X017014Y014842D01*
X016940Y014940D02*
X017360Y014940D01*
X017517Y015039D02*
X016783Y015039D01*
X016517Y015039D02*
X015783Y015039D01*
X015940Y014940D02*
X016360Y014940D01*
X016286Y014842D02*
X016014Y014842D01*
X016055Y014743D02*
X016245Y014743D01*
X016240Y014645D02*
X016060Y014645D01*
X016051Y014546D02*
X016249Y014546D01*
X016290Y014448D02*
X016010Y014448D01*
X015929Y014349D02*
X016371Y014349D01*
X015543Y014251D02*
X014757Y014251D01*
X014732Y014240D02*
X014882Y014302D01*
X014998Y014418D01*
X015060Y014568D01*
X015060Y014732D01*
X014998Y014882D01*
X014882Y014998D01*
X014732Y015060D01*
X014568Y015060D01*
X014418Y014998D01*
X014302Y014882D01*
X014240Y014732D01*
X014240Y014568D01*
X014302Y014418D01*
X014418Y014302D01*
X014568Y014240D01*
X014732Y014240D01*
X014747Y014054D02*
X015553Y014054D01*
X015375Y013955D02*
X014925Y013955D01*
X015008Y013857D02*
X015292Y013857D01*
X015251Y013758D02*
X015049Y013758D01*
X015060Y013660D02*
X015240Y013660D01*
X015243Y013561D02*
X015057Y013561D01*
X015016Y013463D02*
X015284Y013463D01*
X015356Y013364D02*
X014944Y013364D01*
X014356Y013364D02*
X001100Y013364D01*
X001100Y013463D02*
X014284Y013463D01*
X014243Y013561D02*
X001100Y013561D01*
X001100Y013660D02*
X014240Y013660D01*
X014251Y013758D02*
X001100Y013758D01*
X001100Y013857D02*
X014292Y013857D01*
X014375Y013955D02*
X001100Y013955D01*
X001100Y014054D02*
X014553Y014054D01*
X014543Y014251D02*
X001100Y014251D01*
X001100Y014349D02*
X014371Y014349D01*
X014290Y014448D02*
X001100Y014448D01*
X001100Y014546D02*
X014249Y014546D01*
X014240Y014645D02*
X001100Y014645D01*
X001100Y014743D02*
X014245Y014743D01*
X014286Y014842D02*
X001100Y014842D01*
X001100Y014940D02*
X014360Y014940D01*
X014517Y015039D02*
X001100Y015039D01*
X001100Y015137D02*
X029196Y015137D01*
X029196Y015039D02*
X018783Y015039D01*
X018732Y015060D02*
X018568Y015060D01*
X018418Y014998D01*
X018302Y014882D01*
X018240Y014732D01*
X018240Y014568D01*
X018302Y014418D01*
X018418Y014302D01*
X018568Y014240D01*
X018732Y014240D01*
X018882Y014302D01*
X018998Y014418D01*
X019060Y014568D01*
X019060Y014732D01*
X018998Y014882D01*
X018882Y014998D01*
X018732Y015060D01*
X018517Y015039D02*
X017783Y015039D01*
X017940Y014940D02*
X018360Y014940D01*
X018286Y014842D02*
X018014Y014842D01*
X018055Y014743D02*
X018245Y014743D01*
X018240Y014645D02*
X018060Y014645D01*
X018051Y014546D02*
X018249Y014546D01*
X018290Y014448D02*
X018010Y014448D01*
X017929Y014349D02*
X018371Y014349D01*
X018543Y014251D02*
X017757Y014251D01*
X017747Y014054D02*
X018553Y014054D01*
X018568Y014060D02*
X018418Y013998D01*
X018302Y013882D01*
X018240Y013732D01*
X018240Y013568D01*
X018302Y013418D01*
X018418Y013302D01*
X018568Y013240D01*
X018732Y013240D01*
X018882Y013302D01*
X018998Y013418D01*
X019060Y013568D01*
X019060Y013732D01*
X018998Y013882D01*
X018882Y013998D01*
X018732Y014060D01*
X018568Y014060D01*
X018747Y014054D02*
X029196Y014054D01*
X029196Y014152D02*
X001100Y014152D01*
X001100Y015236D02*
X029196Y015236D01*
X029196Y015334D02*
X001100Y015334D01*
X001100Y015433D02*
X029196Y015433D01*
X029196Y015531D02*
X001100Y015531D01*
X001100Y015630D02*
X001786Y015630D01*
X001587Y015728D02*
X001100Y015728D01*
X001100Y015827D02*
X001446Y015827D01*
X001348Y015925D02*
X001100Y015925D01*
X001100Y016024D02*
X001265Y016024D01*
X001208Y016122D02*
X001100Y016122D01*
X001100Y016221D02*
X001151Y016221D01*
X001121Y016319D02*
X001100Y016319D01*
X002514Y015630D02*
X027786Y015630D01*
X027587Y015728D02*
X002713Y015728D01*
X002854Y015827D02*
X011898Y015827D01*
X011883Y015837D02*
X011935Y015799D01*
X011993Y015770D01*
X012054Y015750D01*
X012118Y015740D01*
X012120Y015740D01*
X012120Y016120D01*
X011740Y016120D01*
X011740Y016118D01*
X011750Y016054D01*
X011770Y015993D01*
X011799Y015935D01*
X011837Y015883D01*
X011883Y015837D01*
X011807Y015925D02*
X002952Y015925D01*
X003035Y016024D02*
X011760Y016024D01*
X011740Y016180D02*
X012120Y016180D01*
X012120Y016560D01*
X012118Y016560D01*
X012054Y016550D01*
X011993Y016530D01*
X011935Y016501D01*
X011883Y016463D01*
X011837Y016417D01*
X011799Y016365D01*
X011770Y016307D01*
X011750Y016246D01*
X011740Y016182D01*
X011740Y016180D01*
X011746Y016221D02*
X003149Y016221D01*
X003179Y016319D02*
X011776Y016319D01*
X011838Y016418D02*
X003206Y016418D01*
X003230Y016516D02*
X011965Y016516D01*
X012120Y016516D02*
X012180Y016516D01*
X012180Y016560D02*
X012180Y016180D01*
X012120Y016180D01*
X012120Y016120D01*
X012180Y016120D01*
X012180Y016180D01*
X012560Y016180D01*
X012560Y016182D01*
X012550Y016246D01*
X012530Y016307D01*
X012501Y016365D01*
X012463Y016417D01*
X012417Y016463D01*
X012365Y016501D01*
X012307Y016530D01*
X012246Y016550D01*
X012182Y016560D01*
X012180Y016560D01*
X012180Y016418D02*
X012120Y016418D01*
X012120Y016319D02*
X012180Y016319D01*
X012180Y016221D02*
X012120Y016221D01*
X012120Y016122D02*
X003092Y016122D01*
X003230Y016615D02*
X027070Y016615D01*
X027070Y016713D02*
X003230Y016713D01*
X003225Y016812D02*
X027075Y016812D01*
X027102Y016910D02*
X003198Y016910D01*
X003172Y017009D02*
X027128Y017009D01*
X027167Y017107D02*
X003133Y017107D01*
X003076Y017206D02*
X027224Y017206D01*
X027281Y017304D02*
X003019Y017304D01*
X002925Y017403D02*
X027375Y017403D01*
X027474Y017501D02*
X002826Y017501D01*
X002665Y017600D02*
X027635Y017600D01*
X027889Y017698D02*
X002411Y017698D01*
X004929Y011481D02*
X005072Y011540D01*
X005228Y011540D01*
X005371Y011481D01*
X005481Y011371D01*
X005540Y011228D01*
X005540Y011072D01*
X005481Y010929D01*
X005371Y010819D01*
X005228Y010760D01*
X005072Y010760D01*
X004929Y010819D01*
X004819Y010929D01*
X004760Y011072D01*
X004760Y011228D01*
X004819Y011371D01*
X004929Y011481D01*
X004958Y011493D02*
X004342Y011493D01*
X004458Y011394D02*
X004842Y011394D01*
X004788Y011296D02*
X004512Y011296D01*
X004540Y011197D02*
X004760Y011197D01*
X004760Y011099D02*
X004540Y011099D01*
X004510Y011000D02*
X004790Y011000D01*
X004847Y010902D02*
X004453Y010902D01*
X004331Y010803D02*
X004969Y010803D01*
X005331Y010803D02*
X006969Y010803D01*
X006929Y010819D02*
X007072Y010760D01*
X007228Y010760D01*
X007371Y010819D01*
X007481Y010929D01*
X007540Y011072D01*
X007540Y011228D01*
X007481Y011371D01*
X007371Y011481D01*
X007228Y011540D01*
X007072Y011540D01*
X006929Y011481D01*
X006819Y011371D01*
X006760Y011228D01*
X006760Y011072D01*
X006819Y010929D01*
X006929Y010819D01*
X006847Y010902D02*
X005453Y010902D01*
X005510Y011000D02*
X006790Y011000D01*
X006760Y011099D02*
X005540Y011099D01*
X005540Y011197D02*
X006760Y011197D01*
X006788Y011296D02*
X005512Y011296D01*
X005458Y011394D02*
X006842Y011394D01*
X006958Y011493D02*
X005342Y011493D01*
X005228Y010040D02*
X005072Y010040D01*
X004929Y009981D01*
X004819Y009871D01*
X004760Y009728D01*
X004760Y009572D01*
X004819Y009429D01*
X004929Y009319D01*
X005072Y009260D01*
X005228Y009260D01*
X005371Y009319D01*
X005481Y009429D01*
X005540Y009572D01*
X005540Y009728D01*
X005481Y009871D01*
X005371Y009981D01*
X005228Y010040D01*
X005288Y010015D02*
X007012Y010015D01*
X007072Y010040D02*
X006929Y009981D01*
X006819Y009871D01*
X006760Y009728D01*
X006760Y009572D01*
X006819Y009429D01*
X006929Y009319D01*
X007072Y009260D01*
X007228Y009260D01*
X007371Y009319D01*
X007481Y009429D01*
X007540Y009572D01*
X007540Y009728D01*
X007481Y009871D01*
X007371Y009981D01*
X007228Y010040D01*
X007072Y010040D01*
X007288Y010015D02*
X008012Y010015D01*
X008072Y010040D02*
X007929Y009981D01*
X007819Y009871D01*
X007760Y009728D01*
X007760Y009572D01*
X007819Y009429D01*
X007929Y009319D01*
X008072Y009260D01*
X008228Y009260D01*
X008371Y009319D01*
X008481Y009429D01*
X008540Y009572D01*
X008540Y009728D01*
X008481Y009871D01*
X008371Y009981D01*
X008228Y010040D01*
X008072Y010040D01*
X008288Y010015D02*
X010012Y010015D01*
X010072Y010040D02*
X009929Y009981D01*
X009819Y009871D01*
X009760Y009728D01*
X009760Y009572D01*
X009819Y009429D01*
X009929Y009319D01*
X010072Y009260D01*
X010228Y009260D01*
X010371Y009319D01*
X010481Y009429D01*
X010540Y009572D01*
X010540Y009728D01*
X010481Y009871D01*
X010371Y009981D01*
X010228Y010040D01*
X010072Y010040D01*
X010288Y010015D02*
X011012Y010015D01*
X011072Y010040D02*
X010929Y009981D01*
X010819Y009871D01*
X010760Y009728D01*
X010760Y009572D01*
X010819Y009429D01*
X010929Y009319D01*
X011072Y009260D01*
X011228Y009260D01*
X011371Y009319D01*
X011481Y009429D01*
X011540Y009572D01*
X011540Y009728D01*
X011481Y009871D01*
X011371Y009981D01*
X011228Y010040D01*
X011072Y010040D01*
X011288Y010015D02*
X013012Y010015D01*
X013072Y010040D02*
X012929Y009981D01*
X012819Y009871D01*
X012760Y009728D01*
X012760Y009572D01*
X012819Y009429D01*
X012929Y009319D01*
X013072Y009260D01*
X013228Y009260D01*
X013371Y009319D01*
X013481Y009429D01*
X013540Y009572D01*
X013540Y009728D01*
X013481Y009871D01*
X013371Y009981D01*
X013228Y010040D01*
X013072Y010040D01*
X013288Y010015D02*
X014012Y010015D01*
X014072Y010040D02*
X013929Y009981D01*
X013819Y009871D01*
X013760Y009728D01*
X013760Y009572D01*
X013819Y009429D01*
X013929Y009319D01*
X014072Y009260D01*
X014228Y009260D01*
X014371Y009319D01*
X014481Y009429D01*
X014540Y009572D01*
X014540Y009728D01*
X014481Y009871D01*
X014371Y009981D01*
X014228Y010040D01*
X014072Y010040D01*
X014288Y010015D02*
X016012Y010015D01*
X016072Y010040D02*
X015929Y009981D01*
X015819Y009871D01*
X015760Y009728D01*
X015760Y009572D01*
X015819Y009429D01*
X015929Y009319D01*
X016072Y009260D01*
X016228Y009260D01*
X016371Y009319D01*
X016481Y009429D01*
X016540Y009572D01*
X016540Y009728D01*
X016481Y009871D01*
X016371Y009981D01*
X016228Y010040D01*
X016072Y010040D01*
X016288Y010015D02*
X017012Y010015D01*
X017072Y010040D02*
X016929Y009981D01*
X016819Y009871D01*
X016760Y009728D01*
X016760Y009572D01*
X016819Y009429D01*
X016929Y009319D01*
X017072Y009260D01*
X017228Y009260D01*
X017371Y009319D01*
X017481Y009429D01*
X017540Y009572D01*
X017540Y009728D01*
X017481Y009871D01*
X017371Y009981D01*
X017228Y010040D01*
X017072Y010040D01*
X017288Y010015D02*
X019012Y010015D01*
X019072Y010040D02*
X018929Y009981D01*
X018819Y009871D01*
X018760Y009728D01*
X018760Y009572D01*
X018819Y009429D01*
X018929Y009319D01*
X019072Y009260D01*
X019228Y009260D01*
X019371Y009319D01*
X019481Y009429D01*
X019540Y009572D01*
X019540Y009728D01*
X019481Y009871D01*
X019371Y009981D01*
X019228Y010040D01*
X019072Y010040D01*
X019288Y010015D02*
X020012Y010015D01*
X020072Y010040D02*
X019929Y009981D01*
X019819Y009871D01*
X019760Y009728D01*
X019760Y009572D01*
X019819Y009429D01*
X019929Y009319D01*
X020072Y009260D01*
X020228Y009260D01*
X020371Y009319D01*
X020481Y009429D01*
X020540Y009572D01*
X020540Y009728D01*
X020481Y009871D01*
X020371Y009981D01*
X020228Y010040D01*
X020072Y010040D01*
X020288Y010015D02*
X022012Y010015D01*
X022072Y010040D02*
X021929Y009981D01*
X021819Y009871D01*
X021760Y009728D01*
X021760Y009572D01*
X021819Y009429D01*
X021929Y009319D01*
X022072Y009260D01*
X022228Y009260D01*
X022371Y009319D01*
X022481Y009429D01*
X022540Y009572D01*
X022540Y009728D01*
X022481Y009871D01*
X022371Y009981D01*
X022228Y010040D01*
X022072Y010040D01*
X022288Y010015D02*
X023012Y010015D01*
X023072Y010040D02*
X022929Y009981D01*
X022819Y009871D01*
X022760Y009728D01*
X022760Y009572D01*
X022819Y009429D01*
X022929Y009319D01*
X023072Y009260D01*
X023228Y009260D01*
X023371Y009319D01*
X023481Y009429D01*
X023540Y009572D01*
X023540Y009728D01*
X023481Y009871D01*
X023371Y009981D01*
X023228Y010040D01*
X023072Y010040D01*
X023288Y010015D02*
X025012Y010015D01*
X025072Y010040D02*
X024929Y009981D01*
X024819Y009871D01*
X024760Y009728D01*
X024760Y009572D01*
X024819Y009429D01*
X024929Y009319D01*
X025072Y009260D01*
X025228Y009260D01*
X025371Y009319D01*
X025481Y009429D01*
X025540Y009572D01*
X025540Y009728D01*
X025481Y009871D01*
X025371Y009981D01*
X025228Y010040D01*
X025072Y010040D01*
X025288Y010015D02*
X026012Y010015D01*
X026072Y010040D02*
X025929Y009981D01*
X025819Y009871D01*
X025760Y009728D01*
X025760Y009572D01*
X025819Y009429D01*
X025929Y009319D01*
X026072Y009260D01*
X026228Y009260D01*
X026371Y009319D01*
X026481Y009429D01*
X026540Y009572D01*
X026540Y009728D01*
X026481Y009871D01*
X026371Y009981D01*
X026228Y010040D01*
X026072Y010040D01*
X026288Y010015D02*
X029196Y010015D01*
X029196Y009917D02*
X026435Y009917D01*
X026503Y009818D02*
X029196Y009818D01*
X029196Y009720D02*
X026540Y009720D01*
X026540Y009621D02*
X029196Y009621D01*
X029196Y009523D02*
X026519Y009523D01*
X026476Y009424D02*
X029196Y009424D01*
X029196Y009326D02*
X026377Y009326D01*
X025923Y009326D02*
X025377Y009326D01*
X025476Y009424D02*
X025824Y009424D01*
X025781Y009523D02*
X025519Y009523D01*
X025540Y009621D02*
X025760Y009621D01*
X025760Y009720D02*
X025540Y009720D01*
X025503Y009818D02*
X025797Y009818D01*
X025865Y009917D02*
X025435Y009917D01*
X024865Y009917D02*
X023435Y009917D01*
X023503Y009818D02*
X024797Y009818D01*
X024760Y009720D02*
X023540Y009720D01*
X023540Y009621D02*
X024760Y009621D01*
X024781Y009523D02*
X023519Y009523D01*
X023476Y009424D02*
X024824Y009424D01*
X024923Y009326D02*
X023377Y009326D01*
X022923Y009326D02*
X022377Y009326D01*
X022476Y009424D02*
X022824Y009424D01*
X022781Y009523D02*
X022519Y009523D01*
X022540Y009621D02*
X022760Y009621D01*
X022760Y009720D02*
X022540Y009720D01*
X022503Y009818D02*
X022797Y009818D01*
X022865Y009917D02*
X022435Y009917D01*
X021865Y009917D02*
X020435Y009917D01*
X020503Y009818D02*
X021797Y009818D01*
X021760Y009720D02*
X020540Y009720D01*
X020540Y009621D02*
X021760Y009621D01*
X021781Y009523D02*
X020519Y009523D01*
X020476Y009424D02*
X021824Y009424D01*
X021923Y009326D02*
X020377Y009326D01*
X019923Y009326D02*
X019377Y009326D01*
X019476Y009424D02*
X019824Y009424D01*
X019781Y009523D02*
X019519Y009523D01*
X019540Y009621D02*
X019760Y009621D01*
X019760Y009720D02*
X019540Y009720D01*
X019503Y009818D02*
X019797Y009818D01*
X019865Y009917D02*
X019435Y009917D01*
X018865Y009917D02*
X017435Y009917D01*
X017503Y009818D02*
X018797Y009818D01*
X018760Y009720D02*
X017540Y009720D01*
X017540Y009621D02*
X018760Y009621D01*
X018781Y009523D02*
X017519Y009523D01*
X017476Y009424D02*
X018824Y009424D01*
X018923Y009326D02*
X017377Y009326D01*
X016923Y009326D02*
X016377Y009326D01*
X016476Y009424D02*
X016824Y009424D01*
X016781Y009523D02*
X016519Y009523D01*
X016540Y009621D02*
X016760Y009621D01*
X016760Y009720D02*
X016540Y009720D01*
X016503Y009818D02*
X016797Y009818D01*
X016865Y009917D02*
X016435Y009917D01*
X015865Y009917D02*
X014435Y009917D01*
X014503Y009818D02*
X015797Y009818D01*
X015760Y009720D02*
X014540Y009720D01*
X014540Y009621D02*
X015760Y009621D01*
X015781Y009523D02*
X014519Y009523D01*
X014476Y009424D02*
X015824Y009424D01*
X015923Y009326D02*
X014377Y009326D01*
X013923Y009326D02*
X013377Y009326D01*
X013476Y009424D02*
X013824Y009424D01*
X013781Y009523D02*
X013519Y009523D01*
X013540Y009621D02*
X013760Y009621D01*
X013760Y009720D02*
X013540Y009720D01*
X013503Y009818D02*
X013797Y009818D01*
X013865Y009917D02*
X013435Y009917D01*
X012865Y009917D02*
X011435Y009917D01*
X011503Y009818D02*
X012797Y009818D01*
X012760Y009720D02*
X011540Y009720D01*
X011540Y009621D02*
X012760Y009621D01*
X012781Y009523D02*
X011519Y009523D01*
X011476Y009424D02*
X012824Y009424D01*
X012923Y009326D02*
X011377Y009326D01*
X010923Y009326D02*
X010377Y009326D01*
X010476Y009424D02*
X010824Y009424D01*
X010781Y009523D02*
X010519Y009523D01*
X010540Y009621D02*
X010760Y009621D01*
X010760Y009720D02*
X010540Y009720D01*
X010503Y009818D02*
X010797Y009818D01*
X010865Y009917D02*
X010435Y009917D01*
X009865Y009917D02*
X008435Y009917D01*
X008503Y009818D02*
X009797Y009818D01*
X009760Y009720D02*
X008540Y009720D01*
X008540Y009621D02*
X009760Y009621D01*
X009781Y009523D02*
X008519Y009523D01*
X008476Y009424D02*
X009824Y009424D01*
X009923Y009326D02*
X008377Y009326D01*
X007923Y009326D02*
X007377Y009326D01*
X007476Y009424D02*
X007824Y009424D01*
X007781Y009523D02*
X007519Y009523D01*
X007540Y009621D02*
X007760Y009621D01*
X007760Y009720D02*
X007540Y009720D01*
X007503Y009818D02*
X007797Y009818D01*
X007865Y009917D02*
X007435Y009917D01*
X006865Y009917D02*
X005435Y009917D01*
X005503Y009818D02*
X006797Y009818D01*
X006760Y009720D02*
X005540Y009720D01*
X005540Y009621D02*
X006760Y009621D01*
X006781Y009523D02*
X005519Y009523D01*
X005476Y009424D02*
X006824Y009424D01*
X006923Y009326D02*
X005377Y009326D01*
X004923Y009326D02*
X004377Y009326D01*
X004476Y009424D02*
X004824Y009424D01*
X004781Y009523D02*
X004519Y009523D01*
X004540Y009621D02*
X004760Y009621D01*
X004760Y009720D02*
X004540Y009720D01*
X004503Y009818D02*
X004797Y009818D01*
X004865Y009917D02*
X004435Y009917D01*
X004288Y010015D02*
X005012Y010015D01*
X007331Y010803D02*
X007969Y010803D01*
X007929Y010819D02*
X008072Y010760D01*
X008228Y010760D01*
X008371Y010819D01*
X008481Y010929D01*
X008540Y011072D01*
X008540Y011228D01*
X008481Y011371D01*
X008371Y011481D01*
X008228Y011540D01*
X008072Y011540D01*
X007929Y011481D01*
X007819Y011371D01*
X007760Y011228D01*
X007760Y011072D01*
X007819Y010929D01*
X007929Y010819D01*
X007847Y010902D02*
X007453Y010902D01*
X007510Y011000D02*
X007790Y011000D01*
X007760Y011099D02*
X007540Y011099D01*
X007540Y011197D02*
X007760Y011197D01*
X007788Y011296D02*
X007512Y011296D01*
X007458Y011394D02*
X007842Y011394D01*
X007958Y011493D02*
X007342Y011493D01*
X008342Y011493D02*
X009958Y011493D01*
X009929Y011481D02*
X009819Y011371D01*
X009760Y011228D01*
X009760Y011072D01*
X009819Y010929D01*
X009929Y010819D01*
X010072Y010760D01*
X010228Y010760D01*
X010371Y010819D01*
X010481Y010929D01*
X010540Y011072D01*
X010540Y011228D01*
X010481Y011371D01*
X010371Y011481D01*
X010228Y011540D01*
X010072Y011540D01*
X009929Y011481D01*
X009842Y011394D02*
X008458Y011394D01*
X008512Y011296D02*
X009788Y011296D01*
X009760Y011197D02*
X008540Y011197D01*
X008540Y011099D02*
X009760Y011099D01*
X009790Y011000D02*
X008510Y011000D01*
X008453Y010902D02*
X009847Y010902D01*
X009969Y010803D02*
X008331Y010803D01*
X010331Y010803D02*
X010969Y010803D01*
X010929Y010819D02*
X011072Y010760D01*
X011228Y010760D01*
X011371Y010819D01*
X011481Y010929D01*
X011540Y011072D01*
X011540Y011228D01*
X011481Y011371D01*
X011371Y011481D01*
X011228Y011540D01*
X011072Y011540D01*
X010929Y011481D01*
X010819Y011371D01*
X010760Y011228D01*
X010760Y011072D01*
X010819Y010929D01*
X010929Y010819D01*
X010847Y010902D02*
X010453Y010902D01*
X010510Y011000D02*
X010790Y011000D01*
X010760Y011099D02*
X010540Y011099D01*
X010540Y011197D02*
X010760Y011197D01*
X010788Y011296D02*
X010512Y011296D01*
X010458Y011394D02*
X010842Y011394D01*
X010958Y011493D02*
X010342Y011493D01*
X011331Y010803D02*
X012969Y010803D01*
X012929Y010819D02*
X013072Y010760D01*
X013228Y010760D01*
X013371Y010819D01*
X013481Y010929D01*
X013540Y011072D01*
X013540Y011228D01*
X013481Y011371D01*
X013371Y011481D01*
X013228Y011540D01*
X013072Y011540D01*
X012929Y011481D01*
X012819Y011371D01*
X012760Y011228D01*
X012760Y011072D01*
X012819Y010929D01*
X012929Y010819D01*
X012847Y010902D02*
X011453Y010902D01*
X011510Y011000D02*
X012790Y011000D01*
X012760Y011099D02*
X011540Y011099D01*
X011540Y011197D02*
X012760Y011197D01*
X012788Y011296D02*
X011512Y011296D01*
X011458Y011394D02*
X012842Y011394D01*
X012958Y011493D02*
X011342Y011493D01*
X013342Y011493D02*
X013958Y011493D01*
X013929Y011481D02*
X013819Y011371D01*
X013760Y011228D01*
X013760Y011072D01*
X013819Y010929D01*
X013929Y010819D01*
X014072Y010760D01*
X014228Y010760D01*
X014371Y010819D01*
X014481Y010929D01*
X014540Y011072D01*
X014540Y011228D01*
X014481Y011371D01*
X014371Y011481D01*
X014228Y011540D01*
X014072Y011540D01*
X013929Y011481D01*
X013842Y011394D02*
X013458Y011394D01*
X013512Y011296D02*
X013788Y011296D01*
X013760Y011197D02*
X013540Y011197D01*
X013540Y011099D02*
X013760Y011099D01*
X013790Y011000D02*
X013510Y011000D01*
X013453Y010902D02*
X013847Y010902D01*
X013969Y010803D02*
X013331Y010803D01*
X014331Y010803D02*
X015969Y010803D01*
X015929Y010819D02*
X016072Y010760D01*
X016228Y010760D01*
X016371Y010819D01*
X016481Y010929D01*
X016540Y011072D01*
X016540Y011228D01*
X016481Y011371D01*
X016371Y011481D01*
X016228Y011540D01*
X016072Y011540D01*
X015929Y011481D01*
X015819Y011371D01*
X015760Y011228D01*
X015760Y011072D01*
X015819Y010929D01*
X015929Y010819D01*
X015847Y010902D02*
X014453Y010902D01*
X014510Y011000D02*
X015790Y011000D01*
X015760Y011099D02*
X014540Y011099D01*
X014540Y011197D02*
X015760Y011197D01*
X015788Y011296D02*
X014512Y011296D01*
X014458Y011394D02*
X015842Y011394D01*
X015958Y011493D02*
X014342Y011493D01*
X016342Y011493D02*
X016958Y011493D01*
X016929Y011481D02*
X016819Y011371D01*
X016760Y011228D01*
X016760Y011072D01*
X016819Y010929D01*
X016929Y010819D01*
X017072Y010760D01*
X017228Y010760D01*
X017371Y010819D01*
X017481Y010929D01*
X017540Y011072D01*
X017540Y011228D01*
X017481Y011371D01*
X017371Y011481D01*
X017228Y011540D01*
X017072Y011540D01*
X016929Y011481D01*
X016842Y011394D02*
X016458Y011394D01*
X016512Y011296D02*
X016788Y011296D01*
X016760Y011197D02*
X016540Y011197D01*
X016540Y011099D02*
X016760Y011099D01*
X016790Y011000D02*
X016510Y011000D01*
X016453Y010902D02*
X016847Y010902D01*
X016969Y010803D02*
X016331Y010803D01*
X017331Y010803D02*
X018969Y010803D01*
X018929Y010819D02*
X019072Y010760D01*
X019228Y010760D01*
X019371Y010819D01*
X019481Y010929D01*
X019540Y011072D01*
X019540Y011228D01*
X019481Y011371D01*
X019371Y011481D01*
X019228Y011540D01*
X019072Y011540D01*
X018929Y011481D01*
X018819Y011371D01*
X018760Y011228D01*
X018760Y011072D01*
X018819Y010929D01*
X018929Y010819D01*
X018847Y010902D02*
X017453Y010902D01*
X017510Y011000D02*
X018790Y011000D01*
X018760Y011099D02*
X017540Y011099D01*
X017540Y011197D02*
X018760Y011197D01*
X018788Y011296D02*
X017512Y011296D01*
X017458Y011394D02*
X018842Y011394D01*
X018958Y011493D02*
X017342Y011493D01*
X019342Y011493D02*
X019958Y011493D01*
X019929Y011481D02*
X019819Y011371D01*
X019760Y011228D01*
X019760Y011072D01*
X019819Y010929D01*
X019929Y010819D01*
X020072Y010760D01*
X020228Y010760D01*
X020371Y010819D01*
X020481Y010929D01*
X020540Y011072D01*
X020540Y011228D01*
X020481Y011371D01*
X020371Y011481D01*
X020228Y011540D01*
X020072Y011540D01*
X019929Y011481D01*
X019842Y011394D02*
X019458Y011394D01*
X019512Y011296D02*
X019788Y011296D01*
X019760Y011197D02*
X019540Y011197D01*
X019540Y011099D02*
X019760Y011099D01*
X019790Y011000D02*
X019510Y011000D01*
X019453Y010902D02*
X019847Y010902D01*
X019969Y010803D02*
X019331Y010803D01*
X020331Y010803D02*
X021969Y010803D01*
X021929Y010819D02*
X022072Y010760D01*
X022228Y010760D01*
X022371Y010819D01*
X022481Y010929D01*
X022540Y011072D01*
X022540Y011228D01*
X022481Y011371D01*
X022371Y011481D01*
X022228Y011540D01*
X022072Y011540D01*
X021929Y011481D01*
X021819Y011371D01*
X021760Y011228D01*
X021760Y011072D01*
X021819Y010929D01*
X021929Y010819D01*
X021847Y010902D02*
X020453Y010902D01*
X020510Y011000D02*
X021790Y011000D01*
X021760Y011099D02*
X020540Y011099D01*
X020540Y011197D02*
X021760Y011197D01*
X021788Y011296D02*
X020512Y011296D01*
X020458Y011394D02*
X021842Y011394D01*
X021958Y011493D02*
X020342Y011493D01*
X022342Y011493D02*
X022958Y011493D01*
X022929Y011481D02*
X022819Y011371D01*
X022760Y011228D01*
X022760Y011072D01*
X022819Y010929D01*
X022929Y010819D01*
X023072Y010760D01*
X023228Y010760D01*
X023371Y010819D01*
X023481Y010929D01*
X023540Y011072D01*
X023540Y011228D01*
X023481Y011371D01*
X023371Y011481D01*
X023228Y011540D01*
X023072Y011540D01*
X022929Y011481D01*
X022842Y011394D02*
X022458Y011394D01*
X022512Y011296D02*
X022788Y011296D01*
X022760Y011197D02*
X022540Y011197D01*
X022540Y011099D02*
X022760Y011099D01*
X022790Y011000D02*
X022510Y011000D01*
X022453Y010902D02*
X022847Y010902D01*
X022969Y010803D02*
X022331Y010803D01*
X023331Y010803D02*
X024969Y010803D01*
X024929Y010819D02*
X025072Y010760D01*
X025228Y010760D01*
X025371Y010819D01*
X025481Y010929D01*
X025540Y011072D01*
X025540Y011228D01*
X025481Y011371D01*
X025371Y011481D01*
X025228Y011540D01*
X025072Y011540D01*
X024929Y011481D01*
X024819Y011371D01*
X024760Y011228D01*
X024760Y011072D01*
X024819Y010929D01*
X024929Y010819D01*
X024847Y010902D02*
X023453Y010902D01*
X023510Y011000D02*
X024790Y011000D01*
X024760Y011099D02*
X023540Y011099D01*
X023540Y011197D02*
X024760Y011197D01*
X024788Y011296D02*
X023512Y011296D01*
X023458Y011394D02*
X024842Y011394D01*
X024958Y011493D02*
X023342Y011493D01*
X025342Y011493D02*
X025958Y011493D01*
X025842Y011394D02*
X025458Y011394D01*
X025512Y011296D02*
X025788Y011296D01*
X025760Y011197D02*
X025540Y011197D01*
X025540Y011099D02*
X025760Y011099D01*
X025790Y011000D02*
X025510Y011000D01*
X025453Y010902D02*
X025847Y010902D01*
X025969Y010803D02*
X025331Y010803D01*
X029196Y013266D02*
X018793Y013266D01*
X018944Y013364D02*
X029196Y013364D01*
X029196Y013463D02*
X019016Y013463D01*
X019057Y013561D02*
X029196Y013561D01*
X029196Y013660D02*
X019060Y013660D01*
X019049Y013758D02*
X029196Y013758D01*
X029196Y013857D02*
X019008Y013857D01*
X018925Y013955D02*
X029196Y013955D01*
X029196Y014251D02*
X018757Y014251D01*
X018929Y014349D02*
X029196Y014349D01*
X029196Y014448D02*
X019010Y014448D01*
X019051Y014546D02*
X029196Y014546D01*
X029196Y014645D02*
X019060Y014645D01*
X019055Y014743D02*
X029196Y014743D01*
X029196Y014842D02*
X019014Y014842D01*
X018940Y014940D02*
X029196Y014940D01*
X029196Y015630D02*
X028514Y015630D01*
X028713Y015728D02*
X029196Y015728D01*
X029196Y015827D02*
X028854Y015827D01*
X028952Y015925D02*
X029196Y015925D01*
X029196Y016024D02*
X029035Y016024D01*
X029092Y016122D02*
X029196Y016122D01*
X029196Y016221D02*
X029149Y016221D01*
X029179Y016319D02*
X029196Y016319D01*
X027446Y015827D02*
X021378Y015827D01*
X021371Y015819D02*
X021481Y015929D01*
X021540Y016072D01*
X021540Y016228D01*
X021481Y016371D01*
X021371Y016481D01*
X021228Y016540D01*
X021072Y016540D01*
X020929Y016481D01*
X020819Y016371D01*
X020760Y016228D01*
X020760Y016072D01*
X020819Y015929D01*
X020929Y015819D01*
X021072Y015760D01*
X021228Y015760D01*
X021371Y015819D01*
X021477Y015925D02*
X027348Y015925D01*
X027265Y016024D02*
X021520Y016024D01*
X021540Y016122D02*
X027208Y016122D01*
X027151Y016221D02*
X021540Y016221D01*
X021502Y016319D02*
X027121Y016319D01*
X027094Y016418D02*
X021434Y016418D01*
X021285Y016516D02*
X027070Y016516D01*
X021015Y016516D02*
X020285Y016516D01*
X020228Y016540D02*
X020072Y016540D01*
X019929Y016481D01*
X019819Y016371D01*
X019760Y016228D01*
X019760Y016072D01*
X019819Y015929D01*
X019929Y015819D01*
X020072Y015760D01*
X020228Y015760D01*
X020371Y015819D01*
X020481Y015929D01*
X020540Y016072D01*
X020540Y016228D01*
X020481Y016371D01*
X020371Y016481D01*
X020228Y016540D01*
X020015Y016516D02*
X019285Y016516D01*
X019228Y016540D02*
X019072Y016540D01*
X018929Y016481D01*
X018819Y016371D01*
X018760Y016228D01*
X018760Y016072D01*
X018819Y015929D01*
X018929Y015819D01*
X019072Y015760D01*
X019228Y015760D01*
X019371Y015819D01*
X019481Y015929D01*
X019540Y016072D01*
X019540Y016228D01*
X019481Y016371D01*
X019371Y016481D01*
X019228Y016540D01*
X019015Y016516D02*
X018285Y016516D01*
X018228Y016540D02*
X018371Y016481D01*
X018481Y016371D01*
X018540Y016228D01*
X018540Y016072D01*
X018481Y015929D01*
X018371Y015819D01*
X018228Y015760D01*
X018072Y015760D01*
X017929Y015819D01*
X017819Y015929D01*
X017760Y016072D01*
X017760Y016228D01*
X017819Y016371D01*
X017929Y016481D01*
X018072Y016540D01*
X018228Y016540D01*
X018015Y016516D02*
X017285Y016516D01*
X017228Y016540D02*
X017072Y016540D01*
X016929Y016481D01*
X016819Y016371D01*
X016760Y016228D01*
X016760Y016072D01*
X016819Y015929D01*
X016929Y015819D01*
X017072Y015760D01*
X017228Y015760D01*
X017371Y015819D01*
X017481Y015929D01*
X017540Y016072D01*
X017540Y016228D01*
X017481Y016371D01*
X017371Y016481D01*
X017228Y016540D01*
X017015Y016516D02*
X016285Y016516D01*
X016228Y016540D02*
X016072Y016540D01*
X015929Y016481D01*
X015819Y016371D01*
X015760Y016228D01*
X015760Y016072D01*
X015819Y015929D01*
X015929Y015819D01*
X016072Y015760D01*
X016228Y015760D01*
X016371Y015819D01*
X016481Y015929D01*
X016540Y016072D01*
X016540Y016228D01*
X016481Y016371D01*
X016371Y016481D01*
X016228Y016540D01*
X016015Y016516D02*
X015285Y016516D01*
X015228Y016540D02*
X015072Y016540D01*
X014929Y016481D01*
X014819Y016371D01*
X014760Y016228D01*
X014760Y016072D01*
X014819Y015929D01*
X014929Y015819D01*
X015072Y015760D01*
X015228Y015760D01*
X015371Y015819D01*
X015481Y015929D01*
X015540Y016072D01*
X015540Y016228D01*
X015481Y016371D01*
X015371Y016481D01*
X015228Y016540D01*
X015015Y016516D02*
X014285Y016516D01*
X014228Y016540D02*
X014371Y016481D01*
X014481Y016371D01*
X014540Y016228D01*
X014540Y016072D01*
X014481Y015929D01*
X014371Y015819D01*
X014228Y015760D01*
X014072Y015760D01*
X013929Y015819D01*
X013819Y015929D01*
X013760Y016072D01*
X013760Y016228D01*
X013819Y016371D01*
X013929Y016481D01*
X014072Y016540D01*
X014228Y016540D01*
X014015Y016516D02*
X013285Y016516D01*
X013228Y016540D02*
X013072Y016540D01*
X012929Y016481D01*
X012819Y016371D01*
X012760Y016228D01*
X012760Y016072D01*
X012819Y015929D01*
X012929Y015819D01*
X013072Y015760D01*
X013228Y015760D01*
X013371Y015819D01*
X013481Y015929D01*
X013540Y016072D01*
X013540Y016228D01*
X013481Y016371D01*
X013371Y016481D01*
X013228Y016540D01*
X013015Y016516D02*
X012335Y016516D01*
X012462Y016418D02*
X012866Y016418D01*
X012798Y016319D02*
X012524Y016319D01*
X012554Y016221D02*
X012760Y016221D01*
X012760Y016122D02*
X012180Y016122D01*
X012180Y016120D02*
X012560Y016120D01*
X012560Y016118D01*
X012550Y016054D01*
X012530Y015993D01*
X012501Y015935D01*
X012463Y015883D01*
X012417Y015837D01*
X012365Y015799D01*
X012307Y015770D01*
X012246Y015750D01*
X012182Y015740D01*
X012180Y015740D01*
X012180Y016120D01*
X012180Y016024D02*
X012120Y016024D01*
X012120Y015925D02*
X012180Y015925D01*
X012180Y015827D02*
X012120Y015827D01*
X012402Y015827D02*
X012922Y015827D01*
X012823Y015925D02*
X012493Y015925D01*
X012540Y016024D02*
X012780Y016024D01*
X013378Y015827D02*
X013922Y015827D01*
X013823Y015925D02*
X013477Y015925D01*
X013520Y016024D02*
X013780Y016024D01*
X013760Y016122D02*
X013540Y016122D01*
X013540Y016221D02*
X013760Y016221D01*
X013798Y016319D02*
X013502Y016319D01*
X013434Y016418D02*
X013866Y016418D01*
X014434Y016418D02*
X014866Y016418D01*
X014798Y016319D02*
X014502Y016319D01*
X014540Y016221D02*
X014760Y016221D01*
X014760Y016122D02*
X014540Y016122D01*
X014520Y016024D02*
X014780Y016024D01*
X014823Y015925D02*
X014477Y015925D01*
X014378Y015827D02*
X014922Y015827D01*
X015378Y015827D02*
X015922Y015827D01*
X015823Y015925D02*
X015477Y015925D01*
X015520Y016024D02*
X015780Y016024D01*
X015760Y016122D02*
X015540Y016122D01*
X015540Y016221D02*
X015760Y016221D01*
X015798Y016319D02*
X015502Y016319D01*
X015434Y016418D02*
X015866Y016418D01*
X016434Y016418D02*
X016866Y016418D01*
X016798Y016319D02*
X016502Y016319D01*
X016540Y016221D02*
X016760Y016221D01*
X016760Y016122D02*
X016540Y016122D01*
X016520Y016024D02*
X016780Y016024D01*
X016823Y015925D02*
X016477Y015925D01*
X016378Y015827D02*
X016922Y015827D01*
X017378Y015827D02*
X017922Y015827D01*
X017823Y015925D02*
X017477Y015925D01*
X017520Y016024D02*
X017780Y016024D01*
X017760Y016122D02*
X017540Y016122D01*
X017540Y016221D02*
X017760Y016221D01*
X017798Y016319D02*
X017502Y016319D01*
X017434Y016418D02*
X017866Y016418D01*
X018434Y016418D02*
X018866Y016418D01*
X018798Y016319D02*
X018502Y016319D01*
X018540Y016221D02*
X018760Y016221D01*
X018760Y016122D02*
X018540Y016122D01*
X018520Y016024D02*
X018780Y016024D01*
X018823Y015925D02*
X018477Y015925D01*
X018378Y015827D02*
X018922Y015827D01*
X019378Y015827D02*
X019922Y015827D01*
X019823Y015925D02*
X019477Y015925D01*
X019520Y016024D02*
X019780Y016024D01*
X019760Y016122D02*
X019540Y016122D01*
X019540Y016221D02*
X019760Y016221D01*
X019798Y016319D02*
X019502Y016319D01*
X019434Y016418D02*
X019866Y016418D01*
X020434Y016418D02*
X020866Y016418D01*
X020798Y016319D02*
X020502Y016319D01*
X020540Y016221D02*
X020760Y016221D01*
X020760Y016122D02*
X020540Y016122D01*
X020520Y016024D02*
X020780Y016024D01*
X020823Y015925D02*
X020477Y015925D01*
X020378Y015827D02*
X020922Y015827D01*
X018375Y013955D02*
X017925Y013955D01*
X018008Y013857D02*
X018292Y013857D01*
X018251Y013758D02*
X018049Y013758D01*
X018060Y013660D02*
X018240Y013660D01*
X018243Y013561D02*
X018057Y013561D01*
X018016Y013463D02*
X018284Y013463D01*
X018356Y013364D02*
X017944Y013364D01*
X017793Y013266D02*
X018507Y013266D01*
X017507Y013266D02*
X016843Y013266D01*
X016972Y013364D02*
X017356Y013364D01*
X017284Y013463D02*
X017037Y013463D01*
X017071Y013561D02*
X017243Y013561D01*
X016328Y013364D02*
X015944Y013364D01*
X016016Y013463D02*
X016263Y013463D01*
X016229Y013561D02*
X016057Y013561D01*
X015371Y014349D02*
X014929Y014349D01*
X015010Y014448D02*
X015290Y014448D01*
X015249Y014546D02*
X015051Y014546D01*
X015060Y014645D02*
X015240Y014645D01*
X015245Y014743D02*
X015055Y014743D01*
X015014Y014842D02*
X015286Y014842D01*
X015360Y014940D02*
X014940Y014940D01*
X014783Y015039D02*
X015517Y015039D01*
X016118Y007060D02*
X016054Y007050D01*
X015993Y007030D01*
X015935Y007001D01*
X015883Y006963D01*
X015837Y006917D01*
X015799Y006865D01*
X015770Y006807D01*
X015750Y006746D01*
X015740Y006682D01*
X015740Y006680D01*
X016120Y006680D01*
X016120Y007060D01*
X016118Y007060D01*
X016180Y007060D02*
X016180Y006680D01*
X016120Y006680D01*
X016120Y006620D01*
X015740Y006620D01*
X015740Y006618D01*
X015750Y006554D01*
X015770Y006493D01*
X015799Y006435D01*
X015837Y006383D01*
X015883Y006337D01*
X015935Y006299D01*
X015993Y006270D01*
X016054Y006250D01*
X016118Y006240D01*
X016120Y006240D01*
X016120Y006620D01*
X016180Y006620D01*
X016180Y006680D01*
X016560Y006680D01*
X016560Y006682D01*
X016550Y006746D01*
X016530Y006807D01*
X016501Y006865D01*
X016463Y006917D01*
X016417Y006963D01*
X016365Y007001D01*
X016307Y007030D01*
X016246Y007050D01*
X016182Y007060D01*
X016180Y007060D01*
X016180Y006962D02*
X016120Y006962D01*
X016120Y006863D02*
X016180Y006863D01*
X016180Y006765D02*
X016120Y006765D01*
X016120Y006666D02*
X014540Y006666D01*
X014540Y006728D02*
X014540Y006572D01*
X014481Y006429D01*
X014371Y006319D01*
X014228Y006260D01*
X014072Y006260D01*
X013929Y006319D01*
X013819Y006429D01*
X013760Y006572D01*
X013760Y006728D01*
X013819Y006871D01*
X013929Y006981D01*
X014072Y007040D01*
X014228Y007040D01*
X014371Y006981D01*
X014481Y006871D01*
X014540Y006728D01*
X014525Y006765D02*
X015756Y006765D01*
X015798Y006863D02*
X014484Y006863D01*
X014390Y006962D02*
X015882Y006962D01*
X016418Y006962D02*
X016910Y006962D01*
X016929Y006981D02*
X016819Y006871D01*
X016760Y006728D01*
X016760Y006572D01*
X016819Y006429D01*
X016929Y006319D01*
X017072Y006260D01*
X017228Y006260D01*
X017371Y006319D01*
X017481Y006429D01*
X017540Y006572D01*
X017540Y006728D01*
X017481Y006871D01*
X017371Y006981D01*
X017228Y007040D01*
X017072Y007040D01*
X016929Y006981D01*
X016816Y006863D02*
X016502Y006863D01*
X016544Y006765D02*
X016775Y006765D01*
X016760Y006666D02*
X016180Y006666D01*
X016180Y006620D02*
X016560Y006620D01*
X016560Y006618D01*
X016550Y006554D01*
X016530Y006493D01*
X016501Y006435D01*
X016463Y006383D01*
X016417Y006337D01*
X016365Y006299D01*
X016307Y006270D01*
X016246Y006250D01*
X016182Y006240D01*
X016180Y006240D01*
X016180Y006620D01*
X016180Y006568D02*
X016120Y006568D01*
X016120Y006469D02*
X016180Y006469D01*
X016180Y006371D02*
X016120Y006371D01*
X016120Y006272D02*
X016180Y006272D01*
X016311Y006272D02*
X017043Y006272D01*
X016878Y006371D02*
X016450Y006371D01*
X016518Y006469D02*
X016803Y006469D01*
X016762Y006568D02*
X016552Y006568D01*
X015989Y006272D02*
X014257Y006272D01*
X014422Y006371D02*
X015850Y006371D01*
X015782Y006469D02*
X014497Y006469D01*
X014538Y006568D02*
X015748Y006568D01*
X015661Y005930D02*
X015477Y005854D01*
X015336Y005713D01*
X015260Y005529D01*
X015260Y005331D01*
X015336Y005147D01*
X015477Y005006D01*
X015661Y004930D01*
X015859Y004930D01*
X016043Y005006D01*
X016184Y005147D01*
X016260Y005331D01*
X016260Y005529D01*
X016184Y005713D01*
X016043Y005854D01*
X015859Y005930D01*
X015661Y005930D01*
X015535Y005878D02*
X014765Y005878D01*
X014823Y005854D02*
X014639Y005930D01*
X014441Y005930D01*
X014257Y005854D01*
X014116Y005713D01*
X014040Y005529D01*
X014040Y005331D01*
X014116Y005147D01*
X014257Y005006D01*
X014441Y004930D01*
X014639Y004930D01*
X014823Y005006D01*
X014964Y005147D01*
X015040Y005331D01*
X015040Y005529D01*
X014964Y005713D01*
X014823Y005854D01*
X014898Y005780D02*
X015402Y005780D01*
X015323Y005681D02*
X014977Y005681D01*
X015018Y005583D02*
X015282Y005583D01*
X015260Y005484D02*
X015040Y005484D01*
X015040Y005386D02*
X015260Y005386D01*
X015278Y005287D02*
X015022Y005287D01*
X014981Y005189D02*
X015319Y005189D01*
X015393Y005090D02*
X014907Y005090D01*
X014788Y004992D02*
X015512Y004992D01*
X016008Y004992D02*
X017292Y004992D01*
X017257Y005006D02*
X017441Y004930D01*
X017639Y004930D01*
X017823Y005006D01*
X017964Y005147D01*
X018040Y005331D01*
X018040Y005529D01*
X017964Y005713D01*
X017823Y005854D01*
X017639Y005930D01*
X017441Y005930D01*
X017257Y005854D01*
X017116Y005713D01*
X017040Y005529D01*
X017040Y005331D01*
X017116Y005147D01*
X017257Y005006D01*
X017173Y005090D02*
X016127Y005090D01*
X016201Y005189D02*
X017099Y005189D01*
X017058Y005287D02*
X016242Y005287D01*
X016260Y005386D02*
X017040Y005386D01*
X017040Y005484D02*
X016260Y005484D01*
X016238Y005583D02*
X017062Y005583D01*
X017103Y005681D02*
X016197Y005681D01*
X016118Y005780D02*
X017182Y005780D01*
X017315Y005878D02*
X015985Y005878D01*
X017257Y006272D02*
X018989Y006272D01*
X018993Y006270D02*
X019054Y006250D01*
X019118Y006240D01*
X019120Y006240D01*
X019120Y006620D01*
X018740Y006620D01*
X018740Y006618D01*
X018750Y006554D01*
X018770Y006493D01*
X018799Y006435D01*
X018837Y006383D01*
X018883Y006337D01*
X018935Y006299D01*
X018993Y006270D01*
X019120Y006272D02*
X019180Y006272D01*
X019180Y006240D02*
X019182Y006240D01*
X019246Y006250D01*
X019307Y006270D01*
X019365Y006299D01*
X019417Y006337D01*
X019463Y006383D01*
X019501Y006435D01*
X019530Y006493D01*
X019550Y006554D01*
X019560Y006618D01*
X019560Y006620D01*
X019180Y006620D01*
X019180Y006680D01*
X019120Y006680D01*
X019120Y007060D01*
X019118Y007060D01*
X019054Y007050D01*
X018993Y007030D01*
X018935Y007001D01*
X018883Y006963D01*
X018837Y006917D01*
X018799Y006865D01*
X018770Y006807D01*
X018750Y006746D01*
X018740Y006682D01*
X018740Y006680D01*
X019120Y006680D01*
X019120Y006620D01*
X019180Y006620D01*
X019180Y006240D01*
X019180Y006371D02*
X019120Y006371D01*
X019120Y006469D02*
X019180Y006469D01*
X019180Y006568D02*
X019120Y006568D01*
X019120Y006666D02*
X017540Y006666D01*
X017538Y006568D02*
X018748Y006568D01*
X018782Y006469D02*
X017497Y006469D01*
X017422Y006371D02*
X018850Y006371D01*
X019180Y006666D02*
X019760Y006666D01*
X019760Y006728D02*
X019760Y006572D01*
X019819Y006429D01*
X019929Y006319D01*
X020072Y006260D01*
X020228Y006260D01*
X020371Y006319D01*
X020481Y006429D01*
X020540Y006572D01*
X020540Y006728D01*
X020481Y006871D01*
X020371Y006981D01*
X020228Y007040D01*
X020072Y007040D01*
X019929Y006981D01*
X019819Y006871D01*
X019760Y006728D01*
X019775Y006765D02*
X019544Y006765D01*
X019550Y006746D02*
X019530Y006807D01*
X019501Y006865D01*
X019463Y006917D01*
X019417Y006963D01*
X019365Y007001D01*
X019307Y007030D01*
X019246Y007050D01*
X019182Y007060D01*
X019180Y007060D01*
X019180Y006680D01*
X019560Y006680D01*
X019560Y006682D01*
X019550Y006746D01*
X019502Y006863D02*
X019816Y006863D01*
X019910Y006962D02*
X019418Y006962D01*
X019180Y006962D02*
X019120Y006962D01*
X019120Y006863D02*
X019180Y006863D01*
X019180Y006765D02*
X019120Y006765D01*
X018882Y006962D02*
X017390Y006962D01*
X017484Y006863D02*
X018798Y006863D01*
X018756Y006765D02*
X017525Y006765D01*
X017765Y005878D02*
X018535Y005878D01*
X018477Y005854D02*
X018336Y005713D01*
X018260Y005529D01*
X018260Y005331D01*
X018336Y005147D01*
X018477Y005006D01*
X018661Y004930D01*
X018859Y004930D01*
X019043Y005006D01*
X019184Y005147D01*
X019260Y005331D01*
X019260Y005529D01*
X019184Y005713D01*
X019043Y005854D01*
X018859Y005930D01*
X018661Y005930D01*
X018477Y005854D01*
X018402Y005780D02*
X017898Y005780D01*
X017977Y005681D02*
X018323Y005681D01*
X018282Y005583D02*
X018018Y005583D01*
X018040Y005484D02*
X018260Y005484D01*
X018260Y005386D02*
X018040Y005386D01*
X018022Y005287D02*
X018278Y005287D01*
X018319Y005189D02*
X017981Y005189D01*
X017907Y005090D02*
X018393Y005090D01*
X018512Y004992D02*
X017788Y004992D01*
X019008Y004992D02*
X020292Y004992D01*
X020257Y005006D02*
X020441Y004930D01*
X020639Y004930D01*
X020823Y005006D01*
X020964Y005147D01*
X021040Y005331D01*
X021040Y005529D01*
X020964Y005713D01*
X020823Y005854D01*
X020639Y005930D01*
X020441Y005930D01*
X020257Y005854D01*
X020116Y005713D01*
X020040Y005529D01*
X020040Y005331D01*
X020116Y005147D01*
X020257Y005006D01*
X020173Y005090D02*
X019127Y005090D01*
X019201Y005189D02*
X020099Y005189D01*
X020058Y005287D02*
X019242Y005287D01*
X019260Y005386D02*
X020040Y005386D01*
X020040Y005484D02*
X019260Y005484D01*
X019238Y005583D02*
X020062Y005583D01*
X020103Y005681D02*
X019197Y005681D01*
X019118Y005780D02*
X020182Y005780D01*
X020315Y005878D02*
X018985Y005878D01*
X019311Y006272D02*
X020043Y006272D01*
X019878Y006371D02*
X019450Y006371D01*
X019518Y006469D02*
X019803Y006469D01*
X019762Y006568D02*
X019552Y006568D01*
X020257Y006272D02*
X021989Y006272D01*
X021993Y006270D02*
X022054Y006250D01*
X022118Y006240D01*
X022120Y006240D01*
X022120Y006620D01*
X021740Y006620D01*
X021740Y006618D01*
X021750Y006554D01*
X021770Y006493D01*
X021799Y006435D01*
X021837Y006383D01*
X021883Y006337D01*
X021935Y006299D01*
X021993Y006270D01*
X022120Y006272D02*
X022180Y006272D01*
X022180Y006240D02*
X022182Y006240D01*
X022246Y006250D01*
X022307Y006270D01*
X022365Y006299D01*
X022417Y006337D01*
X022463Y006383D01*
X022501Y006435D01*
X022530Y006493D01*
X022550Y006554D01*
X022560Y006618D01*
X022560Y006620D01*
X022180Y006620D01*
X022180Y006680D01*
X022120Y006680D01*
X022120Y007060D01*
X022118Y007060D01*
X022054Y007050D01*
X021993Y007030D01*
X021935Y007001D01*
X021883Y006963D01*
X021837Y006917D01*
X021799Y006865D01*
X021770Y006807D01*
X021750Y006746D01*
X021740Y006682D01*
X021740Y006680D01*
X022120Y006680D01*
X022120Y006620D01*
X022180Y006620D01*
X022180Y006240D01*
X022180Y006371D02*
X022120Y006371D01*
X022120Y006469D02*
X022180Y006469D01*
X022180Y006568D02*
X022120Y006568D01*
X022120Y006666D02*
X020540Y006666D01*
X020538Y006568D02*
X021748Y006568D01*
X021782Y006469D02*
X020497Y006469D01*
X020422Y006371D02*
X021850Y006371D01*
X022180Y006666D02*
X022760Y006666D01*
X022760Y006728D02*
X022760Y006572D01*
X022819Y006429D01*
X022929Y006319D01*
X023072Y006260D01*
X023228Y006260D01*
X023371Y006319D01*
X023481Y006429D01*
X023540Y006572D01*
X023540Y006728D01*
X023481Y006871D01*
X023371Y006981D01*
X023228Y007040D01*
X023072Y007040D01*
X022929Y006981D01*
X022819Y006871D01*
X022760Y006728D01*
X022775Y006765D02*
X022544Y006765D01*
X022550Y006746D02*
X022530Y006807D01*
X022501Y006865D01*
X022463Y006917D01*
X022417Y006963D01*
X022365Y007001D01*
X022307Y007030D01*
X022246Y007050D01*
X022182Y007060D01*
X022180Y007060D01*
X022180Y006680D01*
X022560Y006680D01*
X022560Y006682D01*
X022550Y006746D01*
X022502Y006863D02*
X022816Y006863D01*
X022910Y006962D02*
X022418Y006962D01*
X022180Y006962D02*
X022120Y006962D01*
X022120Y006863D02*
X022180Y006863D01*
X022180Y006765D02*
X022120Y006765D01*
X021882Y006962D02*
X020390Y006962D01*
X020484Y006863D02*
X021798Y006863D01*
X021756Y006765D02*
X020525Y006765D01*
X020765Y005878D02*
X021535Y005878D01*
X021477Y005854D02*
X021336Y005713D01*
X021260Y005529D01*
X021260Y005331D01*
X021336Y005147D01*
X021477Y005006D01*
X021661Y004930D01*
X021859Y004930D01*
X022043Y005006D01*
X022184Y005147D01*
X022260Y005331D01*
X022260Y005529D01*
X022184Y005713D01*
X022043Y005854D01*
X021859Y005930D01*
X021661Y005930D01*
X021477Y005854D01*
X021402Y005780D02*
X020898Y005780D01*
X020977Y005681D02*
X021323Y005681D01*
X021282Y005583D02*
X021018Y005583D01*
X021040Y005484D02*
X021260Y005484D01*
X021260Y005386D02*
X021040Y005386D01*
X021022Y005287D02*
X021278Y005287D01*
X021319Y005189D02*
X020981Y005189D01*
X020907Y005090D02*
X021393Y005090D01*
X021512Y004992D02*
X020788Y004992D01*
X022008Y004992D02*
X023292Y004992D01*
X023257Y005006D02*
X023441Y004930D01*
X023639Y004930D01*
X023823Y005006D01*
X023964Y005147D01*
X024040Y005331D01*
X024040Y005529D01*
X023964Y005713D01*
X023823Y005854D01*
X023639Y005930D01*
X023441Y005930D01*
X023257Y005854D01*
X023116Y005713D01*
X023040Y005529D01*
X023040Y005331D01*
X023116Y005147D01*
X023257Y005006D01*
X023173Y005090D02*
X022127Y005090D01*
X022201Y005189D02*
X023099Y005189D01*
X023058Y005287D02*
X022242Y005287D01*
X022260Y005386D02*
X023040Y005386D01*
X023040Y005484D02*
X022260Y005484D01*
X022238Y005583D02*
X023062Y005583D01*
X023103Y005681D02*
X022197Y005681D01*
X022118Y005780D02*
X023182Y005780D01*
X023315Y005878D02*
X021985Y005878D01*
X022311Y006272D02*
X023043Y006272D01*
X022878Y006371D02*
X022450Y006371D01*
X022518Y006469D02*
X022803Y006469D01*
X022762Y006568D02*
X022552Y006568D01*
X023257Y006272D02*
X024989Y006272D01*
X024850Y006371D02*
X023422Y006371D01*
X023497Y006469D02*
X024782Y006469D01*
X024748Y006568D02*
X023538Y006568D01*
X023540Y006666D02*
X025120Y006666D01*
X025120Y006765D02*
X025180Y006765D01*
X025180Y006863D02*
X025120Y006863D01*
X025120Y006962D02*
X025180Y006962D01*
X024882Y006962D02*
X023390Y006962D01*
X023484Y006863D02*
X024798Y006863D01*
X024756Y006765D02*
X023525Y006765D01*
X023765Y005878D02*
X024535Y005878D01*
X024477Y005854D02*
X024661Y005930D01*
X024859Y005930D01*
X025043Y005854D01*
X025184Y005713D01*
X025260Y005529D01*
X025260Y005331D01*
X025184Y005147D01*
X025043Y005006D01*
X024859Y004930D01*
X024661Y004930D01*
X024477Y005006D01*
X024336Y005147D01*
X024260Y005331D01*
X024260Y005529D01*
X024336Y005713D01*
X024477Y005854D01*
X024402Y005780D02*
X023898Y005780D01*
X023977Y005681D02*
X024323Y005681D01*
X024282Y005583D02*
X024018Y005583D01*
X024040Y005484D02*
X024260Y005484D01*
X024260Y005386D02*
X024040Y005386D01*
X024022Y005287D02*
X024278Y005287D01*
X024319Y005189D02*
X023981Y005189D01*
X023907Y005090D02*
X024393Y005090D01*
X024512Y004992D02*
X023788Y004992D01*
X025008Y004992D02*
X026292Y004992D01*
X026257Y005006D02*
X026441Y004930D01*
X026639Y004930D01*
X026823Y005006D01*
X026964Y005147D01*
X027040Y005331D01*
X027040Y005529D01*
X026964Y005713D01*
X026823Y005854D01*
X026639Y005930D01*
X026441Y005930D01*
X026257Y005854D01*
X026116Y005713D01*
X026040Y005529D01*
X026040Y005331D01*
X026116Y005147D01*
X026257Y005006D01*
X026173Y005090D02*
X025127Y005090D01*
X025201Y005189D02*
X026099Y005189D01*
X026058Y005287D02*
X025242Y005287D01*
X025260Y005386D02*
X026040Y005386D01*
X026040Y005484D02*
X025260Y005484D01*
X025238Y005583D02*
X026062Y005583D01*
X026103Y005681D02*
X025197Y005681D01*
X025118Y005780D02*
X026182Y005780D01*
X026315Y005878D02*
X024985Y005878D01*
X026422Y006371D02*
X029196Y006371D01*
X029196Y006469D02*
X026497Y006469D01*
X026538Y006568D02*
X029196Y006568D01*
X029196Y006666D02*
X026540Y006666D01*
X026525Y006765D02*
X029196Y006765D01*
X029196Y006863D02*
X026484Y006863D01*
X026765Y005878D02*
X029196Y005878D01*
X029196Y005780D02*
X026898Y005780D01*
X026977Y005681D02*
X029196Y005681D01*
X029196Y005583D02*
X027018Y005583D01*
X027040Y005484D02*
X029196Y005484D01*
X029196Y005386D02*
X027040Y005386D01*
X027022Y005287D02*
X029196Y005287D01*
X029196Y005189D02*
X026981Y005189D01*
X026907Y005090D02*
X029196Y005090D01*
X029196Y004992D02*
X026788Y004992D01*
X028363Y003711D02*
X029196Y003711D01*
X029196Y003613D02*
X028643Y003613D01*
X028813Y003514D02*
X029196Y003514D01*
X029196Y003416D02*
X028912Y003416D01*
X029010Y003317D02*
X029196Y003317D01*
X029196Y003219D02*
X029069Y003219D01*
X029126Y003120D02*
X029196Y003120D01*
X029196Y003022D02*
X029168Y003022D01*
X029195Y002923D02*
X029196Y002923D01*
X027290Y003317D02*
X026767Y003317D01*
X026823Y003294D02*
X026639Y003370D01*
X026441Y003370D01*
X026257Y003294D01*
X026116Y003153D01*
X026040Y002969D01*
X026040Y002771D01*
X026116Y002587D01*
X026257Y002446D01*
X026441Y002370D01*
X026639Y002370D01*
X026823Y002446D01*
X026964Y002587D01*
X027040Y002771D01*
X027040Y002969D01*
X026964Y003153D01*
X026823Y003294D01*
X026899Y003219D02*
X027231Y003219D01*
X027174Y003120D02*
X026978Y003120D01*
X027018Y003022D02*
X027132Y003022D01*
X027105Y002923D02*
X027040Y002923D01*
X027040Y002825D02*
X027079Y002825D01*
X027070Y002726D02*
X027022Y002726D01*
X026981Y002628D02*
X027070Y002628D01*
X027070Y002529D02*
X026906Y002529D01*
X026786Y002431D02*
X027091Y002431D01*
X026294Y002431D02*
X025006Y002431D01*
X025043Y002446D02*
X025184Y002587D01*
X025260Y002771D01*
X025260Y002969D01*
X025184Y003153D01*
X025043Y003294D01*
X024859Y003370D01*
X024661Y003370D01*
X024477Y003294D01*
X024336Y003153D01*
X024260Y002969D01*
X024260Y002771D01*
X024336Y002587D01*
X024477Y002446D01*
X024661Y002370D01*
X024859Y002370D01*
X025043Y002446D01*
X025126Y002529D02*
X026174Y002529D01*
X026099Y002628D02*
X025201Y002628D01*
X025242Y002726D02*
X026058Y002726D01*
X026040Y002825D02*
X025260Y002825D01*
X025260Y002923D02*
X026040Y002923D01*
X026062Y003022D02*
X025238Y003022D01*
X025198Y003120D02*
X026102Y003120D01*
X026181Y003219D02*
X025119Y003219D01*
X024987Y003317D02*
X026313Y003317D01*
X024533Y003317D02*
X023767Y003317D01*
X023823Y003294D02*
X023639Y003370D01*
X023441Y003370D01*
X023257Y003294D01*
X023116Y003153D01*
X023040Y002969D01*
X023040Y002771D01*
X023116Y002587D01*
X023257Y002446D01*
X023441Y002370D01*
X023639Y002370D01*
X023823Y002446D01*
X023964Y002587D01*
X024040Y002771D01*
X024040Y002969D01*
X023964Y003153D01*
X023823Y003294D01*
X023899Y003219D02*
X024401Y003219D01*
X024322Y003120D02*
X023978Y003120D01*
X024018Y003022D02*
X024282Y003022D01*
X024260Y002923D02*
X024040Y002923D01*
X024040Y002825D02*
X024260Y002825D01*
X024278Y002726D02*
X024022Y002726D01*
X023981Y002628D02*
X024319Y002628D01*
X024394Y002529D02*
X023906Y002529D01*
X023786Y002431D02*
X024514Y002431D01*
X023294Y002431D02*
X022006Y002431D01*
X022043Y002446D02*
X022184Y002587D01*
X022260Y002771D01*
X022260Y002969D01*
X022184Y003153D01*
X022043Y003294D01*
X021859Y003370D01*
X021661Y003370D01*
X021477Y003294D01*
X021336Y003153D01*
X021260Y002969D01*
X021260Y002771D01*
X021336Y002587D01*
X021477Y002446D01*
X021661Y002370D01*
X021859Y002370D01*
X022043Y002446D01*
X022126Y002529D02*
X023174Y002529D01*
X023099Y002628D02*
X022201Y002628D01*
X022242Y002726D02*
X023058Y002726D01*
X023040Y002825D02*
X022260Y002825D01*
X022260Y002923D02*
X023040Y002923D01*
X023062Y003022D02*
X022238Y003022D01*
X022198Y003120D02*
X023102Y003120D01*
X023181Y003219D02*
X022119Y003219D01*
X021987Y003317D02*
X023313Y003317D01*
X021533Y003317D02*
X020767Y003317D01*
X020823Y003294D02*
X020639Y003370D01*
X020441Y003370D01*
X020257Y003294D01*
X020116Y003153D01*
X020040Y002969D01*
X020040Y002771D01*
X020116Y002587D01*
X020257Y002446D01*
X020441Y002370D01*
X020639Y002370D01*
X020823Y002446D01*
X020964Y002587D01*
X021040Y002771D01*
X021040Y002969D01*
X020964Y003153D01*
X020823Y003294D01*
X020899Y003219D02*
X021401Y003219D01*
X021322Y003120D02*
X020978Y003120D01*
X021018Y003022D02*
X021282Y003022D01*
X021260Y002923D02*
X021040Y002923D01*
X021040Y002825D02*
X021260Y002825D01*
X021278Y002726D02*
X021022Y002726D01*
X020981Y002628D02*
X021319Y002628D01*
X021394Y002529D02*
X020906Y002529D01*
X020786Y002431D02*
X021514Y002431D01*
X020294Y002431D02*
X019006Y002431D01*
X019043Y002446D02*
X018859Y002370D01*
X018661Y002370D01*
X018477Y002446D01*
X018336Y002587D01*
X018260Y002771D01*
X018260Y002969D01*
X018336Y003153D01*
X018477Y003294D01*
X018661Y003370D01*
X018859Y003370D01*
X019043Y003294D01*
X019184Y003153D01*
X019260Y002969D01*
X019260Y002771D01*
X019184Y002587D01*
X019043Y002446D01*
X019126Y002529D02*
X020174Y002529D01*
X020099Y002628D02*
X019201Y002628D01*
X019242Y002726D02*
X020058Y002726D01*
X020040Y002825D02*
X019260Y002825D01*
X019260Y002923D02*
X020040Y002923D01*
X020062Y003022D02*
X019238Y003022D01*
X019198Y003120D02*
X020102Y003120D01*
X020181Y003219D02*
X019119Y003219D01*
X018987Y003317D02*
X020313Y003317D01*
X018533Y003317D02*
X017767Y003317D01*
X017823Y003294D02*
X017639Y003370D01*
X017441Y003370D01*
X017257Y003294D01*
X017116Y003153D01*
X017040Y002969D01*
X017040Y002771D01*
X017116Y002587D01*
X017257Y002446D01*
X017441Y002370D01*
X017639Y002370D01*
X017823Y002446D01*
X017964Y002587D01*
X018040Y002771D01*
X018040Y002969D01*
X017964Y003153D01*
X017823Y003294D01*
X017899Y003219D02*
X018401Y003219D01*
X018322Y003120D02*
X017978Y003120D01*
X018018Y003022D02*
X018282Y003022D01*
X018260Y002923D02*
X018040Y002923D01*
X018040Y002825D02*
X018260Y002825D01*
X018278Y002726D02*
X018022Y002726D01*
X017981Y002628D02*
X018319Y002628D01*
X018394Y002529D02*
X017906Y002529D01*
X017786Y002431D02*
X018514Y002431D01*
X017294Y002431D02*
X016006Y002431D01*
X016043Y002446D02*
X016184Y002587D01*
X016260Y002771D01*
X016260Y002969D01*
X016184Y003153D01*
X016043Y003294D01*
X015859Y003370D01*
X015661Y003370D01*
X015477Y003294D01*
X015336Y003153D01*
X015260Y002969D01*
X015260Y002771D01*
X015336Y002587D01*
X015477Y002446D01*
X015661Y002370D01*
X015859Y002370D01*
X016043Y002446D01*
X016126Y002529D02*
X017174Y002529D01*
X017099Y002628D02*
X016201Y002628D01*
X016242Y002726D02*
X017058Y002726D01*
X017040Y002825D02*
X016260Y002825D01*
X016260Y002923D02*
X017040Y002923D01*
X017062Y003022D02*
X016238Y003022D01*
X016198Y003120D02*
X017102Y003120D01*
X017181Y003219D02*
X016119Y003219D01*
X015987Y003317D02*
X017313Y003317D01*
X015533Y003317D02*
X014767Y003317D01*
X014823Y003294D02*
X014639Y003370D01*
X014441Y003370D01*
X014257Y003294D01*
X014116Y003153D01*
X014040Y002969D01*
X014040Y002771D01*
X014116Y002587D01*
X014257Y002446D01*
X014441Y002370D01*
X014639Y002370D01*
X014823Y002446D01*
X014964Y002587D01*
X015040Y002771D01*
X015040Y002969D01*
X014964Y003153D01*
X014823Y003294D01*
X014899Y003219D02*
X015401Y003219D01*
X015322Y003120D02*
X014978Y003120D01*
X015018Y003022D02*
X015282Y003022D01*
X015260Y002923D02*
X015040Y002923D01*
X015040Y002825D02*
X015260Y002825D01*
X015278Y002726D02*
X015022Y002726D01*
X014981Y002628D02*
X015319Y002628D01*
X015394Y002529D02*
X014906Y002529D01*
X014786Y002431D02*
X015514Y002431D01*
X014294Y002431D02*
X013006Y002431D01*
X013043Y002446D02*
X013184Y002587D01*
X013260Y002771D01*
X013260Y002969D01*
X013184Y003153D01*
X013043Y003294D01*
X012859Y003370D01*
X012661Y003370D01*
X012477Y003294D01*
X012336Y003153D01*
X012260Y002969D01*
X012260Y002771D01*
X012336Y002587D01*
X012477Y002446D01*
X012661Y002370D01*
X012859Y002370D01*
X013043Y002446D01*
X013126Y002529D02*
X014174Y002529D01*
X014099Y002628D02*
X013201Y002628D01*
X013242Y002726D02*
X014058Y002726D01*
X014040Y002825D02*
X013260Y002825D01*
X013260Y002923D02*
X014040Y002923D01*
X014062Y003022D02*
X013238Y003022D01*
X013198Y003120D02*
X014102Y003120D01*
X014181Y003219D02*
X013119Y003219D01*
X012987Y003317D02*
X014313Y003317D01*
X012533Y003317D02*
X011767Y003317D01*
X011823Y003294D02*
X011639Y003370D01*
X011441Y003370D01*
X011257Y003294D01*
X011116Y003153D01*
X011040Y002969D01*
X011040Y002771D01*
X011116Y002587D01*
X011257Y002446D01*
X011441Y002370D01*
X011639Y002370D01*
X011823Y002446D01*
X011964Y002587D01*
X012040Y002771D01*
X012040Y002969D01*
X011964Y003153D01*
X011823Y003294D01*
X011899Y003219D02*
X012401Y003219D01*
X012322Y003120D02*
X011978Y003120D01*
X012018Y003022D02*
X012282Y003022D01*
X012260Y002923D02*
X012040Y002923D01*
X012040Y002825D02*
X012260Y002825D01*
X012278Y002726D02*
X012022Y002726D01*
X011981Y002628D02*
X012319Y002628D01*
X012394Y002529D02*
X011906Y002529D01*
X011786Y002431D02*
X012514Y002431D01*
X011294Y002431D02*
X010006Y002431D01*
X010043Y002446D02*
X010184Y002587D01*
X010260Y002771D01*
X010260Y002969D01*
X010184Y003153D01*
X010043Y003294D01*
X009859Y003370D01*
X009661Y003370D01*
X009477Y003294D01*
X009336Y003153D01*
X009260Y002969D01*
X009260Y002771D01*
X009336Y002587D01*
X009477Y002446D01*
X009661Y002370D01*
X009859Y002370D01*
X010043Y002446D01*
X010126Y002529D02*
X011174Y002529D01*
X011099Y002628D02*
X010201Y002628D01*
X010242Y002726D02*
X011058Y002726D01*
X011040Y002825D02*
X010260Y002825D01*
X010260Y002923D02*
X011040Y002923D01*
X011062Y003022D02*
X010238Y003022D01*
X010198Y003120D02*
X011102Y003120D01*
X011181Y003219D02*
X010119Y003219D01*
X009987Y003317D02*
X011313Y003317D01*
X009533Y003317D02*
X008767Y003317D01*
X008823Y003294D02*
X008639Y003370D01*
X008441Y003370D01*
X008257Y003294D01*
X008116Y003153D01*
X008040Y002969D01*
X008040Y002771D01*
X008116Y002587D01*
X008257Y002446D01*
X008441Y002370D01*
X008639Y002370D01*
X008823Y002446D01*
X008964Y002587D01*
X009040Y002771D01*
X009040Y002969D01*
X008964Y003153D01*
X008823Y003294D01*
X008899Y003219D02*
X009401Y003219D01*
X009322Y003120D02*
X008978Y003120D01*
X009018Y003022D02*
X009282Y003022D01*
X009260Y002923D02*
X009040Y002923D01*
X009040Y002825D02*
X009260Y002825D01*
X009278Y002726D02*
X009022Y002726D01*
X008981Y002628D02*
X009319Y002628D01*
X009394Y002529D02*
X008906Y002529D01*
X008786Y002431D02*
X009514Y002431D01*
X008294Y002431D02*
X007006Y002431D01*
X007043Y002446D02*
X007184Y002587D01*
X007260Y002771D01*
X007260Y002969D01*
X007184Y003153D01*
X007043Y003294D01*
X006859Y003370D01*
X006661Y003370D01*
X006477Y003294D01*
X006336Y003153D01*
X006260Y002969D01*
X006260Y002771D01*
X006336Y002587D01*
X006477Y002446D01*
X006661Y002370D01*
X006859Y002370D01*
X007043Y002446D01*
X007126Y002529D02*
X008174Y002529D01*
X008099Y002628D02*
X007201Y002628D01*
X007242Y002726D02*
X008058Y002726D01*
X008040Y002825D02*
X007260Y002825D01*
X007260Y002923D02*
X008040Y002923D01*
X008062Y003022D02*
X007238Y003022D01*
X007198Y003120D02*
X008102Y003120D01*
X008181Y003219D02*
X007119Y003219D01*
X006987Y003317D02*
X008313Y003317D01*
X006533Y003317D02*
X005767Y003317D01*
X005823Y003294D02*
X005639Y003370D01*
X005441Y003370D01*
X005257Y003294D01*
X005116Y003153D01*
X005040Y002969D01*
X005040Y002771D01*
X005116Y002587D01*
X005257Y002446D01*
X005441Y002370D01*
X005639Y002370D01*
X005823Y002446D01*
X005964Y002587D01*
X006040Y002771D01*
X006040Y002969D01*
X005964Y003153D01*
X005823Y003294D01*
X005899Y003219D02*
X006401Y003219D01*
X006322Y003120D02*
X005978Y003120D01*
X006018Y003022D02*
X006282Y003022D01*
X006260Y002923D02*
X006040Y002923D01*
X006040Y002825D02*
X006260Y002825D01*
X006278Y002726D02*
X006022Y002726D01*
X005981Y002628D02*
X006319Y002628D01*
X006394Y002529D02*
X005906Y002529D01*
X005786Y002431D02*
X006514Y002431D01*
X005294Y002431D02*
X004006Y002431D01*
X004126Y002529D02*
X005174Y002529D01*
X005099Y002628D02*
X004201Y002628D01*
X004242Y002726D02*
X005058Y002726D01*
X005040Y002825D02*
X004260Y002825D01*
X004260Y002923D02*
X005040Y002923D01*
X005062Y003022D02*
X004238Y003022D01*
X004198Y003120D02*
X005102Y003120D01*
X005181Y003219D02*
X004119Y003219D01*
X003987Y003317D02*
X005313Y003317D01*
X005441Y004930D02*
X005639Y004930D01*
X005823Y005006D01*
X005964Y005147D01*
X006040Y005331D01*
X006040Y005529D01*
X005964Y005713D01*
X005823Y005854D01*
X005639Y005930D01*
X005441Y005930D01*
X005257Y005854D01*
X005116Y005713D01*
X005040Y005529D01*
X005040Y005331D01*
X005116Y005147D01*
X005257Y005006D01*
X005441Y004930D01*
X005292Y004992D02*
X004008Y004992D01*
X004127Y005090D02*
X005173Y005090D01*
X005099Y005189D02*
X004201Y005189D01*
X004242Y005287D02*
X005058Y005287D01*
X005040Y005386D02*
X004260Y005386D01*
X004260Y005484D02*
X005040Y005484D01*
X005062Y005583D02*
X004238Y005583D01*
X004197Y005681D02*
X005103Y005681D01*
X005182Y005780D02*
X004118Y005780D01*
X003985Y005878D02*
X005315Y005878D01*
X005765Y005878D02*
X006535Y005878D01*
X006477Y005854D02*
X006336Y005713D01*
X006260Y005529D01*
X006260Y005331D01*
X006336Y005147D01*
X006477Y005006D01*
X006661Y004930D01*
X006859Y004930D01*
X007043Y005006D01*
X007184Y005147D01*
X007260Y005331D01*
X007260Y005529D01*
X007184Y005713D01*
X007043Y005854D01*
X006859Y005930D01*
X006661Y005930D01*
X006477Y005854D01*
X006402Y005780D02*
X005898Y005780D01*
X005977Y005681D02*
X006323Y005681D01*
X006282Y005583D02*
X006018Y005583D01*
X006040Y005484D02*
X006260Y005484D01*
X006260Y005386D02*
X006040Y005386D01*
X006022Y005287D02*
X006278Y005287D01*
X006319Y005189D02*
X005981Y005189D01*
X005907Y005090D02*
X006393Y005090D01*
X006512Y004992D02*
X005788Y004992D01*
X007008Y004992D02*
X008292Y004992D01*
X008257Y005006D02*
X008441Y004930D01*
X008639Y004930D01*
X008823Y005006D01*
X008964Y005147D01*
X009040Y005331D01*
X009040Y005529D01*
X008964Y005713D01*
X008823Y005854D01*
X008639Y005930D01*
X008441Y005930D01*
X008257Y005854D01*
X008116Y005713D01*
X008040Y005529D01*
X008040Y005331D01*
X008116Y005147D01*
X008257Y005006D01*
X008173Y005090D02*
X007127Y005090D01*
X007201Y005189D02*
X008099Y005189D01*
X008058Y005287D02*
X007242Y005287D01*
X007260Y005386D02*
X008040Y005386D01*
X008040Y005484D02*
X007260Y005484D01*
X007238Y005583D02*
X008062Y005583D01*
X008103Y005681D02*
X007197Y005681D01*
X007118Y005780D02*
X008182Y005780D01*
X008315Y005878D02*
X006985Y005878D01*
X007054Y006250D02*
X007118Y006240D01*
X007120Y006240D01*
X007120Y006620D01*
X006740Y006620D01*
X006740Y006618D01*
X006750Y006554D01*
X006770Y006493D01*
X006799Y006435D01*
X006837Y006383D01*
X006883Y006337D01*
X006935Y006299D01*
X006993Y006270D01*
X007054Y006250D01*
X006989Y006272D02*
X005257Y006272D01*
X005422Y006371D02*
X006850Y006371D01*
X006782Y006469D02*
X005497Y006469D01*
X005538Y006568D02*
X006748Y006568D01*
X006740Y006680D02*
X007120Y006680D01*
X007120Y007060D01*
X007118Y007060D01*
X007054Y007050D01*
X006993Y007030D01*
X006935Y007001D01*
X006883Y006963D01*
X006837Y006917D01*
X006799Y006865D01*
X006770Y006807D01*
X006750Y006746D01*
X006740Y006682D01*
X006740Y006680D01*
X006756Y006765D02*
X005525Y006765D01*
X005540Y006666D02*
X007120Y006666D01*
X007120Y006680D02*
X007120Y006620D01*
X007180Y006620D01*
X007180Y006680D01*
X007120Y006680D01*
X007180Y006680D02*
X007180Y007060D01*
X007182Y007060D01*
X007246Y007050D01*
X007307Y007030D01*
X007365Y007001D01*
X007417Y006963D01*
X007463Y006917D01*
X007501Y006865D01*
X007530Y006807D01*
X007550Y006746D01*
X007560Y006682D01*
X007560Y006680D01*
X007180Y006680D01*
X007180Y006666D02*
X007760Y006666D01*
X007760Y006728D02*
X007760Y006572D01*
X007819Y006429D01*
X007929Y006319D01*
X008072Y006260D01*
X008228Y006260D01*
X008371Y006319D01*
X008481Y006429D01*
X008540Y006572D01*
X008540Y006728D01*
X008481Y006871D01*
X008371Y006981D01*
X008228Y007040D01*
X008072Y007040D01*
X007929Y006981D01*
X007819Y006871D01*
X007760Y006728D01*
X007775Y006765D02*
X007544Y006765D01*
X007502Y006863D02*
X007816Y006863D01*
X007910Y006962D02*
X007418Y006962D01*
X007180Y006962D02*
X007120Y006962D01*
X007120Y006863D02*
X007180Y006863D01*
X007180Y006765D02*
X007120Y006765D01*
X007180Y006620D02*
X007560Y006620D01*
X007560Y006618D01*
X007550Y006554D01*
X007530Y006493D01*
X007501Y006435D01*
X007463Y006383D01*
X007417Y006337D01*
X007365Y006299D01*
X007307Y006270D01*
X007246Y006250D01*
X007182Y006240D01*
X007180Y006240D01*
X007180Y006620D01*
X007180Y006568D02*
X007120Y006568D01*
X007120Y006469D02*
X007180Y006469D01*
X007180Y006371D02*
X007120Y006371D01*
X007120Y006272D02*
X007180Y006272D01*
X007311Y006272D02*
X008043Y006272D01*
X007878Y006371D02*
X007450Y006371D01*
X007518Y006469D02*
X007803Y006469D01*
X007762Y006568D02*
X007552Y006568D01*
X008257Y006272D02*
X009989Y006272D01*
X009993Y006270D02*
X010054Y006250D01*
X010118Y006240D01*
X010120Y006240D01*
X010120Y006620D01*
X009740Y006620D01*
X009740Y006618D01*
X009750Y006554D01*
X009770Y006493D01*
X009799Y006435D01*
X009837Y006383D01*
X009883Y006337D01*
X009935Y006299D01*
X009993Y006270D01*
X010120Y006272D02*
X010180Y006272D01*
X010180Y006240D02*
X010182Y006240D01*
X010246Y006250D01*
X010307Y006270D01*
X010365Y006299D01*
X010417Y006337D01*
X010463Y006383D01*
X010501Y006435D01*
X010530Y006493D01*
X010550Y006554D01*
X010560Y006618D01*
X010560Y006620D01*
X010180Y006620D01*
X010180Y006680D01*
X010120Y006680D01*
X010120Y007060D01*
X010118Y007060D01*
X010054Y007050D01*
X009993Y007030D01*
X009935Y007001D01*
X009883Y006963D01*
X009837Y006917D01*
X009799Y006865D01*
X009770Y006807D01*
X009750Y006746D01*
X009740Y006682D01*
X009740Y006680D01*
X010120Y006680D01*
X010120Y006620D01*
X010180Y006620D01*
X010180Y006240D01*
X010180Y006371D02*
X010120Y006371D01*
X010120Y006469D02*
X010180Y006469D01*
X010180Y006568D02*
X010120Y006568D01*
X010120Y006666D02*
X008540Y006666D01*
X008538Y006568D02*
X009748Y006568D01*
X009782Y006469D02*
X008497Y006469D01*
X008422Y006371D02*
X009850Y006371D01*
X010180Y006666D02*
X010760Y006666D01*
X010760Y006728D02*
X010760Y006572D01*
X010819Y006429D01*
X010929Y006319D01*
X011072Y006260D01*
X011228Y006260D01*
X011371Y006319D01*
X011481Y006429D01*
X011540Y006572D01*
X011540Y006728D01*
X011481Y006871D01*
X011371Y006981D01*
X011228Y007040D01*
X011072Y007040D01*
X010929Y006981D01*
X010819Y006871D01*
X010760Y006728D01*
X010775Y006765D02*
X010544Y006765D01*
X010550Y006746D02*
X010530Y006807D01*
X010501Y006865D01*
X010463Y006917D01*
X010417Y006963D01*
X010365Y007001D01*
X010307Y007030D01*
X010246Y007050D01*
X010182Y007060D01*
X010180Y007060D01*
X010180Y006680D01*
X010560Y006680D01*
X010560Y006682D01*
X010550Y006746D01*
X010502Y006863D02*
X010816Y006863D01*
X010910Y006962D02*
X010418Y006962D01*
X010180Y006962D02*
X010120Y006962D01*
X010120Y006863D02*
X010180Y006863D01*
X010180Y006765D02*
X010120Y006765D01*
X009882Y006962D02*
X008390Y006962D01*
X008484Y006863D02*
X009798Y006863D01*
X009756Y006765D02*
X008525Y006765D01*
X008765Y005878D02*
X009535Y005878D01*
X009477Y005854D02*
X009661Y005930D01*
X009859Y005930D01*
X010043Y005854D01*
X010184Y005713D01*
X010260Y005529D01*
X010260Y005331D01*
X010184Y005147D01*
X010043Y005006D01*
X009859Y004930D01*
X009661Y004930D01*
X009477Y005006D01*
X009336Y005147D01*
X009260Y005331D01*
X009260Y005529D01*
X009336Y005713D01*
X009477Y005854D01*
X009402Y005780D02*
X008898Y005780D01*
X008977Y005681D02*
X009323Y005681D01*
X009282Y005583D02*
X009018Y005583D01*
X009040Y005484D02*
X009260Y005484D01*
X009260Y005386D02*
X009040Y005386D01*
X009022Y005287D02*
X009278Y005287D01*
X009319Y005189D02*
X008981Y005189D01*
X008907Y005090D02*
X009393Y005090D01*
X009512Y004992D02*
X008788Y004992D01*
X010008Y004992D02*
X011292Y004992D01*
X011257Y005006D02*
X011441Y004930D01*
X011639Y004930D01*
X011823Y005006D01*
X011964Y005147D01*
X012040Y005331D01*
X012040Y005529D01*
X011964Y005713D01*
X011823Y005854D01*
X011639Y005930D01*
X011441Y005930D01*
X011257Y005854D01*
X011116Y005713D01*
X011040Y005529D01*
X011040Y005331D01*
X011116Y005147D01*
X011257Y005006D01*
X011173Y005090D02*
X010127Y005090D01*
X010201Y005189D02*
X011099Y005189D01*
X011058Y005287D02*
X010242Y005287D01*
X010260Y005386D02*
X011040Y005386D01*
X011040Y005484D02*
X010260Y005484D01*
X010238Y005583D02*
X011062Y005583D01*
X011103Y005681D02*
X010197Y005681D01*
X010118Y005780D02*
X011182Y005780D01*
X011315Y005878D02*
X009985Y005878D01*
X010311Y006272D02*
X011043Y006272D01*
X010878Y006371D02*
X010450Y006371D01*
X010518Y006469D02*
X010803Y006469D01*
X010762Y006568D02*
X010552Y006568D01*
X011257Y006272D02*
X012989Y006272D01*
X012993Y006270D02*
X013054Y006250D01*
X013118Y006240D01*
X013120Y006240D01*
X013120Y006620D01*
X012740Y006620D01*
X012740Y006618D01*
X012750Y006554D01*
X012770Y006493D01*
X012799Y006435D01*
X012837Y006383D01*
X012883Y006337D01*
X012935Y006299D01*
X012993Y006270D01*
X013120Y006272D02*
X013180Y006272D01*
X013180Y006240D02*
X013182Y006240D01*
X013246Y006250D01*
X013307Y006270D01*
X013365Y006299D01*
X013417Y006337D01*
X013463Y006383D01*
X013501Y006435D01*
X013530Y006493D01*
X013550Y006554D01*
X013560Y006618D01*
X013560Y006620D01*
X013180Y006620D01*
X013180Y006680D01*
X013120Y006680D01*
X013120Y007060D01*
X013118Y007060D01*
X013054Y007050D01*
X012993Y007030D01*
X012935Y007001D01*
X012883Y006963D01*
X012837Y006917D01*
X012799Y006865D01*
X012770Y006807D01*
X012750Y006746D01*
X012740Y006682D01*
X012740Y006680D01*
X013120Y006680D01*
X013120Y006620D01*
X013180Y006620D01*
X013180Y006240D01*
X013180Y006371D02*
X013120Y006371D01*
X013120Y006469D02*
X013180Y006469D01*
X013180Y006568D02*
X013120Y006568D01*
X013120Y006666D02*
X011540Y006666D01*
X011538Y006568D02*
X012748Y006568D01*
X012782Y006469D02*
X011497Y006469D01*
X011422Y006371D02*
X012850Y006371D01*
X013180Y006666D02*
X013760Y006666D01*
X013762Y006568D02*
X013552Y006568D01*
X013518Y006469D02*
X013803Y006469D01*
X013878Y006371D02*
X013450Y006371D01*
X013311Y006272D02*
X014043Y006272D01*
X013560Y006680D02*
X013560Y006682D01*
X013550Y006746D01*
X013530Y006807D01*
X013501Y006865D01*
X013463Y006917D01*
X013417Y006963D01*
X013365Y007001D01*
X013307Y007030D01*
X013246Y007050D01*
X013182Y007060D01*
X013180Y007060D01*
X013180Y006680D01*
X013560Y006680D01*
X013544Y006765D02*
X013775Y006765D01*
X013816Y006863D02*
X013502Y006863D01*
X013418Y006962D02*
X013910Y006962D01*
X013180Y006962D02*
X013120Y006962D01*
X013120Y006863D02*
X013180Y006863D01*
X013180Y006765D02*
X013120Y006765D01*
X012882Y006962D02*
X011390Y006962D01*
X011484Y006863D02*
X012798Y006863D01*
X012756Y006765D02*
X011525Y006765D01*
X011765Y005878D02*
X012535Y005878D01*
X012477Y005854D02*
X012336Y005713D01*
X012260Y005529D01*
X012260Y005331D01*
X012336Y005147D01*
X012477Y005006D01*
X012661Y004930D01*
X012859Y004930D01*
X013043Y005006D01*
X013184Y005147D01*
X013260Y005331D01*
X013260Y005529D01*
X013184Y005713D01*
X013043Y005854D01*
X012859Y005930D01*
X012661Y005930D01*
X012477Y005854D01*
X012402Y005780D02*
X011898Y005780D01*
X011977Y005681D02*
X012323Y005681D01*
X012282Y005583D02*
X012018Y005583D01*
X012040Y005484D02*
X012260Y005484D01*
X012260Y005386D02*
X012040Y005386D01*
X012022Y005287D02*
X012278Y005287D01*
X012319Y005189D02*
X011981Y005189D01*
X011907Y005090D02*
X012393Y005090D01*
X012512Y004992D02*
X011788Y004992D01*
X013008Y004992D02*
X014292Y004992D01*
X014173Y005090D02*
X013127Y005090D01*
X013201Y005189D02*
X014099Y005189D01*
X014058Y005287D02*
X013242Y005287D01*
X013260Y005386D02*
X014040Y005386D01*
X014040Y005484D02*
X013260Y005484D01*
X013238Y005583D02*
X014062Y005583D01*
X014103Y005681D02*
X013197Y005681D01*
X013118Y005780D02*
X014182Y005780D01*
X014315Y005878D02*
X012985Y005878D01*
X006882Y006962D02*
X005390Y006962D01*
X005484Y006863D02*
X006798Y006863D01*
M02*
