%
M48
M72
T01C0.0236
T02C0.0320
T03C0.0394
T04C0.0400
T05C0.1180
T06C0.1260
%
T01
X16956Y8300
X18831Y10550
X20706Y8300
X22581Y10550
X24456Y8300
X26331Y10550
X28206Y8300
X30081Y10550
X31956Y8300
X33831Y10550
X35706Y8300
X37581Y10550
X39456Y8300
X41331Y10550
X43206Y8300
X45081Y10550
X41081Y16425
X37331Y16402
X34831Y16300
X34831Y16800
X34831Y17300
X34831Y17800
X34831Y18300
X33831Y17300
X33331Y17300
X32831Y17300
X33081Y17800
X33581Y17800
X33581Y16800
X33081Y16800
X31831Y16800
X31831Y16300
X31831Y17300
X31831Y17800
X31831Y18300
X27081Y21550
X25284Y21753
X24849Y22068
X25081Y23800
X24706Y24925
X24831Y26050
X23581Y24300
X21956Y22050
X22331Y21050
X23081Y20050
X23581Y20050
X26331Y17050
X26081Y16550
X25831Y16050
X25581Y15550
X25331Y15050
X25081Y14550
X24831Y14050
X24581Y13550
X16831Y18050
X14331Y15800
X10831Y16300
X10081Y16550
X16831Y21300
X16831Y24300
X16081Y26550
X17831Y28050
X14206Y27550
X14206Y27050
X13956Y28800
X22331Y27425
X28706Y30050
X32581Y29300
X33081Y29300
X34081Y29550
X34581Y29800
X35581Y30300
X36081Y30300
X37081Y29300
X34331Y28610
X36706Y27050
X36706Y25300
X39081Y26300
X40581Y27800
X41206Y25550
X40331Y24300
X44331Y22050
X32831Y24800
X32831Y25800
X32831Y26300
X29581Y26050
X30331Y22800
T02
X20581Y24100
X20581Y26000
X19831Y22050
X19831Y21050
T03
X42331Y21050
X42331Y22050
X43331Y22550
X42331Y23050
X43331Y21550
X43331Y20550
X42331Y20050
X43331Y19550
X43331Y26550
X43331Y27550
X42331Y27050
X42331Y28050
X43331Y28550
X43331Y29550
X42331Y29050
X42331Y30050
T04
X42581Y32300
X43581Y32300
X43581Y33300
X42581Y33300
X37081Y32550
X36081Y32550
X35081Y32550
X34081Y32550
X33081Y32550
X33081Y31550
X34081Y31550
X35081Y31550
X36081Y31550
X37081Y31550
X28831Y31550
X27831Y31550
X26831Y31550
X25831Y31550
X24831Y31550
X24831Y32550
X25831Y32550
X26831Y32550
X27831Y32550
X28831Y32550
X20581Y32550
X19581Y32550
X18581Y32550
X17581Y32550
X16581Y32550
X16581Y31550
X17581Y31550
X18581Y31550
X19581Y31550
X20581Y31550
X13611Y31410
X13611Y33190
X11051Y33190
X11051Y31410
X9081Y29550
X9081Y28550
X9081Y27550
X9081Y26550
X9081Y25550
X9081Y24550
X11831Y26050
X12831Y26050
X12831Y27050
X12831Y28050
X11831Y28050
X11831Y27050
X12111Y22440
X12111Y20660
X12111Y19190
X12111Y17410
X9551Y17410
X9551Y19190
X9551Y20660
X9551Y22440
X16581Y16050
X17581Y16050
X18581Y16050
X19581Y16050
X20581Y16050
X20581Y15050
X19581Y15050
X18581Y15050
X17581Y15050
X16581Y15050
X13581Y14300
X12581Y14300
X13581Y5550
X14581Y5550
X15581Y5550
X16581Y5550
X17581Y5550
X18581Y5550
X19581Y5550
X20581Y5550
X21581Y5550
X22581Y5550
X26081Y5550
X27081Y5550
X28081Y5550
X31831Y5550
X32831Y5550
X33831Y5550
X34831Y5550
X35831Y5550
X36831Y5550
X37831Y5550
X38831Y5550
X39831Y5550
X40831Y5550
X35831Y23300
X34831Y23300
X33831Y23300
T05
X44118Y16900
X42937Y15050
X45299Y15050
T06
X9081Y5050
X9081Y33050
X45831Y30550
X46331Y33050
X45831Y26050
X45831Y23550
X45831Y19050
X46331Y5050
M30
