G75*
G70*
%OFA0B0*%
%FSLAX24Y24*%
%IPPOS*%
%LPD*%
%AMOC8*
5,1,8,0,0,1.08239X$1,22.5*
%
%ADD10R,0.3550X0.3500*%
%ADD11R,0.3550X0.0600*%
%ADD12C,0.1300*%
%ADD13R,0.0510X0.0260*%
%ADD14R,0.0260X0.0510*%
%ADD15R,0.0840X0.0300*%
%ADD16C,0.0560*%
%ADD17R,0.0670X0.0749*%
%ADD18R,0.1142X0.0434*%
%ADD19R,0.0670X0.0750*%
%ADD20C,0.0780*%
%ADD21R,0.0750X0.0670*%
%ADD22C,0.1740*%
%ADD23R,0.0434X0.0591*%
%ADD24R,0.0619X0.0540*%
%ADD25R,0.0591X0.0591*%
%ADD26R,0.0631X0.0631*%
%ADD27R,0.0540X0.0619*%
%ADD28R,0.0749X0.0434*%
%ADD29R,0.2481X0.2323*%
%ADD30R,0.1221X0.0670*%
%ADD31R,0.0394X0.0355*%
%ADD32R,0.0749X0.0670*%
%ADD33R,0.0512X0.0670*%
%ADD34C,0.0640*%
D10*
X033181Y017300D03*
D11*
X033181Y019650D03*
X033181Y014950D03*
D12*
X009081Y005050D03*
X009081Y033050D03*
X045831Y030550D03*
X046331Y033050D03*
X045831Y026050D03*
X045831Y023550D03*
X045831Y019050D03*
X046331Y005050D03*
D13*
X028886Y021438D03*
X028886Y021753D03*
X028886Y022068D03*
X028886Y022383D03*
X028886Y022698D03*
X028886Y023013D03*
X028886Y023328D03*
X028886Y023643D03*
X028886Y023957D03*
X028886Y024272D03*
X028886Y024587D03*
X028886Y024902D03*
X028886Y025217D03*
X028886Y025532D03*
X028886Y025847D03*
X028886Y026162D03*
X022776Y026162D03*
X022776Y025847D03*
X022776Y025532D03*
X022776Y025217D03*
X022776Y024902D03*
X022776Y024587D03*
X022776Y024272D03*
X022776Y023957D03*
X022776Y023643D03*
X022776Y023328D03*
X022776Y023013D03*
X022776Y022698D03*
X022776Y022383D03*
X022776Y022068D03*
X022776Y021753D03*
X022776Y021438D03*
D14*
X023469Y020745D03*
X023784Y020745D03*
X024099Y020745D03*
X024414Y020745D03*
X024729Y020745D03*
X025044Y020745D03*
X025359Y020745D03*
X025673Y020745D03*
X025988Y020745D03*
X026303Y020745D03*
X026618Y020745D03*
X026933Y020745D03*
X027248Y020745D03*
X027563Y020745D03*
X027878Y020745D03*
X028193Y020745D03*
X028193Y026855D03*
X027878Y026855D03*
X027563Y026855D03*
X027248Y026855D03*
X026933Y026855D03*
X026618Y026855D03*
X026303Y026855D03*
X025988Y026855D03*
X025673Y026855D03*
X025359Y026855D03*
X025044Y026855D03*
X024729Y026855D03*
X024414Y026855D03*
X024099Y026855D03*
X023784Y026855D03*
X023469Y026855D03*
D15*
X033496Y026300D03*
X033496Y025800D03*
X033496Y025300D03*
X033496Y024800D03*
X035916Y024800D03*
X035916Y025300D03*
X035916Y025800D03*
X035916Y026300D03*
D16*
X020581Y026000D03*
X020581Y024100D03*
X019831Y022050D03*
X019831Y021050D03*
D17*
X018632Y021300D03*
X017530Y021300D03*
X017530Y022800D03*
X018632Y022800D03*
X018632Y024300D03*
X017530Y024300D03*
X016132Y024300D03*
X015030Y024300D03*
X015030Y025800D03*
X016132Y025800D03*
X017530Y025800D03*
X018632Y025800D03*
X019530Y028050D03*
X020632Y028050D03*
X028780Y029300D03*
X029882Y029300D03*
X031030Y022800D03*
X032132Y022800D03*
X039030Y027050D03*
X040132Y027050D03*
D18*
X040756Y017550D03*
X038906Y017550D03*
X038906Y014800D03*
X040756Y014800D03*
D19*
X016141Y027300D03*
X015021Y027300D03*
X014641Y022800D03*
X013521Y022800D03*
X013521Y021300D03*
X014641Y021300D03*
X014641Y019550D03*
X013521Y019550D03*
X013521Y018050D03*
X014641Y018050D03*
X013641Y015800D03*
X012521Y015800D03*
D20*
X012111Y017410D03*
X012111Y019190D03*
X012111Y020660D03*
X012111Y022440D03*
X009551Y022440D03*
X009551Y020660D03*
X009551Y019190D03*
X009551Y017410D03*
X016581Y016050D03*
X017581Y016050D03*
X018581Y016050D03*
X019581Y016050D03*
X020581Y016050D03*
X020581Y015050D03*
X019581Y015050D03*
X018581Y015050D03*
X017581Y015050D03*
X016581Y015050D03*
X016581Y031550D03*
X017581Y031550D03*
X018581Y031550D03*
X019581Y031550D03*
X020581Y031550D03*
X020581Y032550D03*
X019581Y032550D03*
X018581Y032550D03*
X017581Y032550D03*
X016581Y032550D03*
X013611Y033190D03*
X013611Y031410D03*
X011051Y031410D03*
X011051Y033190D03*
X024831Y032550D03*
X025831Y032550D03*
X026831Y032550D03*
X027831Y032550D03*
X028831Y032550D03*
X028831Y031550D03*
X027831Y031550D03*
X026831Y031550D03*
X025831Y031550D03*
X024831Y031550D03*
X033081Y031550D03*
X034081Y031550D03*
X035081Y031550D03*
X036081Y031550D03*
X037081Y031550D03*
X037081Y032550D03*
X036081Y032550D03*
X035081Y032550D03*
X034081Y032550D03*
X033081Y032550D03*
X042331Y030050D03*
X042331Y029050D03*
X043331Y028550D03*
X043331Y029550D03*
X042331Y028050D03*
X042331Y027050D03*
X043331Y026550D03*
X043331Y027550D03*
X042331Y023050D03*
X043331Y022550D03*
X042331Y022050D03*
X042331Y021050D03*
X043331Y020550D03*
X043331Y021550D03*
X042331Y020050D03*
X043331Y019550D03*
D21*
X044331Y011860D03*
X044331Y010740D03*
X042581Y009360D03*
X042581Y008240D03*
X040581Y010740D03*
X040581Y011860D03*
X038831Y009360D03*
X038831Y008240D03*
X036831Y010740D03*
X036831Y011860D03*
X035081Y009360D03*
X035081Y008240D03*
X033081Y010740D03*
X033081Y011860D03*
X031331Y009360D03*
X031331Y008240D03*
X029331Y010740D03*
X029331Y011860D03*
X027581Y009360D03*
X027581Y008240D03*
X025581Y010740D03*
X025581Y011860D03*
X023831Y009360D03*
X023831Y008240D03*
X021831Y010740D03*
X021831Y011860D03*
X020081Y009360D03*
X020081Y008240D03*
X018081Y010740D03*
X018081Y011860D03*
X016331Y009360D03*
X016331Y008240D03*
X009331Y014240D03*
X009331Y015360D03*
X035081Y027490D03*
X035081Y028610D03*
X039081Y028490D03*
X039081Y029610D03*
X040581Y029610D03*
X040581Y028490D03*
D22*
X044118Y016900D03*
X042937Y015050D03*
X045299Y015050D03*
D23*
X037455Y027867D03*
X036707Y027867D03*
X037081Y028733D03*
D24*
X040331Y021396D03*
X040331Y019704D03*
D25*
X016329Y029050D03*
X014833Y029050D03*
D26*
X016081Y022739D03*
X016081Y021361D03*
X016081Y019489D03*
X016081Y018111D03*
X010831Y015489D03*
X010831Y014111D03*
X016581Y011989D03*
X016581Y010611D03*
X020331Y010611D03*
X020331Y011989D03*
X024081Y011989D03*
X024081Y010611D03*
X027831Y010611D03*
X027831Y011989D03*
X031581Y011989D03*
X031581Y010611D03*
X035331Y010611D03*
X035331Y011989D03*
X039081Y011989D03*
X039081Y010611D03*
X042831Y010611D03*
X042831Y011989D03*
D27*
X038927Y022300D03*
X037235Y022300D03*
X037235Y024050D03*
X038927Y024050D03*
D28*
X040331Y023601D03*
X040331Y022499D03*
X010831Y023749D03*
X010831Y024851D03*
D29*
X033644Y017300D03*
D30*
X036471Y016402D03*
X036471Y018198D03*
D31*
X036187Y009174D03*
X037014Y008800D03*
X036187Y008426D03*
X033264Y008800D03*
X032437Y008426D03*
X032437Y009174D03*
X029514Y008800D03*
X028687Y008426D03*
X028687Y009174D03*
X025764Y008800D03*
X024937Y008426D03*
X024937Y009174D03*
X022014Y008800D03*
X021187Y008426D03*
X021187Y009174D03*
X018264Y008800D03*
X017437Y008426D03*
X017437Y009174D03*
X039937Y009174D03*
X039937Y008426D03*
X040764Y008800D03*
X043687Y008426D03*
X043687Y009174D03*
X044514Y008800D03*
D32*
X037331Y013999D03*
X037331Y015101D03*
X033581Y027499D03*
X033581Y028601D03*
D33*
X029922Y028050D03*
X028740Y028050D03*
D34*
X033831Y023300D03*
X034831Y023300D03*
X035831Y023300D03*
X042581Y032300D03*
X043581Y032300D03*
X043581Y033300D03*
X042581Y033300D03*
X013581Y014300D03*
X012581Y014300D03*
X013581Y005550D03*
X014581Y005550D03*
X015581Y005550D03*
X016581Y005550D03*
X017581Y005550D03*
X018581Y005550D03*
X019581Y005550D03*
X020581Y005550D03*
X021581Y005550D03*
X022581Y005550D03*
X026081Y005550D03*
X027081Y005550D03*
X028081Y005550D03*
X031831Y005550D03*
X032831Y005550D03*
X033831Y005550D03*
X034831Y005550D03*
X035831Y005550D03*
X036831Y005550D03*
X037831Y005550D03*
X038831Y005550D03*
X039831Y005550D03*
X040831Y005550D03*
X012831Y026050D03*
X011831Y026050D03*
X011831Y027050D03*
X012831Y027050D03*
X012831Y028050D03*
X011831Y028050D03*
X009081Y027550D03*
X009081Y026550D03*
X009081Y025550D03*
X009081Y024550D03*
X009081Y028550D03*
X009081Y029550D03*
M02*
