G75*
G70*
%OFA0B0*%
%FSLAX24Y24*%
%IPPOS*%
%LPD*%
%AMOC8*
5,1,8,0,0,1.08239X$1,22.5*
%
%ADD10C,0.1300*%
%ADD11C,0.0560*%
%ADD12C,0.0780*%
%ADD13C,0.1740*%
%ADD14R,0.0290X0.0540*%
%ADD15C,0.0640*%
D10*
X009081Y005050D03*
X009081Y033050D03*
X045831Y030550D03*
X046331Y033050D03*
X045831Y026050D03*
X045831Y023550D03*
X045831Y019050D03*
X046331Y005050D03*
D11*
X020581Y024100D03*
X020581Y026000D03*
X019831Y022050D03*
X019831Y021050D03*
D12*
X019581Y016050D03*
X020581Y016050D03*
X020581Y015050D03*
X019581Y015050D03*
X018581Y015050D03*
X017581Y015050D03*
X017581Y016050D03*
X018581Y016050D03*
X016581Y016050D03*
X016581Y015050D03*
X012111Y017410D03*
X012111Y019190D03*
X012111Y020660D03*
X012111Y022440D03*
X009551Y022440D03*
X009551Y020660D03*
X009551Y019190D03*
X009551Y017410D03*
X011051Y031410D03*
X011051Y033190D03*
X013611Y033190D03*
X013611Y031410D03*
X016581Y031550D03*
X017581Y031550D03*
X018581Y031550D03*
X019581Y031550D03*
X020581Y031550D03*
X020581Y032550D03*
X019581Y032550D03*
X018581Y032550D03*
X017581Y032550D03*
X016581Y032550D03*
X024831Y032550D03*
X025831Y032550D03*
X026831Y032550D03*
X027831Y032550D03*
X028831Y032550D03*
X028831Y031550D03*
X027831Y031550D03*
X026831Y031550D03*
X025831Y031550D03*
X024831Y031550D03*
X033081Y031550D03*
X034081Y031550D03*
X035081Y031550D03*
X036081Y031550D03*
X037081Y031550D03*
X037081Y032550D03*
X036081Y032550D03*
X035081Y032550D03*
X034081Y032550D03*
X033081Y032550D03*
X042331Y030050D03*
X042331Y029050D03*
X043331Y028550D03*
X043331Y029550D03*
X042331Y028050D03*
X042331Y027050D03*
X043331Y026550D03*
X043331Y027550D03*
X042331Y023050D03*
X043331Y022550D03*
X042331Y022050D03*
X042331Y021050D03*
X043331Y020550D03*
X043331Y021550D03*
X042331Y020050D03*
X043331Y019550D03*
D13*
X044118Y016900D03*
X042937Y015050D03*
X045299Y015050D03*
D14*
X010656Y025550D03*
X010256Y025550D03*
D15*
X009081Y025550D03*
X009081Y024550D03*
X009081Y026550D03*
X009081Y027550D03*
X009081Y028550D03*
X009081Y029550D03*
X011831Y028050D03*
X012831Y028050D03*
X012831Y027050D03*
X011831Y027050D03*
X011831Y026050D03*
X012831Y026050D03*
X012581Y014300D03*
X013581Y014300D03*
X013581Y005550D03*
X014581Y005550D03*
X015581Y005550D03*
X016581Y005550D03*
X017581Y005550D03*
X018581Y005550D03*
X019581Y005550D03*
X020581Y005550D03*
X021581Y005550D03*
X022581Y005550D03*
X026081Y005550D03*
X027081Y005550D03*
X028081Y005550D03*
X031831Y005550D03*
X032831Y005550D03*
X033831Y005550D03*
X034831Y005550D03*
X035831Y005550D03*
X036831Y005550D03*
X037831Y005550D03*
X038831Y005550D03*
X039831Y005550D03*
X040831Y005550D03*
X035831Y023300D03*
X034831Y023300D03*
X033831Y023300D03*
X042581Y032300D03*
X043581Y032300D03*
X043581Y033300D03*
X042581Y033300D03*
M02*
