G75*
G70*
%OFA0B0*%
%FSLAX24Y24*%
%IPPOS*%
%LPD*%
%AMOC8*
5,1,8,0,0,1.08239X$1,22.5*
%
%ADD10C,0.0520*%
%ADD11C,0.0740*%
%ADD12C,0.1700*%
%ADD13C,0.0080*%
%ADD14R,0.0250X0.0500*%
%ADD15C,0.0600*%
%ADD16C,0.0240*%
%ADD17C,0.0400*%
%ADD18C,0.0356*%
%ADD19C,0.0120*%
%ADD20C,0.0100*%
%ADD21C,0.0160*%
D10*
X019831Y021050D03*
X019831Y022050D03*
X020581Y024100D03*
X020581Y026000D03*
D11*
X020581Y031550D03*
X019581Y031550D03*
X018581Y031550D03*
X017581Y031550D03*
X016581Y031550D03*
X016581Y032550D03*
X017581Y032550D03*
X018581Y032550D03*
X019581Y032550D03*
X020581Y032550D03*
X024831Y032550D03*
X025831Y032550D03*
X026831Y032550D03*
X027831Y032550D03*
X028831Y032550D03*
X028831Y031550D03*
X027831Y031550D03*
X026831Y031550D03*
X025831Y031550D03*
X024831Y031550D03*
X033081Y031550D03*
X034081Y031550D03*
X035081Y031550D03*
X036081Y031550D03*
X037081Y031550D03*
X037081Y032550D03*
X036081Y032550D03*
X035081Y032550D03*
X034081Y032550D03*
X033081Y032550D03*
X042331Y030050D03*
X042331Y029050D03*
X043331Y028550D03*
X043331Y029550D03*
X042331Y028050D03*
X042331Y027050D03*
X043331Y026550D03*
X043331Y027550D03*
X042331Y023050D03*
X043331Y022550D03*
X042331Y022050D03*
X042331Y021050D03*
X043331Y020550D03*
X043331Y021550D03*
X042331Y020050D03*
X043331Y019550D03*
X020581Y016050D03*
X020581Y015050D03*
X019581Y015050D03*
X019581Y016050D03*
X018581Y016050D03*
X017581Y016050D03*
X017581Y015050D03*
X018581Y015050D03*
X016581Y015050D03*
X016581Y016050D03*
X012111Y017410D03*
X012111Y019190D03*
X012111Y020660D03*
X012111Y022440D03*
X009551Y022440D03*
X009551Y020660D03*
X009551Y019190D03*
X009551Y017410D03*
X011051Y031410D03*
X011051Y033190D03*
X013611Y033190D03*
X013611Y031410D03*
D12*
X042937Y015050D03*
X044118Y016900D03*
X045299Y015050D03*
D13*
X010606Y025550D02*
X010306Y025550D01*
D14*
X010256Y025550D03*
X010656Y025550D03*
D15*
X011831Y026050D03*
X012831Y026050D03*
X012831Y027050D03*
X012831Y028050D03*
X011831Y028050D03*
X011831Y027050D03*
X009081Y026550D03*
X009081Y027550D03*
X009081Y028550D03*
X009081Y029550D03*
X009081Y025550D03*
X009081Y024550D03*
X012581Y014300D03*
X013581Y014300D03*
X013581Y005550D03*
X014581Y005550D03*
X015581Y005550D03*
X016581Y005550D03*
X017581Y005550D03*
X018581Y005550D03*
X019581Y005550D03*
X020581Y005550D03*
X021581Y005550D03*
X022581Y005550D03*
X026081Y005550D03*
X027081Y005550D03*
X028081Y005550D03*
X031831Y005550D03*
X032831Y005550D03*
X033831Y005550D03*
X034831Y005550D03*
X035831Y005550D03*
X036831Y005550D03*
X037831Y005550D03*
X038831Y005550D03*
X039831Y005550D03*
X040831Y005550D03*
X035831Y023300D03*
X034831Y023300D03*
X033831Y023300D03*
X042581Y032300D03*
X043581Y032300D03*
X043581Y033300D03*
X042581Y033300D03*
D16*
X012111Y022440D02*
X009551Y022440D01*
X009551Y020660D02*
X012111Y020660D01*
X012111Y019190D02*
X009551Y019190D01*
X009551Y017410D02*
X012111Y017410D01*
D17*
X010081Y016550D02*
X010081Y006300D01*
X011706Y004675D01*
X025206Y004675D01*
X026081Y005550D01*
X028081Y005550D02*
X029581Y005550D01*
X031331Y007300D01*
X031331Y014050D01*
X027831Y014013D02*
X038581Y014013D01*
X038581Y014411D02*
X027831Y014411D01*
X027831Y014810D02*
X038581Y014810D01*
X038581Y015208D02*
X027831Y015208D01*
X027831Y015607D02*
X038581Y015607D01*
X038581Y015922D02*
X038581Y012550D01*
X027831Y012550D01*
X027831Y021800D01*
X038581Y021800D01*
X038581Y016882D01*
X037235Y016882D01*
X037059Y016809D01*
X036924Y016674D01*
X036851Y016498D01*
X036851Y016307D01*
X036924Y016130D01*
X037059Y015995D01*
X037235Y015922D01*
X038581Y015922D01*
X037331Y016402D02*
X041081Y016402D01*
X041081Y016425D01*
X038581Y017201D02*
X027831Y017201D01*
X027831Y017599D02*
X038581Y017599D01*
X038581Y017998D02*
X027831Y017998D01*
X027831Y018396D02*
X038581Y018396D01*
X038581Y018795D02*
X027831Y018795D01*
X027831Y019193D02*
X038581Y019193D01*
X038581Y019592D02*
X027831Y019592D01*
X027831Y019990D02*
X038581Y019990D01*
X038581Y020389D02*
X027831Y020389D01*
X027831Y020787D02*
X038581Y020787D01*
X038581Y021186D02*
X027831Y021186D01*
X027831Y021584D02*
X038581Y021584D01*
X040331Y024300D02*
X041081Y024300D01*
X042331Y023050D01*
X044331Y025050D01*
X044331Y030050D01*
X043831Y030550D01*
X042831Y030550D01*
X042331Y030050D01*
X037052Y016802D02*
X027831Y016802D01*
X027831Y016404D02*
X036851Y016404D01*
X037050Y016005D02*
X027831Y016005D01*
X027831Y013614D02*
X038581Y013614D01*
X038581Y013216D02*
X027831Y013216D01*
X027831Y012817D02*
X038581Y012817D01*
D18*
X037581Y010550D03*
X039456Y008300D03*
X041331Y010550D03*
X043206Y008300D03*
X045081Y010550D03*
X041081Y016425D03*
X037331Y016402D03*
X034831Y016300D03*
X034831Y016800D03*
X034831Y017300D03*
X034831Y017800D03*
X034831Y018300D03*
X033831Y017300D03*
X033331Y017300D03*
X032831Y017300D03*
X033081Y017800D03*
X033581Y017800D03*
X033581Y016800D03*
X033081Y016800D03*
X031831Y016800D03*
X031831Y016300D03*
X031831Y017300D03*
X031831Y017800D03*
X031831Y018300D03*
X027081Y021550D03*
X025284Y021753D03*
X024849Y022068D03*
X025081Y023800D03*
X024706Y024925D03*
X024831Y026050D03*
X023581Y024300D03*
X021956Y022050D03*
X022331Y021050D03*
X023081Y020050D03*
X023581Y020050D03*
X026331Y017050D03*
X026081Y016550D03*
X025831Y016050D03*
X025581Y015550D03*
X025331Y015050D03*
X025081Y014550D03*
X024831Y014050D03*
X024581Y013550D03*
X026331Y010550D03*
X028206Y008300D03*
X030081Y010550D03*
X031956Y008300D03*
X033831Y010550D03*
X035706Y008300D03*
X024456Y008300D03*
X022581Y010550D03*
X020706Y008300D03*
X018831Y010550D03*
X016956Y008300D03*
X014331Y015800D03*
X016831Y018050D03*
X016831Y021300D03*
X016831Y024300D03*
X016081Y026550D03*
X017831Y028050D03*
X014206Y027550D03*
X014206Y027050D03*
X013956Y028800D03*
X022331Y027425D03*
X028706Y030050D03*
X032581Y029300D03*
X033081Y029300D03*
X034081Y029550D03*
X034581Y029800D03*
X035581Y030300D03*
X036081Y030300D03*
X037081Y029300D03*
X034331Y028610D03*
X036706Y027050D03*
X036706Y025300D03*
X039081Y026300D03*
X040581Y027800D03*
X041206Y025550D03*
X040331Y024300D03*
X044331Y022050D03*
X032831Y024800D03*
X032831Y025800D03*
X032831Y026300D03*
X029581Y026050D03*
X030331Y022800D03*
X010831Y016300D03*
X010081Y016550D03*
D19*
X008291Y006300D02*
X008291Y031800D01*
X009581Y031800D01*
X010331Y032550D01*
X010331Y033840D01*
X045081Y033840D01*
X045081Y032550D01*
X045831Y031800D01*
X047121Y031800D01*
X047121Y006300D01*
X045831Y006300D01*
X045081Y005550D01*
X045081Y004260D01*
X010331Y004260D01*
X010331Y005550D01*
X009581Y006300D01*
X008291Y006300D01*
X008291Y006302D02*
X009741Y006302D01*
X009741Y006232D02*
X009793Y006107D01*
X011418Y004482D01*
X011513Y004387D01*
X011638Y004335D01*
X025274Y004335D01*
X025399Y004387D01*
X026122Y005110D01*
X026168Y005110D01*
X026330Y005177D01*
X026454Y005301D01*
X026521Y005462D01*
X026521Y005638D01*
X026454Y005799D01*
X026330Y005923D01*
X026168Y005990D01*
X025993Y005990D01*
X025832Y005923D01*
X025708Y005799D01*
X025641Y005638D01*
X025641Y005591D01*
X025065Y005015D01*
X011847Y005015D01*
X010421Y006441D01*
X010421Y016618D01*
X010369Y016743D01*
X010274Y016838D01*
X010149Y016890D01*
X010013Y016890D01*
X009888Y016838D01*
X009793Y016743D01*
X009741Y016618D01*
X009741Y006232D01*
X009761Y006183D02*
X009698Y006183D01*
X009816Y006065D02*
X009836Y006065D01*
X009935Y005946D02*
X009954Y005946D01*
X010053Y005828D02*
X010073Y005828D01*
X010172Y005709D02*
X010191Y005709D01*
X010290Y005591D02*
X010310Y005591D01*
X010331Y005472D02*
X010428Y005472D01*
X010331Y005354D02*
X010547Y005354D01*
X010665Y005235D02*
X010331Y005235D01*
X010331Y005117D02*
X010784Y005117D01*
X010902Y004998D02*
X010331Y004998D01*
X010331Y004880D02*
X011021Y004880D01*
X011139Y004761D02*
X010331Y004761D01*
X010331Y004643D02*
X011258Y004643D01*
X011376Y004524D02*
X010331Y004524D01*
X010331Y004406D02*
X011495Y004406D01*
X011745Y005117D02*
X013478Y005117D01*
X013493Y005110D02*
X013668Y005110D01*
X013830Y005177D01*
X013954Y005301D01*
X014021Y005462D01*
X014021Y005638D01*
X013954Y005799D01*
X013830Y005923D01*
X013668Y005990D01*
X013493Y005990D01*
X013332Y005923D01*
X013208Y005799D01*
X013141Y005638D01*
X013141Y005462D01*
X013208Y005301D01*
X013332Y005177D01*
X013493Y005110D01*
X013684Y005117D02*
X014478Y005117D01*
X014493Y005110D02*
X014668Y005110D01*
X014830Y005177D01*
X014954Y005301D01*
X015021Y005462D01*
X015021Y005638D01*
X014996Y005697D01*
X017035Y007735D01*
X017160Y007735D01*
X017410Y007985D01*
X017521Y008096D01*
X017521Y008471D01*
X018391Y009341D01*
X018391Y008629D01*
X015728Y005965D01*
X015668Y005990D01*
X015493Y005990D01*
X015332Y005923D01*
X015208Y005799D01*
X015141Y005638D01*
X015141Y005462D01*
X015208Y005301D01*
X015332Y005177D01*
X015493Y005110D01*
X015668Y005110D01*
X015830Y005177D01*
X015954Y005301D01*
X016021Y005462D01*
X016021Y005638D01*
X015996Y005697D01*
X018641Y008341D01*
X018641Y007879D01*
X016728Y005965D01*
X016668Y005990D01*
X016493Y005990D01*
X016332Y005923D01*
X016208Y005799D01*
X016141Y005638D01*
X016141Y005462D01*
X016208Y005301D01*
X016332Y005177D01*
X016493Y005110D01*
X016668Y005110D01*
X016830Y005177D01*
X016954Y005301D01*
X017021Y005462D01*
X017021Y005638D01*
X016996Y005697D01*
X018891Y007591D01*
X018891Y007129D01*
X017728Y005965D01*
X017668Y005990D01*
X017493Y005990D01*
X017332Y005923D01*
X017208Y005799D01*
X017141Y005638D01*
X017141Y005462D01*
X017208Y005301D01*
X017332Y005177D01*
X017493Y005110D01*
X017668Y005110D01*
X017830Y005177D01*
X017954Y005301D01*
X018021Y005462D01*
X018021Y005638D01*
X017996Y005697D01*
X019141Y006841D01*
X019141Y006379D01*
X018728Y005965D01*
X018668Y005990D01*
X018493Y005990D01*
X018332Y005923D01*
X018208Y005799D01*
X018141Y005638D01*
X018141Y005462D01*
X018208Y005301D01*
X018332Y005177D01*
X018493Y005110D01*
X018668Y005110D01*
X018830Y005177D01*
X018954Y005301D01*
X019021Y005462D01*
X019021Y005638D01*
X018996Y005697D01*
X019391Y006091D01*
X019391Y005948D01*
X019332Y005923D01*
X019208Y005799D01*
X019141Y005638D01*
X019141Y005462D01*
X019208Y005301D01*
X019332Y005177D01*
X019493Y005110D01*
X019668Y005110D01*
X019830Y005177D01*
X019954Y005301D01*
X020021Y005462D01*
X020021Y005638D01*
X019954Y005799D01*
X019830Y005923D01*
X019771Y005948D01*
X019771Y006091D01*
X020166Y005697D01*
X020141Y005638D01*
X020141Y005462D01*
X020208Y005301D01*
X020332Y005177D01*
X020493Y005110D01*
X020668Y005110D01*
X020830Y005177D01*
X020954Y005301D01*
X021021Y005462D01*
X021021Y005638D01*
X020954Y005799D01*
X020830Y005923D01*
X020668Y005990D01*
X020493Y005990D01*
X020434Y005965D01*
X020021Y006379D01*
X020021Y006841D01*
X021166Y005697D01*
X021141Y005638D01*
X021141Y005462D01*
X021208Y005301D01*
X021332Y005177D01*
X021493Y005110D01*
X021668Y005110D01*
X021830Y005177D01*
X021954Y005301D01*
X022021Y005462D01*
X022021Y005638D01*
X021954Y005799D01*
X021830Y005923D01*
X021668Y005990D01*
X021493Y005990D01*
X021434Y005965D01*
X020271Y007129D01*
X020271Y008596D01*
X024660Y012985D01*
X024771Y013096D01*
X024771Y013290D01*
X024851Y013370D01*
X024899Y013487D01*
X024899Y013613D01*
X024851Y013730D01*
X024849Y013732D01*
X024894Y013732D01*
X025011Y013780D01*
X025101Y013870D01*
X025149Y013987D01*
X025149Y014113D01*
X025101Y014230D01*
X025099Y014232D01*
X025144Y014232D01*
X025261Y014280D01*
X025351Y014370D01*
X025399Y014487D01*
X025399Y014613D01*
X025351Y014730D01*
X025349Y014732D01*
X025394Y014732D01*
X025511Y014780D01*
X025601Y014870D01*
X025649Y014987D01*
X025649Y015113D01*
X025601Y015230D01*
X025599Y015232D01*
X025644Y015232D01*
X025761Y015280D01*
X025851Y015370D01*
X025899Y015487D01*
X025899Y015613D01*
X025851Y015730D01*
X025849Y015732D01*
X025894Y015732D01*
X026011Y015780D01*
X026101Y015870D01*
X026149Y015987D01*
X026149Y016113D01*
X026101Y016230D01*
X026099Y016232D01*
X026144Y016232D01*
X026261Y016280D01*
X026351Y016370D01*
X026399Y016487D01*
X026399Y016613D01*
X026351Y016730D01*
X026349Y016732D01*
X026394Y016732D01*
X026511Y016780D01*
X026601Y016870D01*
X026649Y016987D01*
X026649Y017113D01*
X026601Y017230D01*
X026511Y017320D01*
X026394Y017368D01*
X026268Y017368D01*
X026151Y017320D01*
X026071Y017240D01*
X025252Y017240D01*
X022627Y014615D01*
X022516Y014504D01*
X022516Y014004D01*
X021304Y014004D01*
X021422Y014123D02*
X022516Y014123D01*
X022516Y014241D02*
X021541Y014241D01*
X021659Y014360D02*
X022516Y014360D01*
X022516Y014478D02*
X021778Y014478D01*
X021896Y014597D02*
X022609Y014597D01*
X022727Y014715D02*
X022015Y014715D01*
X022133Y014834D02*
X022846Y014834D01*
X022964Y014952D02*
X022252Y014952D01*
X022370Y015071D02*
X023083Y015071D01*
X023201Y015189D02*
X022489Y015189D01*
X022607Y015308D02*
X023320Y015308D01*
X023438Y015426D02*
X022726Y015426D01*
X022844Y015545D02*
X023557Y015545D01*
X023675Y015663D02*
X022963Y015663D01*
X023081Y015782D02*
X023794Y015782D01*
X023912Y015900D02*
X023200Y015900D01*
X023318Y016019D02*
X024031Y016019D01*
X024149Y016137D02*
X023437Y016137D01*
X023555Y016256D02*
X024268Y016256D01*
X024386Y016374D02*
X023674Y016374D01*
X023792Y016493D02*
X024505Y016493D01*
X024623Y016611D02*
X023911Y016611D01*
X024029Y016730D02*
X024742Y016730D01*
X024860Y016848D02*
X024148Y016848D01*
X024266Y016967D02*
X024979Y016967D01*
X025097Y017085D02*
X024385Y017085D01*
X024503Y017204D02*
X025216Y017204D01*
X024859Y017559D02*
X027491Y017559D01*
X027491Y017441D02*
X024740Y017441D01*
X024622Y017322D02*
X026156Y017322D01*
X026505Y017322D02*
X027491Y017322D01*
X027491Y017204D02*
X026612Y017204D01*
X026649Y017085D02*
X027491Y017085D01*
X027491Y016967D02*
X026641Y016967D01*
X026579Y016848D02*
X027491Y016848D01*
X027491Y016730D02*
X026351Y016730D01*
X026399Y016611D02*
X027491Y016611D01*
X027491Y016493D02*
X026399Y016493D01*
X026352Y016374D02*
X027491Y016374D01*
X027491Y016256D02*
X026201Y016256D01*
X026139Y016137D02*
X027491Y016137D01*
X027491Y016019D02*
X026149Y016019D01*
X026113Y015900D02*
X027491Y015900D01*
X027491Y015782D02*
X026012Y015782D01*
X025878Y015663D02*
X027491Y015663D01*
X027491Y015545D02*
X025899Y015545D01*
X025874Y015426D02*
X027491Y015426D01*
X027491Y015308D02*
X025788Y015308D01*
X025618Y015189D02*
X027491Y015189D01*
X027491Y015071D02*
X025649Y015071D01*
X025635Y014952D02*
X027491Y014952D01*
X027491Y014834D02*
X025564Y014834D01*
X025357Y014715D02*
X027491Y014715D01*
X027491Y014597D02*
X025399Y014597D01*
X025395Y014478D02*
X027491Y014478D01*
X027491Y014360D02*
X025340Y014360D01*
X025166Y014241D02*
X027491Y014241D01*
X027491Y014123D02*
X025145Y014123D01*
X025149Y014004D02*
X027491Y014004D01*
X027491Y013886D02*
X025107Y013886D01*
X024979Y013767D02*
X027491Y013767D01*
X027491Y013649D02*
X024884Y013649D01*
X024899Y013530D02*
X027491Y013530D01*
X027491Y013412D02*
X024868Y013412D01*
X024774Y013293D02*
X027491Y013293D01*
X027491Y013175D02*
X024771Y013175D01*
X024731Y013056D02*
X027491Y013056D01*
X027491Y012938D02*
X024612Y012938D01*
X024494Y012819D02*
X027491Y012819D01*
X027491Y012701D02*
X024375Y012701D01*
X024257Y012582D02*
X027491Y012582D01*
X027491Y012618D02*
X027491Y021732D01*
X027491Y021868D01*
X027543Y021993D01*
X027638Y022088D01*
X027763Y022140D01*
X038649Y022140D01*
X038774Y022088D01*
X038869Y021993D01*
X038921Y021868D01*
X038921Y012482D01*
X038869Y012357D01*
X038774Y012262D01*
X038649Y012210D01*
X031671Y012210D01*
X031671Y007232D01*
X031619Y007107D01*
X029869Y005357D01*
X029774Y005262D01*
X029649Y005210D01*
X028363Y005210D01*
X028330Y005177D01*
X028168Y005110D01*
X027993Y005110D01*
X027832Y005177D01*
X027708Y005301D01*
X027641Y005462D01*
X027641Y005638D01*
X027708Y005799D01*
X027832Y005923D01*
X027993Y005990D01*
X028168Y005990D01*
X028330Y005923D01*
X028363Y005890D01*
X029440Y005890D01*
X030991Y007441D01*
X030991Y012210D01*
X027763Y012210D01*
X027638Y012262D01*
X027543Y012357D01*
X027491Y012482D01*
X027491Y012618D01*
X027499Y012464D02*
X024138Y012464D01*
X024020Y012345D02*
X027555Y012345D01*
X027723Y012227D02*
X023901Y012227D01*
X023783Y012108D02*
X030991Y012108D01*
X030991Y011990D02*
X023664Y011990D01*
X023546Y011871D02*
X030991Y011871D01*
X030991Y011753D02*
X023427Y011753D01*
X023309Y011634D02*
X030991Y011634D01*
X030991Y011516D02*
X023190Y011516D01*
X023072Y011397D02*
X030991Y011397D01*
X030991Y011279D02*
X022953Y011279D01*
X022835Y011160D02*
X030991Y011160D01*
X030991Y011042D02*
X022716Y011042D01*
X022598Y010923D02*
X030991Y010923D01*
X030991Y010805D02*
X022479Y010805D01*
X022361Y010686D02*
X030991Y010686D01*
X030991Y010568D02*
X022242Y010568D01*
X022124Y010449D02*
X030991Y010449D01*
X030991Y010331D02*
X022005Y010331D01*
X021887Y010212D02*
X030991Y010212D01*
X030991Y010094D02*
X021768Y010094D01*
X021650Y009975D02*
X030991Y009975D01*
X030991Y009857D02*
X021531Y009857D01*
X021413Y009738D02*
X030991Y009738D01*
X030991Y009620D02*
X021294Y009620D01*
X021176Y009501D02*
X030991Y009501D01*
X030991Y009383D02*
X021057Y009383D01*
X020939Y009264D02*
X030991Y009264D01*
X030991Y009146D02*
X020820Y009146D01*
X020702Y009027D02*
X030991Y009027D01*
X030991Y008909D02*
X020583Y008909D01*
X020465Y008790D02*
X030991Y008790D01*
X030991Y008672D02*
X020346Y008672D01*
X020271Y008553D02*
X030991Y008553D01*
X030991Y008435D02*
X020271Y008435D01*
X020271Y008316D02*
X030991Y008316D01*
X030991Y008198D02*
X020271Y008198D01*
X020271Y008079D02*
X030991Y008079D01*
X030991Y007961D02*
X020271Y007961D01*
X020271Y007842D02*
X030991Y007842D01*
X030991Y007724D02*
X020271Y007724D01*
X020271Y007605D02*
X030991Y007605D01*
X030991Y007487D02*
X020271Y007487D01*
X020271Y007368D02*
X030918Y007368D01*
X030800Y007250D02*
X020271Y007250D01*
X020271Y007131D02*
X030681Y007131D01*
X030563Y007013D02*
X020387Y007013D01*
X020506Y006894D02*
X030444Y006894D01*
X030326Y006776D02*
X020624Y006776D01*
X020743Y006657D02*
X030207Y006657D01*
X030089Y006539D02*
X020861Y006539D01*
X020980Y006420D02*
X029970Y006420D01*
X029852Y006302D02*
X021098Y006302D01*
X021217Y006183D02*
X029733Y006183D01*
X029615Y006065D02*
X021335Y006065D01*
X021035Y005828D02*
X020926Y005828D01*
X020916Y005946D02*
X020775Y005946D01*
X020798Y006065D02*
X020335Y006065D01*
X020217Y006183D02*
X020679Y006183D01*
X020561Y006302D02*
X020098Y006302D01*
X020021Y006420D02*
X020442Y006420D01*
X020324Y006539D02*
X020021Y006539D01*
X020021Y006657D02*
X020205Y006657D01*
X020087Y006776D02*
X020021Y006776D01*
X019798Y006065D02*
X019771Y006065D01*
X019775Y005946D02*
X019916Y005946D01*
X019926Y005828D02*
X020035Y005828D01*
X019991Y005709D02*
X020153Y005709D01*
X020141Y005591D02*
X020021Y005591D01*
X020021Y005472D02*
X020141Y005472D01*
X020186Y005354D02*
X019976Y005354D01*
X019888Y005235D02*
X020274Y005235D01*
X020478Y005117D02*
X019684Y005117D01*
X019478Y005117D02*
X018684Y005117D01*
X018478Y005117D02*
X017684Y005117D01*
X017478Y005117D02*
X016684Y005117D01*
X016478Y005117D02*
X015684Y005117D01*
X015478Y005117D02*
X014684Y005117D01*
X014493Y005110D02*
X014332Y005177D01*
X014208Y005301D01*
X014141Y005462D01*
X014141Y005638D01*
X014208Y005799D01*
X014332Y005923D01*
X014493Y005990D01*
X014668Y005990D01*
X014728Y005965D01*
X016766Y008004D01*
X016877Y008115D01*
X017002Y008115D01*
X017141Y008254D01*
X017141Y008629D01*
X022516Y014004D01*
X022398Y013886D02*
X021185Y013886D01*
X021160Y013860D02*
X026660Y019360D01*
X026771Y019471D01*
X026771Y020971D01*
X027032Y021232D01*
X027144Y021232D01*
X027261Y021280D01*
X027351Y021370D01*
X027399Y021487D01*
X027399Y021613D01*
X027351Y021730D01*
X027261Y021820D01*
X027144Y021868D01*
X027018Y021868D01*
X026901Y021820D01*
X026811Y021730D01*
X026763Y021613D01*
X026763Y021501D01*
X026391Y021129D01*
X026391Y019629D01*
X021002Y014240D01*
X016160Y014240D01*
X014649Y015751D01*
X014649Y015863D01*
X014601Y015980D01*
X014511Y016070D01*
X014394Y016118D01*
X014268Y016118D01*
X014151Y016070D01*
X014061Y015980D01*
X014013Y015863D01*
X014013Y015737D01*
X014061Y015620D01*
X014151Y015530D01*
X014268Y015482D01*
X014380Y015482D01*
X015891Y013971D01*
X016002Y013860D01*
X021160Y013860D01*
X021003Y014241D02*
X016159Y014241D01*
X016040Y014360D02*
X021122Y014360D01*
X021240Y014478D02*
X015922Y014478D01*
X015803Y014597D02*
X016343Y014597D01*
X016292Y014618D02*
X016480Y014540D01*
X016682Y014540D01*
X016870Y014618D01*
X017013Y014761D01*
X017081Y014924D01*
X017149Y014761D01*
X017292Y014618D01*
X017480Y014540D01*
X017682Y014540D01*
X017870Y014618D01*
X018013Y014761D01*
X018081Y014924D01*
X018149Y014761D01*
X018292Y014618D01*
X018480Y014540D01*
X018682Y014540D01*
X018870Y014618D01*
X019013Y014761D01*
X019081Y014924D01*
X019149Y014761D01*
X019292Y014618D01*
X019480Y014540D01*
X019682Y014540D01*
X019870Y014618D01*
X020013Y014761D01*
X020081Y014924D01*
X020149Y014761D01*
X020292Y014618D01*
X020480Y014540D01*
X020682Y014540D01*
X020870Y014618D01*
X021013Y014761D01*
X021091Y014949D01*
X021091Y015151D01*
X021013Y015339D01*
X020870Y015482D01*
X020707Y015550D01*
X020870Y015618D01*
X021013Y015761D01*
X021091Y015949D01*
X021091Y016151D01*
X021013Y016339D01*
X020870Y016482D01*
X020682Y016560D01*
X020480Y016560D01*
X020292Y016482D01*
X020149Y016339D01*
X020081Y016176D01*
X020013Y016339D01*
X019870Y016482D01*
X019682Y016560D01*
X019480Y016560D01*
X019292Y016482D01*
X019149Y016339D01*
X019090Y016198D01*
X019072Y016253D01*
X019034Y016328D01*
X018985Y016395D01*
X018926Y016454D01*
X018859Y016503D01*
X018784Y016541D01*
X018705Y016567D01*
X018623Y016580D01*
X018621Y016580D01*
X018621Y016090D01*
X018541Y016090D01*
X018541Y016580D01*
X018539Y016580D01*
X018457Y016567D01*
X018378Y016541D01*
X018303Y016503D01*
X018236Y016454D01*
X018177Y016395D01*
X018128Y016328D01*
X018090Y016253D01*
X018072Y016198D01*
X018013Y016339D01*
X017870Y016482D01*
X017682Y016560D01*
X017480Y016560D01*
X017292Y016482D01*
X017149Y016339D01*
X017081Y016176D01*
X017013Y016339D01*
X016870Y016482D01*
X016682Y016560D01*
X016480Y016560D01*
X016292Y016482D01*
X016149Y016339D01*
X016071Y016151D01*
X016071Y015949D01*
X016149Y015761D01*
X016292Y015618D01*
X016455Y015550D01*
X016292Y015482D01*
X016149Y015339D01*
X016071Y015151D01*
X016071Y014949D01*
X016149Y014761D01*
X016292Y014618D01*
X016195Y014715D02*
X015685Y014715D01*
X015566Y014834D02*
X016119Y014834D01*
X016071Y014952D02*
X015448Y014952D01*
X015329Y015071D02*
X016071Y015071D01*
X016087Y015189D02*
X015211Y015189D01*
X015092Y015308D02*
X016136Y015308D01*
X016236Y015426D02*
X014974Y015426D01*
X014855Y015545D02*
X016442Y015545D01*
X016247Y015663D02*
X014737Y015663D01*
X014649Y015782D02*
X016140Y015782D01*
X016091Y015900D02*
X014634Y015900D01*
X014562Y016019D02*
X016071Y016019D01*
X016071Y016137D02*
X010421Y016137D01*
X010421Y016019D02*
X014100Y016019D01*
X014028Y015900D02*
X010421Y015900D01*
X010421Y015782D02*
X014013Y015782D01*
X014043Y015663D02*
X010421Y015663D01*
X010421Y015545D02*
X014137Y015545D01*
X014436Y015426D02*
X010421Y015426D01*
X010421Y015308D02*
X014555Y015308D01*
X014673Y015189D02*
X010421Y015189D01*
X010421Y015071D02*
X014792Y015071D01*
X014910Y014952D02*
X010421Y014952D01*
X010421Y014834D02*
X015029Y014834D01*
X015147Y014715D02*
X013780Y014715D01*
X013758Y014726D02*
X013689Y014749D01*
X013621Y014759D01*
X013621Y014340D01*
X014040Y014340D01*
X014030Y014408D01*
X014007Y014477D01*
X013974Y014541D01*
X013932Y014600D01*
X013881Y014651D01*
X013822Y014693D01*
X013758Y014726D01*
X013621Y014715D02*
X013541Y014715D01*
X013541Y014759D02*
X013473Y014749D01*
X013404Y014726D01*
X013340Y014693D01*
X013281Y014651D01*
X013230Y014600D01*
X013188Y014541D01*
X013155Y014477D01*
X013132Y014408D01*
X013122Y014340D01*
X013541Y014340D01*
X013541Y014759D01*
X013541Y014597D02*
X013621Y014597D01*
X013621Y014478D02*
X013541Y014478D01*
X013541Y014360D02*
X013621Y014360D01*
X013621Y014340D02*
X013541Y014340D01*
X013541Y014260D01*
X013621Y014260D01*
X013621Y014340D01*
X013621Y014260D02*
X014040Y014260D01*
X014030Y014192D01*
X014007Y014123D01*
X013974Y014059D01*
X013932Y014000D01*
X013881Y013949D01*
X013822Y013907D01*
X013758Y013874D01*
X013689Y013851D01*
X013621Y013841D01*
X013621Y014260D01*
X013621Y014241D02*
X013541Y014241D01*
X013541Y014260D02*
X013541Y013841D01*
X013473Y013851D01*
X013404Y013874D01*
X013340Y013907D01*
X013281Y013949D01*
X013230Y014000D01*
X013188Y014059D01*
X013155Y014123D01*
X012984Y014123D01*
X012954Y014051D02*
X013021Y014212D01*
X013021Y014388D01*
X012954Y014549D01*
X012830Y014673D01*
X012668Y014740D01*
X012493Y014740D01*
X012332Y014673D01*
X012208Y014549D01*
X012141Y014388D01*
X012141Y014212D01*
X012208Y014051D01*
X012332Y013927D01*
X012493Y013860D01*
X012668Y013860D01*
X012830Y013927D01*
X012954Y014051D01*
X012907Y014004D02*
X013227Y014004D01*
X013155Y014123D02*
X013132Y014192D01*
X013122Y014260D01*
X013541Y014260D01*
X013541Y014123D02*
X013621Y014123D01*
X013621Y014004D02*
X013541Y014004D01*
X013541Y013886D02*
X013621Y013886D01*
X013781Y013886D02*
X015977Y013886D01*
X015858Y014004D02*
X013935Y014004D01*
X014007Y014123D02*
X015740Y014123D01*
X015621Y014241D02*
X014037Y014241D01*
X014037Y014360D02*
X015503Y014360D01*
X015384Y014478D02*
X014007Y014478D01*
X013934Y014597D02*
X015266Y014597D01*
X016819Y014597D02*
X017343Y014597D01*
X017195Y014715D02*
X016967Y014715D01*
X017043Y014834D02*
X017119Y014834D01*
X017819Y014597D02*
X018343Y014597D01*
X018195Y014715D02*
X017967Y014715D01*
X018043Y014834D02*
X018119Y014834D01*
X018819Y014597D02*
X019343Y014597D01*
X019195Y014715D02*
X018967Y014715D01*
X019043Y014834D02*
X019119Y014834D01*
X019819Y014597D02*
X020343Y014597D01*
X020195Y014715D02*
X019967Y014715D01*
X020043Y014834D02*
X020119Y014834D01*
X020819Y014597D02*
X021359Y014597D01*
X021477Y014715D02*
X020967Y014715D01*
X021043Y014834D02*
X021596Y014834D01*
X021714Y014952D02*
X021091Y014952D01*
X021091Y015071D02*
X021833Y015071D01*
X021951Y015189D02*
X021075Y015189D01*
X021026Y015308D02*
X022070Y015308D01*
X022188Y015426D02*
X020926Y015426D01*
X020915Y015663D02*
X022425Y015663D01*
X022307Y015545D02*
X020720Y015545D01*
X021022Y015782D02*
X022544Y015782D01*
X022662Y015900D02*
X021071Y015900D01*
X021091Y016019D02*
X022781Y016019D01*
X022899Y016137D02*
X021091Y016137D01*
X021048Y016256D02*
X023018Y016256D01*
X023136Y016374D02*
X020978Y016374D01*
X020845Y016493D02*
X023255Y016493D01*
X023373Y016611D02*
X010421Y016611D01*
X010421Y016493D02*
X016317Y016493D01*
X016184Y016374D02*
X010421Y016374D01*
X010421Y016256D02*
X016114Y016256D01*
X016845Y016493D02*
X017317Y016493D01*
X017184Y016374D02*
X016978Y016374D01*
X017048Y016256D02*
X017114Y016256D01*
X017845Y016493D02*
X018288Y016493D01*
X018161Y016374D02*
X017978Y016374D01*
X018048Y016256D02*
X018091Y016256D01*
X018541Y016256D02*
X018621Y016256D01*
X018621Y016374D02*
X018541Y016374D01*
X018541Y016493D02*
X018621Y016493D01*
X018874Y016493D02*
X019317Y016493D01*
X019184Y016374D02*
X019001Y016374D01*
X019071Y016256D02*
X019114Y016256D01*
X018621Y016137D02*
X018541Y016137D01*
X019845Y016493D02*
X020317Y016493D01*
X020184Y016374D02*
X019978Y016374D01*
X020048Y016256D02*
X020114Y016256D01*
X021660Y017860D02*
X021771Y017971D01*
X023532Y019732D01*
X023644Y019732D01*
X023761Y019780D01*
X023851Y019870D01*
X023899Y019987D01*
X023899Y020113D01*
X023851Y020230D01*
X023761Y020320D01*
X023644Y020368D01*
X023518Y020368D01*
X023401Y020320D01*
X023331Y020250D01*
X023261Y020320D01*
X023144Y020368D01*
X023018Y020368D01*
X022901Y020320D01*
X022821Y020240D01*
X018160Y020240D01*
X017149Y021251D01*
X017149Y021363D01*
X017101Y021480D01*
X017011Y021570D01*
X016894Y021618D01*
X016768Y021618D01*
X016651Y021570D01*
X016561Y021480D01*
X016513Y021363D01*
X016513Y021237D01*
X016561Y021120D01*
X016651Y021030D01*
X016768Y020982D01*
X016880Y020982D01*
X018002Y019860D01*
X022821Y019860D01*
X022901Y019780D01*
X023001Y019739D01*
X021502Y018240D01*
X017091Y018240D01*
X017011Y018320D01*
X016894Y018368D01*
X016768Y018368D01*
X016651Y018320D01*
X016561Y018230D01*
X016513Y018113D01*
X016513Y017987D01*
X016561Y017870D01*
X016651Y017780D01*
X016768Y017732D01*
X016894Y017732D01*
X017011Y017780D01*
X017091Y017860D01*
X021660Y017860D01*
X021714Y017915D02*
X024677Y017915D01*
X024795Y018033D02*
X021833Y018033D01*
X021951Y018152D02*
X024914Y018152D01*
X025032Y018270D02*
X022070Y018270D01*
X022188Y018389D02*
X025151Y018389D01*
X025269Y018507D02*
X022307Y018507D01*
X022425Y018626D02*
X025388Y018626D01*
X025506Y018744D02*
X022544Y018744D01*
X022662Y018863D02*
X025625Y018863D01*
X025743Y018981D02*
X022781Y018981D01*
X022899Y019100D02*
X025862Y019100D01*
X025980Y019218D02*
X023018Y019218D01*
X023136Y019337D02*
X026099Y019337D01*
X026217Y019455D02*
X023255Y019455D01*
X023373Y019574D02*
X026336Y019574D01*
X026391Y019692D02*
X023492Y019692D01*
X023791Y019811D02*
X026391Y019811D01*
X026391Y019929D02*
X023875Y019929D01*
X023899Y020048D02*
X026391Y020048D01*
X026391Y020166D02*
X023877Y020166D01*
X023796Y020285D02*
X026391Y020285D01*
X026391Y020403D02*
X017997Y020403D01*
X018115Y020285D02*
X022866Y020285D01*
X023296Y020285D02*
X023366Y020285D01*
X022871Y019811D02*
X008291Y019811D01*
X008291Y019929D02*
X017933Y019929D01*
X017815Y020048D02*
X008291Y020048D01*
X008291Y020166D02*
X009411Y020166D01*
X009450Y020150D02*
X009652Y020150D01*
X009840Y020228D01*
X009983Y020371D01*
X009995Y020400D01*
X011667Y020400D01*
X011679Y020371D01*
X011822Y020228D01*
X012010Y020150D01*
X012212Y020150D01*
X012400Y020228D01*
X012543Y020371D01*
X012621Y020559D01*
X012621Y020761D01*
X012543Y020949D01*
X012400Y021092D01*
X012212Y021170D01*
X012010Y021170D01*
X011822Y021092D01*
X011679Y020949D01*
X011667Y020920D01*
X009995Y020920D01*
X009983Y020949D01*
X009840Y021092D01*
X009652Y021170D01*
X009450Y021170D01*
X009262Y021092D01*
X009119Y020949D01*
X009041Y020761D01*
X009041Y020559D01*
X009119Y020371D01*
X009262Y020228D01*
X009450Y020150D01*
X009691Y020166D02*
X011971Y020166D01*
X011765Y020285D02*
X009897Y020285D01*
X009721Y019692D02*
X011941Y019692D01*
X011908Y019681D02*
X011833Y019643D01*
X011766Y019594D01*
X011707Y019535D01*
X011658Y019468D01*
X011620Y019393D01*
X011594Y019314D01*
X011581Y019232D01*
X011581Y019230D01*
X012071Y019230D01*
X012071Y019720D01*
X012069Y019720D01*
X011987Y019707D01*
X011908Y019681D01*
X012071Y019692D02*
X012151Y019692D01*
X012153Y019720D02*
X012151Y019720D01*
X012151Y019230D01*
X012641Y019230D01*
X012641Y019232D01*
X012628Y019314D01*
X012602Y019393D01*
X012564Y019468D01*
X012515Y019535D01*
X012456Y019594D01*
X012389Y019643D01*
X012314Y019681D01*
X012235Y019707D01*
X012153Y019720D01*
X012281Y019692D02*
X022954Y019692D01*
X022836Y019574D02*
X012477Y019574D01*
X012571Y019455D02*
X022717Y019455D01*
X022599Y019337D02*
X012621Y019337D01*
X012641Y019150D02*
X012151Y019150D01*
X012151Y019230D01*
X012071Y019230D01*
X012071Y019150D01*
X012151Y019150D01*
X012151Y018660D01*
X012153Y018660D01*
X012235Y018673D01*
X012314Y018699D01*
X012389Y018737D01*
X012456Y018786D01*
X012515Y018845D01*
X012564Y018912D01*
X012602Y018987D01*
X012628Y019066D01*
X012641Y019148D01*
X012641Y019150D01*
X012633Y019100D02*
X022362Y019100D01*
X022480Y019218D02*
X012151Y019218D01*
X012071Y019218D02*
X009591Y019218D01*
X009591Y019230D02*
X010081Y019230D01*
X010081Y019232D01*
X010068Y019314D01*
X010042Y019393D01*
X010004Y019468D01*
X009955Y019535D01*
X009896Y019594D01*
X009829Y019643D01*
X009754Y019681D01*
X009675Y019707D01*
X009593Y019720D01*
X009591Y019720D01*
X009591Y019230D01*
X009591Y019150D01*
X010081Y019150D01*
X010081Y019148D01*
X010068Y019066D01*
X010042Y018987D01*
X010004Y018912D01*
X009955Y018845D01*
X009896Y018786D01*
X009829Y018737D01*
X009754Y018699D01*
X009675Y018673D01*
X009593Y018660D01*
X009591Y018660D01*
X009591Y019150D01*
X009511Y019150D01*
X009511Y018660D01*
X009509Y018660D01*
X009427Y018673D01*
X009348Y018699D01*
X009273Y018737D01*
X009206Y018786D01*
X009147Y018845D01*
X009098Y018912D01*
X009060Y018987D01*
X009034Y019066D01*
X009021Y019148D01*
X009021Y019150D01*
X009511Y019150D01*
X009511Y019230D01*
X009511Y019720D01*
X009509Y019720D01*
X009427Y019707D01*
X009348Y019681D01*
X009273Y019643D01*
X009206Y019594D01*
X009147Y019535D01*
X009098Y019468D01*
X009060Y019393D01*
X009034Y019314D01*
X009021Y019232D01*
X009021Y019230D01*
X009511Y019230D01*
X009591Y019230D01*
X009511Y019218D02*
X008291Y019218D01*
X008291Y019100D02*
X009029Y019100D01*
X009063Y018981D02*
X008291Y018981D01*
X008291Y018863D02*
X009134Y018863D01*
X009263Y018744D02*
X008291Y018744D01*
X008291Y018626D02*
X021888Y018626D01*
X022006Y018744D02*
X012399Y018744D01*
X012528Y018863D02*
X022125Y018863D01*
X022243Y018981D02*
X012599Y018981D01*
X012151Y018981D02*
X012071Y018981D01*
X012071Y018863D02*
X012151Y018863D01*
X012151Y018744D02*
X012071Y018744D01*
X012071Y018660D02*
X012071Y019150D01*
X011581Y019150D01*
X011581Y019148D01*
X011594Y019066D01*
X011620Y018987D01*
X011658Y018912D01*
X011707Y018845D01*
X011766Y018786D01*
X011833Y018737D01*
X011908Y018699D01*
X011987Y018673D01*
X012069Y018660D01*
X012071Y018660D01*
X011823Y018744D02*
X009839Y018744D01*
X009968Y018863D02*
X011694Y018863D01*
X011623Y018981D02*
X010039Y018981D01*
X010073Y019100D02*
X011589Y019100D01*
X011601Y019337D02*
X010061Y019337D01*
X010011Y019455D02*
X011651Y019455D01*
X011745Y019574D02*
X009917Y019574D01*
X009591Y019574D02*
X009511Y019574D01*
X009511Y019692D02*
X009591Y019692D01*
X009381Y019692D02*
X008291Y019692D01*
X008291Y019574D02*
X009185Y019574D01*
X009091Y019455D02*
X008291Y019455D01*
X008291Y019337D02*
X009041Y019337D01*
X009511Y019337D02*
X009591Y019337D01*
X009591Y019455D02*
X009511Y019455D01*
X009511Y019100D02*
X009591Y019100D01*
X009591Y018981D02*
X009511Y018981D01*
X009511Y018863D02*
X009591Y018863D01*
X009591Y018744D02*
X009511Y018744D01*
X009450Y017920D02*
X009262Y017842D01*
X009119Y017699D01*
X009041Y017511D01*
X009041Y017309D01*
X009119Y017121D01*
X009262Y016978D01*
X009450Y016900D01*
X009652Y016900D01*
X009840Y016978D01*
X009983Y017121D01*
X009995Y017150D01*
X011667Y017150D01*
X011679Y017121D01*
X011822Y016978D01*
X012010Y016900D01*
X012212Y016900D01*
X012400Y016978D01*
X012543Y017121D01*
X012621Y017309D01*
X012621Y017511D01*
X012543Y017699D01*
X012400Y017842D01*
X012212Y017920D01*
X012010Y017920D01*
X011822Y017842D01*
X011679Y017699D01*
X011667Y017670D01*
X009995Y017670D01*
X009983Y017699D01*
X009840Y017842D01*
X009652Y017920D01*
X009450Y017920D01*
X009436Y017915D02*
X008291Y017915D01*
X008291Y018033D02*
X016513Y018033D01*
X016529Y018152D02*
X008291Y018152D01*
X008291Y018270D02*
X016601Y018270D01*
X016543Y017915D02*
X012226Y017915D01*
X011996Y017915D02*
X009666Y017915D01*
X009886Y017796D02*
X011776Y017796D01*
X011670Y017678D02*
X009992Y017678D01*
X009216Y017796D02*
X008291Y017796D01*
X008291Y017678D02*
X009110Y017678D01*
X009061Y017559D02*
X008291Y017559D01*
X008291Y017441D02*
X009041Y017441D01*
X009041Y017322D02*
X008291Y017322D01*
X008291Y017204D02*
X009084Y017204D01*
X009155Y017085D02*
X008291Y017085D01*
X008291Y016967D02*
X009289Y016967D01*
X009813Y016967D02*
X011849Y016967D01*
X011715Y017085D02*
X009947Y017085D01*
X009912Y016848D02*
X008291Y016848D01*
X008291Y016730D02*
X009787Y016730D01*
X009741Y016611D02*
X008291Y016611D01*
X008291Y016493D02*
X009741Y016493D01*
X009741Y016374D02*
X008291Y016374D01*
X008291Y016256D02*
X009741Y016256D01*
X009741Y016137D02*
X008291Y016137D01*
X008291Y016019D02*
X009741Y016019D01*
X009741Y015900D02*
X008291Y015900D01*
X008291Y015782D02*
X009741Y015782D01*
X009741Y015663D02*
X008291Y015663D01*
X008291Y015545D02*
X009741Y015545D01*
X009741Y015426D02*
X008291Y015426D01*
X008291Y015308D02*
X009741Y015308D01*
X009741Y015189D02*
X008291Y015189D01*
X008291Y015071D02*
X009741Y015071D01*
X009741Y014952D02*
X008291Y014952D01*
X008291Y014834D02*
X009741Y014834D01*
X009741Y014715D02*
X008291Y014715D01*
X008291Y014597D02*
X009741Y014597D01*
X009741Y014478D02*
X008291Y014478D01*
X008291Y014360D02*
X009741Y014360D01*
X009741Y014241D02*
X008291Y014241D01*
X008291Y014123D02*
X009741Y014123D01*
X009741Y014004D02*
X008291Y014004D01*
X008291Y013886D02*
X009741Y013886D01*
X009741Y013767D02*
X008291Y013767D01*
X008291Y013649D02*
X009741Y013649D01*
X009741Y013530D02*
X008291Y013530D01*
X008291Y013412D02*
X009741Y013412D01*
X009741Y013293D02*
X008291Y013293D01*
X008291Y013175D02*
X009741Y013175D01*
X009741Y013056D02*
X008291Y013056D01*
X008291Y012938D02*
X009741Y012938D01*
X009741Y012819D02*
X008291Y012819D01*
X008291Y012701D02*
X009741Y012701D01*
X009741Y012582D02*
X008291Y012582D01*
X008291Y012464D02*
X009741Y012464D01*
X009741Y012345D02*
X008291Y012345D01*
X008291Y012227D02*
X009741Y012227D01*
X009741Y012108D02*
X008291Y012108D01*
X008291Y011990D02*
X009741Y011990D01*
X009741Y011871D02*
X008291Y011871D01*
X008291Y011753D02*
X009741Y011753D01*
X009741Y011634D02*
X008291Y011634D01*
X008291Y011516D02*
X009741Y011516D01*
X009741Y011397D02*
X008291Y011397D01*
X008291Y011279D02*
X009741Y011279D01*
X009741Y011160D02*
X008291Y011160D01*
X008291Y011042D02*
X009741Y011042D01*
X009741Y010923D02*
X008291Y010923D01*
X008291Y010805D02*
X009741Y010805D01*
X009741Y010686D02*
X008291Y010686D01*
X008291Y010568D02*
X009741Y010568D01*
X009741Y010449D02*
X008291Y010449D01*
X008291Y010331D02*
X009741Y010331D01*
X009741Y010212D02*
X008291Y010212D01*
X008291Y010094D02*
X009741Y010094D01*
X009741Y009975D02*
X008291Y009975D01*
X008291Y009857D02*
X009741Y009857D01*
X009741Y009738D02*
X008291Y009738D01*
X008291Y009620D02*
X009741Y009620D01*
X009741Y009501D02*
X008291Y009501D01*
X008291Y009383D02*
X009741Y009383D01*
X009741Y009264D02*
X008291Y009264D01*
X008291Y009146D02*
X009741Y009146D01*
X009741Y009027D02*
X008291Y009027D01*
X008291Y008909D02*
X009741Y008909D01*
X009741Y008790D02*
X008291Y008790D01*
X008291Y008672D02*
X009741Y008672D01*
X009741Y008553D02*
X008291Y008553D01*
X008291Y008435D02*
X009741Y008435D01*
X009741Y008316D02*
X008291Y008316D01*
X008291Y008198D02*
X009741Y008198D01*
X009741Y008079D02*
X008291Y008079D01*
X008291Y007961D02*
X009741Y007961D01*
X009741Y007842D02*
X008291Y007842D01*
X008291Y007724D02*
X009741Y007724D01*
X009741Y007605D02*
X008291Y007605D01*
X008291Y007487D02*
X009741Y007487D01*
X009741Y007368D02*
X008291Y007368D01*
X008291Y007250D02*
X009741Y007250D01*
X009741Y007131D02*
X008291Y007131D01*
X008291Y007013D02*
X009741Y007013D01*
X009741Y006894D02*
X008291Y006894D01*
X008291Y006776D02*
X009741Y006776D01*
X009741Y006657D02*
X008291Y006657D01*
X008291Y006539D02*
X009741Y006539D01*
X009741Y006420D02*
X008291Y006420D01*
X010421Y006539D02*
X015301Y006539D01*
X015419Y006657D02*
X010421Y006657D01*
X010421Y006776D02*
X015538Y006776D01*
X015656Y006894D02*
X010421Y006894D01*
X010421Y007013D02*
X015775Y007013D01*
X015893Y007131D02*
X010421Y007131D01*
X010421Y007250D02*
X016012Y007250D01*
X016130Y007368D02*
X010421Y007368D01*
X010421Y007487D02*
X016249Y007487D01*
X016367Y007605D02*
X010421Y007605D01*
X010421Y007724D02*
X016486Y007724D01*
X016604Y007842D02*
X010421Y007842D01*
X010421Y007961D02*
X016723Y007961D01*
X016841Y008079D02*
X010421Y008079D01*
X010421Y008198D02*
X017085Y008198D01*
X017141Y008316D02*
X010421Y008316D01*
X010421Y008435D02*
X017141Y008435D01*
X017141Y008553D02*
X010421Y008553D01*
X010421Y008672D02*
X017184Y008672D01*
X017302Y008790D02*
X010421Y008790D01*
X010421Y008909D02*
X017421Y008909D01*
X017539Y009027D02*
X010421Y009027D01*
X010421Y009146D02*
X017658Y009146D01*
X017776Y009264D02*
X010421Y009264D01*
X010421Y009383D02*
X017895Y009383D01*
X018013Y009501D02*
X010421Y009501D01*
X010421Y009620D02*
X018132Y009620D01*
X018250Y009738D02*
X010421Y009738D01*
X010421Y009857D02*
X018369Y009857D01*
X018487Y009975D02*
X010421Y009975D01*
X010421Y010094D02*
X018606Y010094D01*
X018724Y010212D02*
X010421Y010212D01*
X010421Y010331D02*
X018843Y010331D01*
X018961Y010449D02*
X010421Y010449D01*
X010421Y010568D02*
X019080Y010568D01*
X019198Y010686D02*
X010421Y010686D01*
X010421Y010805D02*
X019317Y010805D01*
X019435Y010923D02*
X010421Y010923D01*
X010421Y011042D02*
X019554Y011042D01*
X019672Y011160D02*
X010421Y011160D01*
X010421Y011279D02*
X019791Y011279D01*
X019909Y011397D02*
X010421Y011397D01*
X010421Y011516D02*
X020028Y011516D01*
X020146Y011634D02*
X010421Y011634D01*
X010421Y011753D02*
X020265Y011753D01*
X020383Y011871D02*
X010421Y011871D01*
X010421Y011990D02*
X020502Y011990D01*
X020620Y012108D02*
X010421Y012108D01*
X010421Y012227D02*
X020739Y012227D01*
X020857Y012345D02*
X010421Y012345D01*
X010421Y012464D02*
X020976Y012464D01*
X021094Y012582D02*
X010421Y012582D01*
X010421Y012701D02*
X021213Y012701D01*
X021331Y012819D02*
X010421Y012819D01*
X010421Y012938D02*
X021450Y012938D01*
X021568Y013056D02*
X010421Y013056D01*
X010421Y013175D02*
X021687Y013175D01*
X021805Y013293D02*
X010421Y013293D01*
X010421Y013412D02*
X021924Y013412D01*
X022042Y013530D02*
X010421Y013530D01*
X010421Y013649D02*
X022161Y013649D01*
X022279Y013767D02*
X010421Y013767D01*
X010421Y013886D02*
X012432Y013886D01*
X012255Y014004D02*
X010421Y014004D01*
X010421Y014123D02*
X012178Y014123D01*
X012141Y014241D02*
X010421Y014241D01*
X010421Y014360D02*
X012141Y014360D01*
X012178Y014478D02*
X010421Y014478D01*
X010421Y014597D02*
X012255Y014597D01*
X012433Y014715D02*
X010421Y014715D01*
X010375Y016730D02*
X023492Y016730D01*
X023610Y016848D02*
X010250Y016848D01*
X012373Y016967D02*
X023729Y016967D01*
X023847Y017085D02*
X012507Y017085D01*
X012577Y017204D02*
X023966Y017204D01*
X024084Y017322D02*
X012621Y017322D01*
X012621Y017441D02*
X024203Y017441D01*
X024321Y017559D02*
X012601Y017559D01*
X012552Y017678D02*
X024440Y017678D01*
X024558Y017796D02*
X017027Y017796D01*
X016635Y017796D02*
X012446Y017796D01*
X012151Y019100D02*
X012071Y019100D01*
X012071Y019337D02*
X012151Y019337D01*
X012151Y019455D02*
X012071Y019455D01*
X012071Y019574D02*
X012151Y019574D01*
X012251Y020166D02*
X017696Y020166D01*
X017578Y020285D02*
X012457Y020285D01*
X012557Y020403D02*
X017459Y020403D01*
X017341Y020522D02*
X012606Y020522D01*
X012621Y020640D02*
X017222Y020640D01*
X017104Y020759D02*
X012621Y020759D01*
X012573Y020877D02*
X016985Y020877D01*
X016735Y020996D02*
X012497Y020996D01*
X012348Y021114D02*
X016567Y021114D01*
X016515Y021233D02*
X008291Y021233D01*
X008291Y021351D02*
X016513Y021351D01*
X016557Y021470D02*
X008291Y021470D01*
X008291Y021588D02*
X016695Y021588D01*
X016967Y021588D02*
X022600Y021588D01*
X022482Y021470D02*
X017105Y021470D01*
X017149Y021351D02*
X019566Y021351D01*
X019604Y021389D02*
X019492Y021277D01*
X019431Y021130D01*
X019431Y020970D01*
X019492Y020823D01*
X019604Y020711D01*
X019751Y020650D01*
X019911Y020650D01*
X020058Y020711D01*
X020170Y020823D01*
X020185Y020860D01*
X022071Y020860D01*
X022151Y020780D01*
X022268Y020732D01*
X022394Y020732D01*
X022511Y020780D01*
X022601Y020870D01*
X022649Y020987D01*
X022649Y021099D01*
X025032Y023482D01*
X025144Y023482D01*
X025261Y023530D01*
X025351Y023620D01*
X025399Y023737D01*
X025399Y023863D01*
X025351Y023980D01*
X025261Y024070D01*
X025144Y024118D01*
X025018Y024118D01*
X024901Y024070D01*
X024896Y024065D01*
X024896Y024665D01*
X024976Y024745D01*
X025024Y024862D01*
X025024Y024988D01*
X024976Y025105D01*
X024886Y025195D01*
X024769Y025243D01*
X024643Y025243D01*
X024526Y025195D01*
X024436Y025105D01*
X024388Y024988D01*
X024388Y024862D01*
X024436Y024745D01*
X024516Y024665D01*
X024516Y023879D01*
X022877Y022240D01*
X022216Y022240D01*
X022136Y022320D01*
X022019Y022368D01*
X021893Y022368D01*
X021776Y022320D01*
X021696Y022240D01*
X020185Y022240D01*
X020170Y022277D01*
X020058Y022389D01*
X019911Y022450D01*
X019751Y022450D01*
X019604Y022389D01*
X019492Y022277D01*
X019431Y022130D01*
X019431Y021970D01*
X019492Y021823D01*
X019604Y021711D01*
X019751Y021650D01*
X019911Y021650D01*
X020058Y021711D01*
X020170Y021823D01*
X020185Y021860D01*
X021696Y021860D01*
X021776Y021780D01*
X021893Y021732D01*
X022019Y021732D01*
X022136Y021780D01*
X022216Y021860D01*
X022872Y021860D01*
X022380Y021368D01*
X022268Y021368D01*
X022151Y021320D01*
X022071Y021240D01*
X020185Y021240D01*
X020170Y021277D01*
X020058Y021389D01*
X019911Y021450D01*
X019751Y021450D01*
X019604Y021389D01*
X019474Y021233D02*
X017167Y021233D01*
X017286Y021114D02*
X019431Y021114D01*
X019431Y020996D02*
X017404Y020996D01*
X017523Y020877D02*
X019470Y020877D01*
X019557Y020759D02*
X017641Y020759D01*
X017760Y020640D02*
X026391Y020640D01*
X026391Y020522D02*
X017878Y020522D01*
X019491Y021825D02*
X008291Y021825D01*
X008291Y021707D02*
X019615Y021707D01*
X019442Y021944D02*
X012298Y021944D01*
X012314Y021949D02*
X012389Y021987D01*
X012456Y022036D01*
X012515Y022095D01*
X012564Y022162D01*
X012602Y022237D01*
X012628Y022316D01*
X012641Y022398D01*
X012641Y022400D01*
X012151Y022400D01*
X012151Y022480D01*
X012641Y022480D01*
X012641Y022482D01*
X012628Y022564D01*
X012602Y022643D01*
X012564Y022718D01*
X012515Y022785D01*
X012456Y022844D01*
X012389Y022893D01*
X012314Y022931D01*
X012235Y022957D01*
X012153Y022970D01*
X012151Y022970D01*
X012151Y022480D01*
X012071Y022480D01*
X012071Y022970D01*
X012069Y022970D01*
X011987Y022957D01*
X011908Y022931D01*
X011833Y022893D01*
X011766Y022844D01*
X011707Y022785D01*
X011658Y022718D01*
X011620Y022643D01*
X011594Y022564D01*
X011581Y022482D01*
X011581Y022480D01*
X012071Y022480D01*
X012071Y022400D01*
X012151Y022400D01*
X012151Y021910D01*
X012153Y021910D01*
X012235Y021923D01*
X012314Y021949D01*
X012151Y021944D02*
X012071Y021944D01*
X012071Y021910D02*
X012071Y022400D01*
X011581Y022400D01*
X011581Y022398D01*
X011594Y022316D01*
X011620Y022237D01*
X011658Y022162D01*
X011707Y022095D01*
X011766Y022036D01*
X011833Y021987D01*
X011908Y021949D01*
X011987Y021923D01*
X012069Y021910D01*
X012071Y021910D01*
X011924Y021944D02*
X009738Y021944D01*
X009754Y021949D02*
X009829Y021987D01*
X009896Y022036D01*
X009955Y022095D01*
X010004Y022162D01*
X010042Y022237D01*
X010068Y022316D01*
X010081Y022398D01*
X010081Y022400D01*
X009591Y022400D01*
X009591Y022480D01*
X010081Y022480D01*
X010081Y022482D01*
X010068Y022564D01*
X010042Y022643D01*
X010004Y022718D01*
X009955Y022785D01*
X009896Y022844D01*
X009829Y022893D01*
X009754Y022931D01*
X009675Y022957D01*
X009593Y022970D01*
X009591Y022970D01*
X009591Y022480D01*
X009511Y022480D01*
X009511Y022970D01*
X009509Y022970D01*
X009427Y022957D01*
X009348Y022931D01*
X009273Y022893D01*
X009206Y022844D01*
X009147Y022785D01*
X009098Y022718D01*
X009060Y022643D01*
X009034Y022564D01*
X009021Y022482D01*
X009021Y022480D01*
X009511Y022480D01*
X009511Y022400D01*
X009591Y022400D01*
X009591Y021910D01*
X009593Y021910D01*
X009675Y021923D01*
X009754Y021949D01*
X009591Y021944D02*
X009511Y021944D01*
X009511Y021910D02*
X009511Y022400D01*
X009021Y022400D01*
X009021Y022398D01*
X009034Y022316D01*
X009060Y022237D01*
X009098Y022162D01*
X009147Y022095D01*
X009206Y022036D01*
X009273Y021987D01*
X009348Y021949D01*
X009427Y021923D01*
X009509Y021910D01*
X009511Y021910D01*
X009364Y021944D02*
X008291Y021944D01*
X008291Y022062D02*
X009179Y022062D01*
X009088Y022181D02*
X008291Y022181D01*
X008291Y022299D02*
X009039Y022299D01*
X009030Y022536D02*
X008291Y022536D01*
X008291Y022418D02*
X009511Y022418D01*
X009591Y022418D02*
X012071Y022418D01*
X012151Y022418D02*
X019673Y022418D01*
X019514Y022299D02*
X012622Y022299D01*
X012574Y022181D02*
X019452Y022181D01*
X019431Y022062D02*
X012483Y022062D01*
X012151Y022062D02*
X012071Y022062D01*
X012071Y022181D02*
X012151Y022181D01*
X012151Y022299D02*
X012071Y022299D01*
X012071Y022536D02*
X012151Y022536D01*
X012151Y022655D02*
X012071Y022655D01*
X012071Y022773D02*
X012151Y022773D01*
X012151Y022892D02*
X012071Y022892D01*
X011831Y022892D02*
X009831Y022892D01*
X009964Y022773D02*
X011698Y022773D01*
X011625Y022655D02*
X010036Y022655D01*
X010072Y022536D02*
X011590Y022536D01*
X011599Y022299D02*
X010062Y022299D01*
X010014Y022181D02*
X011648Y022181D01*
X011739Y022062D02*
X009923Y022062D01*
X009591Y022062D02*
X009511Y022062D01*
X009511Y022181D02*
X009591Y022181D01*
X009591Y022299D02*
X009511Y022299D01*
X009511Y022536D02*
X009591Y022536D01*
X009591Y022655D02*
X009511Y022655D01*
X009511Y022773D02*
X009591Y022773D01*
X009591Y022892D02*
X009511Y022892D01*
X009271Y022892D02*
X008291Y022892D01*
X008291Y023010D02*
X023647Y023010D01*
X023529Y022892D02*
X012391Y022892D01*
X012524Y022773D02*
X023410Y022773D01*
X023292Y022655D02*
X012596Y022655D01*
X012632Y022536D02*
X023173Y022536D01*
X023055Y022418D02*
X019989Y022418D01*
X020148Y022299D02*
X021755Y022299D01*
X022157Y022299D02*
X022936Y022299D01*
X022837Y021825D02*
X022181Y021825D01*
X021731Y021825D02*
X020171Y021825D01*
X020047Y021707D02*
X022719Y021707D01*
X023019Y021470D02*
X025136Y021470D01*
X025104Y021483D02*
X025220Y021435D01*
X025347Y021435D01*
X025464Y021483D01*
X025544Y021563D01*
X025612Y021563D01*
X028660Y024610D01*
X032571Y024610D01*
X032651Y024530D01*
X032768Y024482D01*
X032894Y024482D01*
X033011Y024530D01*
X033101Y024620D01*
X033149Y024737D01*
X033149Y024863D01*
X033101Y024980D01*
X033011Y025070D01*
X032894Y025118D01*
X032768Y025118D01*
X032651Y025070D01*
X032571Y024990D01*
X031540Y024990D01*
X032615Y026066D01*
X032651Y026030D01*
X032768Y025982D01*
X032894Y025982D01*
X033011Y026030D01*
X033101Y026120D01*
X033149Y026237D01*
X033149Y026363D01*
X033101Y026480D01*
X033011Y026570D01*
X032894Y026618D01*
X032768Y026618D01*
X032651Y026570D01*
X032571Y026490D01*
X032502Y026490D01*
X032391Y026379D01*
X031252Y025240D01*
X028377Y025240D01*
X025395Y022258D01*
X025109Y022258D01*
X025029Y022337D01*
X024912Y022386D01*
X024785Y022386D01*
X024668Y022337D01*
X024579Y022248D01*
X024531Y022131D01*
X024531Y022004D01*
X024579Y021888D01*
X024668Y021798D01*
X024785Y021750D01*
X024912Y021750D01*
X024966Y021772D01*
X024966Y021689D01*
X025014Y021573D01*
X025104Y021483D01*
X025008Y021588D02*
X023138Y021588D01*
X023256Y021707D02*
X024966Y021707D01*
X024641Y021825D02*
X023375Y021825D01*
X023493Y021944D02*
X024556Y021944D01*
X024531Y022062D02*
X023612Y022062D01*
X023730Y022181D02*
X024551Y022181D01*
X024630Y022299D02*
X023849Y022299D01*
X023967Y022418D02*
X025555Y022418D01*
X025673Y022536D02*
X024086Y022536D01*
X024204Y022655D02*
X025792Y022655D01*
X025910Y022773D02*
X024323Y022773D01*
X024441Y022892D02*
X026029Y022892D01*
X026147Y023010D02*
X024560Y023010D01*
X024678Y023129D02*
X026266Y023129D01*
X026384Y023247D02*
X024797Y023247D01*
X024915Y023366D02*
X026503Y023366D01*
X026621Y023484D02*
X025149Y023484D01*
X025333Y023603D02*
X026740Y023603D01*
X026858Y023721D02*
X025393Y023721D01*
X025399Y023840D02*
X026977Y023840D01*
X027095Y023958D02*
X025360Y023958D01*
X025245Y024077D02*
X027214Y024077D01*
X027332Y024195D02*
X024896Y024195D01*
X024896Y024077D02*
X024917Y024077D01*
X024896Y024314D02*
X027451Y024314D01*
X027569Y024432D02*
X024896Y024432D01*
X024896Y024551D02*
X027688Y024551D01*
X027806Y024669D02*
X024900Y024669D01*
X024993Y024788D02*
X027925Y024788D01*
X028043Y024906D02*
X025024Y024906D01*
X025009Y025025D02*
X028162Y025025D01*
X028280Y025143D02*
X024938Y025143D01*
X024474Y025143D02*
X010813Y025143D01*
X010802Y025140D02*
X010843Y025151D01*
X010879Y025172D01*
X010909Y025202D01*
X010930Y025238D01*
X010941Y025279D01*
X010941Y025547D01*
X010786Y025547D01*
X010786Y025553D01*
X010941Y025553D01*
X010941Y025821D01*
X010930Y025862D01*
X010909Y025898D01*
X010879Y025928D01*
X010843Y025949D01*
X010802Y025960D01*
X010658Y025960D01*
X010658Y025730D01*
X010653Y025730D01*
X010653Y025960D01*
X010510Y025960D01*
X010469Y025949D01*
X010444Y025935D01*
X010439Y025940D01*
X010073Y025940D01*
X009991Y025858D01*
X009991Y025770D01*
X009466Y025770D01*
X009454Y025799D01*
X009330Y025923D01*
X009168Y025990D01*
X008993Y025990D01*
X008832Y025923D01*
X008708Y025799D01*
X008641Y025638D01*
X008641Y025462D01*
X008708Y025301D01*
X008832Y025177D01*
X008993Y025110D01*
X009168Y025110D01*
X009330Y025177D01*
X009454Y025301D01*
X009466Y025330D01*
X009991Y025330D01*
X009991Y025242D01*
X010073Y025160D01*
X010439Y025160D01*
X010444Y025165D01*
X010469Y025151D01*
X010510Y025140D01*
X010653Y025140D01*
X010653Y025370D01*
X010658Y025370D01*
X010658Y025140D01*
X010802Y025140D01*
X010658Y025143D02*
X010653Y025143D01*
X010653Y025262D02*
X010658Y025262D01*
X010499Y025143D02*
X009248Y025143D01*
X009189Y024999D02*
X009121Y025009D01*
X009121Y024590D01*
X009540Y024590D01*
X009530Y024658D01*
X009507Y024727D01*
X009474Y024791D01*
X009432Y024850D01*
X009381Y024901D01*
X009322Y024943D01*
X009258Y024976D01*
X009189Y024999D01*
X009121Y024906D02*
X009041Y024906D01*
X009041Y025009D02*
X008973Y024999D01*
X008904Y024976D01*
X008840Y024943D01*
X008781Y024901D01*
X008730Y024850D01*
X008688Y024791D01*
X008655Y024727D01*
X008632Y024658D01*
X008622Y024590D01*
X009041Y024590D01*
X009041Y025009D01*
X008914Y025143D02*
X008291Y025143D01*
X008291Y025025D02*
X024403Y025025D01*
X024388Y024906D02*
X009374Y024906D01*
X009476Y024788D02*
X024419Y024788D01*
X024512Y024669D02*
X009526Y024669D01*
X009540Y024510D02*
X009121Y024510D01*
X009121Y024590D01*
X009041Y024590D01*
X009041Y024510D01*
X009121Y024510D01*
X009121Y024091D01*
X009189Y024101D01*
X009258Y024124D01*
X009322Y024157D01*
X009381Y024199D01*
X009432Y024250D01*
X009474Y024309D01*
X009507Y024373D01*
X009530Y024442D01*
X009540Y024510D01*
X009526Y024432D02*
X020347Y024432D01*
X020354Y024439D02*
X020242Y024327D01*
X020181Y024180D01*
X020181Y024020D01*
X020242Y023873D01*
X020354Y023761D01*
X020501Y023700D01*
X020661Y023700D01*
X020808Y023761D01*
X020920Y023873D01*
X020981Y024020D01*
X020981Y024180D01*
X020920Y024327D01*
X020808Y024439D01*
X020661Y024500D01*
X020501Y024500D01*
X020354Y024439D01*
X020236Y024314D02*
X009477Y024314D01*
X009375Y024195D02*
X020187Y024195D01*
X020181Y024077D02*
X008291Y024077D01*
X008291Y024195D02*
X008787Y024195D01*
X008781Y024199D02*
X008840Y024157D01*
X008904Y024124D01*
X008973Y024101D01*
X009041Y024091D01*
X009041Y024510D01*
X008622Y024510D01*
X008632Y024442D01*
X008655Y024373D01*
X008688Y024309D01*
X008730Y024250D01*
X008781Y024199D01*
X008685Y024314D02*
X008291Y024314D01*
X008291Y024432D02*
X008636Y024432D01*
X008636Y024669D02*
X008291Y024669D01*
X008291Y024551D02*
X009041Y024551D01*
X009121Y024551D02*
X024516Y024551D01*
X024516Y024432D02*
X020815Y024432D01*
X020925Y024314D02*
X024516Y024314D01*
X024516Y024195D02*
X020975Y024195D01*
X020981Y024077D02*
X024516Y024077D01*
X024516Y023958D02*
X020955Y023958D01*
X020886Y023840D02*
X024477Y023840D01*
X024358Y023721D02*
X020711Y023721D01*
X020451Y023721D02*
X008291Y023721D01*
X008291Y023603D02*
X024240Y023603D01*
X024121Y023484D02*
X008291Y023484D01*
X008291Y023366D02*
X024003Y023366D01*
X023884Y023247D02*
X008291Y023247D01*
X008291Y023129D02*
X023766Y023129D01*
X025067Y022299D02*
X025436Y022299D01*
X025875Y021825D02*
X026914Y021825D01*
X026801Y021707D02*
X025756Y021707D01*
X025638Y021588D02*
X026763Y021588D01*
X026732Y021470D02*
X025431Y021470D01*
X025993Y021944D02*
X027522Y021944D01*
X027491Y021825D02*
X027248Y021825D01*
X027360Y021707D02*
X027491Y021707D01*
X027491Y021588D02*
X027399Y021588D01*
X027392Y021470D02*
X027491Y021470D01*
X027491Y021351D02*
X027332Y021351D01*
X027491Y021233D02*
X027146Y021233D01*
X026914Y021114D02*
X027491Y021114D01*
X027491Y020996D02*
X026795Y020996D01*
X026771Y020877D02*
X027491Y020877D01*
X027491Y020759D02*
X026771Y020759D01*
X026771Y020640D02*
X027491Y020640D01*
X027491Y020522D02*
X026771Y020522D01*
X026771Y020403D02*
X027491Y020403D01*
X027491Y020285D02*
X026771Y020285D01*
X026771Y020166D02*
X027491Y020166D01*
X027491Y020048D02*
X026771Y020048D01*
X026771Y019929D02*
X027491Y019929D01*
X027491Y019811D02*
X026771Y019811D01*
X026771Y019692D02*
X027491Y019692D01*
X027491Y019574D02*
X026771Y019574D01*
X026755Y019455D02*
X027491Y019455D01*
X027491Y019337D02*
X026636Y019337D01*
X026518Y019218D02*
X027491Y019218D01*
X027491Y019100D02*
X026399Y019100D01*
X026281Y018981D02*
X027491Y018981D01*
X027491Y018863D02*
X026162Y018863D01*
X026044Y018744D02*
X027491Y018744D01*
X027491Y018626D02*
X025925Y018626D01*
X025807Y018507D02*
X027491Y018507D01*
X027491Y018389D02*
X025688Y018389D01*
X025570Y018270D02*
X027491Y018270D01*
X027491Y018152D02*
X025451Y018152D01*
X025333Y018033D02*
X027491Y018033D01*
X027491Y017915D02*
X025214Y017915D01*
X025096Y017796D02*
X027491Y017796D01*
X027491Y017678D02*
X024977Y017678D01*
X021769Y018507D02*
X008291Y018507D01*
X008291Y018389D02*
X021651Y018389D01*
X021532Y018270D02*
X017061Y018270D01*
X020105Y020759D02*
X022203Y020759D01*
X022459Y020759D02*
X026391Y020759D01*
X026391Y020877D02*
X022604Y020877D01*
X022649Y020996D02*
X026391Y020996D01*
X026391Y021114D02*
X022664Y021114D01*
X022782Y021233D02*
X026495Y021233D01*
X026613Y021351D02*
X022901Y021351D01*
X022226Y021351D02*
X020096Y021351D01*
X020276Y023840D02*
X008291Y023840D01*
X008291Y023958D02*
X020207Y023958D01*
X020501Y025600D02*
X020661Y025600D01*
X020808Y025661D01*
X020920Y025773D01*
X020981Y025920D01*
X020981Y026080D01*
X020920Y026227D01*
X020808Y026339D01*
X020661Y026400D01*
X020501Y026400D01*
X020354Y026339D01*
X020242Y026227D01*
X020181Y026080D01*
X020181Y025920D01*
X020242Y025773D01*
X020354Y025661D01*
X020501Y025600D01*
X020460Y025617D02*
X012935Y025617D01*
X012918Y025610D02*
X013080Y025677D01*
X013204Y025801D01*
X013271Y025962D01*
X013271Y026138D01*
X013246Y026197D01*
X013521Y026471D01*
X013521Y029221D01*
X013910Y029610D01*
X015997Y029610D01*
X014255Y027868D01*
X014143Y027868D01*
X014026Y027820D01*
X014021Y027815D01*
X014021Y028483D01*
X014136Y028530D01*
X014226Y028620D01*
X014274Y028737D01*
X014274Y028863D01*
X014226Y028980D01*
X014136Y029070D01*
X014019Y029118D01*
X013893Y029118D01*
X013776Y029070D01*
X013686Y028980D01*
X013638Y028863D01*
X013638Y028737D01*
X013641Y028729D01*
X013641Y027004D01*
X013641Y026846D01*
X014016Y026471D01*
X014127Y026360D01*
X015821Y026360D01*
X015901Y026280D01*
X016018Y026232D01*
X016144Y026232D01*
X016261Y026280D01*
X016351Y026370D01*
X016399Y026487D01*
X016399Y026613D01*
X016351Y026730D01*
X016261Y026820D01*
X016144Y026868D01*
X016018Y026868D01*
X015901Y026820D01*
X015821Y026740D01*
X014289Y026740D01*
X014386Y026780D01*
X014476Y026870D01*
X014524Y026987D01*
X014524Y027099D01*
X014660Y027235D01*
X021377Y027235D01*
X021891Y026721D01*
X022002Y026610D01*
X024002Y026610D01*
X024513Y026099D01*
X024513Y025987D01*
X024561Y025870D01*
X024651Y025780D01*
X024768Y025732D01*
X024894Y025732D01*
X025011Y025780D01*
X025101Y025870D01*
X025149Y025987D01*
X025149Y026113D01*
X025101Y026230D01*
X025011Y026320D01*
X024894Y026368D01*
X024782Y026368D01*
X024271Y026879D01*
X024160Y026990D01*
X022160Y026990D01*
X021535Y027615D01*
X014540Y027615D01*
X016285Y029360D01*
X027660Y029360D01*
X029410Y031110D01*
X029521Y031221D01*
X029521Y032129D01*
X029300Y032350D01*
X029341Y032449D01*
X029341Y032651D01*
X029263Y032839D01*
X029120Y032982D01*
X028932Y033060D01*
X028730Y033060D01*
X028542Y032982D01*
X028399Y032839D01*
X028331Y032676D01*
X028263Y032839D01*
X028120Y032982D01*
X027932Y033060D01*
X027730Y033060D01*
X027542Y032982D01*
X027399Y032839D01*
X027331Y032676D01*
X027263Y032839D01*
X027120Y032982D01*
X026932Y033060D01*
X026730Y033060D01*
X026542Y032982D01*
X026399Y032839D01*
X026331Y032676D01*
X026263Y032839D01*
X026120Y032982D01*
X025932Y033060D01*
X025730Y033060D01*
X025542Y032982D01*
X025399Y032839D01*
X025331Y032676D01*
X025263Y032839D01*
X025120Y032982D01*
X024932Y033060D01*
X024730Y033060D01*
X024542Y032982D01*
X024399Y032839D01*
X024321Y032651D01*
X024321Y032449D01*
X024399Y032261D01*
X024542Y032118D01*
X024705Y032050D01*
X024542Y031982D01*
X024399Y031839D01*
X024321Y031651D01*
X024321Y031449D01*
X024399Y031261D01*
X024542Y031118D01*
X024730Y031040D01*
X024932Y031040D01*
X025120Y031118D01*
X025263Y031261D01*
X025331Y031424D01*
X025399Y031261D01*
X025542Y031118D01*
X025730Y031040D01*
X025932Y031040D01*
X026120Y031118D01*
X026263Y031261D01*
X026322Y031402D01*
X026340Y031347D01*
X026378Y031272D01*
X026427Y031205D01*
X026486Y031146D01*
X026553Y031097D01*
X026628Y031059D01*
X026707Y031033D01*
X026789Y031020D01*
X026791Y031020D01*
X026791Y031510D01*
X026871Y031510D01*
X026871Y031020D01*
X026873Y031020D01*
X026955Y031033D01*
X027034Y031059D01*
X027109Y031097D01*
X027176Y031146D01*
X027235Y031205D01*
X027284Y031272D01*
X027322Y031347D01*
X027340Y031402D01*
X027399Y031261D01*
X027542Y031118D01*
X027730Y031040D01*
X027932Y031040D01*
X028120Y031118D01*
X028263Y031261D01*
X028331Y031424D01*
X028399Y031261D01*
X028461Y031199D01*
X027252Y029990D01*
X013752Y029990D01*
X013641Y029879D01*
X013141Y029379D01*
X013141Y028362D01*
X013080Y028423D01*
X012918Y028490D01*
X012743Y028490D01*
X012582Y028423D01*
X012458Y028299D01*
X012391Y028138D01*
X012391Y027962D01*
X012458Y027801D01*
X012582Y027677D01*
X012743Y027610D01*
X012918Y027610D01*
X013080Y027677D01*
X013141Y027738D01*
X013141Y027362D01*
X013080Y027423D01*
X012918Y027490D01*
X012743Y027490D01*
X012582Y027423D01*
X012458Y027299D01*
X012391Y027138D01*
X012391Y026962D01*
X012458Y026801D01*
X012582Y026677D01*
X012743Y026610D01*
X012918Y026610D01*
X013080Y026677D01*
X013141Y026738D01*
X013141Y026629D01*
X012978Y026465D01*
X012918Y026490D01*
X012743Y026490D01*
X012684Y026465D01*
X012410Y026740D01*
X012143Y026740D01*
X012204Y026801D01*
X012271Y026962D01*
X012271Y027138D01*
X012204Y027299D01*
X012080Y027423D01*
X011918Y027490D01*
X011743Y027490D01*
X011582Y027423D01*
X011458Y027299D01*
X011391Y027138D01*
X011391Y026962D01*
X011458Y026801D01*
X011519Y026740D01*
X011410Y026740D01*
X009521Y028629D01*
X009521Y028638D01*
X009454Y028799D01*
X009330Y028923D01*
X009168Y028990D01*
X008993Y028990D01*
X008832Y028923D01*
X008708Y028799D01*
X008641Y028638D01*
X008641Y028462D01*
X008708Y028301D01*
X008832Y028177D01*
X008993Y028110D01*
X009168Y028110D01*
X009330Y028177D01*
X009383Y028230D01*
X011252Y026360D01*
X011519Y026360D01*
X011458Y026299D01*
X011391Y026138D01*
X011391Y025962D01*
X011458Y025801D01*
X011582Y025677D01*
X011743Y025610D01*
X011918Y025610D01*
X012080Y025677D01*
X012204Y025801D01*
X012271Y025962D01*
X012271Y026138D01*
X012204Y026299D01*
X012143Y026360D01*
X012252Y026360D01*
X012416Y026197D01*
X012391Y026138D01*
X012391Y025962D01*
X012458Y025801D01*
X012582Y025677D01*
X012743Y025610D01*
X012918Y025610D01*
X012726Y025617D02*
X011935Y025617D01*
X011726Y025617D02*
X010941Y025617D01*
X010941Y025499D02*
X031511Y025499D01*
X031629Y025617D02*
X020702Y025617D01*
X020882Y025736D02*
X024759Y025736D01*
X024903Y025736D02*
X031748Y025736D01*
X031866Y025854D02*
X025085Y025854D01*
X025143Y025973D02*
X031985Y025973D01*
X032103Y026091D02*
X025149Y026091D01*
X025109Y026210D02*
X032222Y026210D01*
X032340Y026328D02*
X024991Y026328D01*
X024703Y026447D02*
X032459Y026447D01*
X032646Y026565D02*
X024585Y026565D01*
X024466Y026684D02*
X036516Y026684D01*
X036516Y026790D02*
X036516Y025560D01*
X036436Y025480D01*
X036388Y025363D01*
X036388Y025237D01*
X036436Y025120D01*
X036526Y025030D01*
X036643Y024982D01*
X036769Y024982D01*
X036886Y025030D01*
X036976Y025120D01*
X037024Y025237D01*
X037024Y025363D01*
X036976Y025480D01*
X036896Y025560D01*
X036896Y026790D01*
X036966Y026860D01*
X041858Y026860D01*
X041899Y026761D01*
X042042Y026618D01*
X042230Y026540D01*
X042432Y026540D01*
X042620Y026618D01*
X042763Y026761D01*
X042841Y026949D01*
X042841Y027151D01*
X042763Y027339D01*
X042620Y027482D01*
X042457Y027550D01*
X042620Y027618D01*
X042763Y027761D01*
X042841Y027949D01*
X042841Y028151D01*
X042763Y028339D01*
X042620Y028482D01*
X042479Y028541D01*
X042534Y028559D01*
X042609Y028597D01*
X042676Y028646D01*
X042735Y028705D01*
X042784Y028772D01*
X042822Y028847D01*
X042848Y028926D01*
X042861Y029008D01*
X042861Y029012D01*
X042369Y029012D01*
X042369Y029088D01*
X042861Y029088D01*
X042861Y029092D01*
X042848Y029174D01*
X042822Y029253D01*
X042784Y029328D01*
X042735Y029395D01*
X042676Y029454D01*
X042609Y029503D01*
X042534Y029541D01*
X042479Y029559D01*
X042620Y029618D01*
X042763Y029761D01*
X042841Y029949D01*
X042841Y030079D01*
X042972Y030210D01*
X043690Y030210D01*
X043991Y029909D01*
X043991Y025191D01*
X042360Y023560D01*
X042302Y023560D01*
X041274Y024588D01*
X041149Y024640D01*
X041013Y024640D01*
X040263Y024640D01*
X040138Y024588D01*
X040043Y024493D01*
X039991Y024368D01*
X039991Y024232D01*
X040043Y024107D01*
X040138Y024012D01*
X040263Y023960D01*
X040940Y023960D01*
X041821Y023079D01*
X041821Y022949D01*
X041899Y022761D01*
X042042Y022618D01*
X042183Y022559D01*
X042128Y022541D01*
X042053Y022503D01*
X041986Y022454D01*
X041927Y022395D01*
X041878Y022328D01*
X041840Y022253D01*
X041814Y022174D01*
X041801Y022092D01*
X041801Y022088D01*
X042293Y022088D01*
X042293Y022012D01*
X041801Y022012D01*
X041801Y022008D01*
X041814Y021926D01*
X041840Y021847D01*
X041878Y021772D01*
X041927Y021705D01*
X041986Y021646D01*
X042053Y021597D01*
X042128Y021559D01*
X042183Y021541D01*
X042042Y021482D01*
X041899Y021339D01*
X041821Y021151D01*
X041821Y020949D01*
X041899Y020761D01*
X042042Y020618D01*
X042205Y020550D01*
X042042Y020482D01*
X041899Y020339D01*
X041821Y020151D01*
X041821Y019949D01*
X041899Y019761D01*
X042042Y019618D01*
X042230Y019540D01*
X042432Y019540D01*
X042620Y019618D01*
X042763Y019761D01*
X042841Y019949D01*
X042841Y020151D01*
X042763Y020339D01*
X042620Y020482D01*
X042457Y020550D01*
X042620Y020618D01*
X042763Y020761D01*
X042841Y020949D01*
X042841Y021151D01*
X042763Y021339D01*
X042620Y021482D01*
X042479Y021541D01*
X042534Y021559D01*
X042609Y021597D01*
X042676Y021646D01*
X042735Y021705D01*
X042784Y021772D01*
X042822Y021847D01*
X042848Y021926D01*
X042861Y022008D01*
X042861Y022012D01*
X042369Y022012D01*
X042369Y022088D01*
X042861Y022088D01*
X042861Y022092D01*
X042848Y022174D01*
X042822Y022253D01*
X042784Y022328D01*
X042735Y022395D01*
X042676Y022454D01*
X042609Y022503D01*
X042534Y022541D01*
X042479Y022559D01*
X042620Y022618D01*
X042763Y022761D01*
X042841Y022949D01*
X042841Y023079D01*
X044524Y024762D01*
X044619Y024857D01*
X044671Y024982D01*
X044671Y030118D01*
X044619Y030243D01*
X044119Y030743D01*
X044024Y030838D01*
X043899Y030890D01*
X042763Y030890D01*
X042638Y030838D01*
X042360Y030560D01*
X042230Y030560D01*
X042042Y030482D01*
X041899Y030339D01*
X041821Y030151D01*
X041821Y029949D01*
X041899Y029761D01*
X042042Y029618D01*
X042183Y029559D01*
X042128Y029541D01*
X042053Y029503D01*
X041986Y029454D01*
X041927Y029395D01*
X041878Y029328D01*
X041840Y029253D01*
X041814Y029174D01*
X041801Y029092D01*
X041801Y029088D01*
X042293Y029088D01*
X042293Y029012D01*
X041801Y029012D01*
X041801Y029008D01*
X041814Y028926D01*
X041840Y028847D01*
X041878Y028772D01*
X041927Y028705D01*
X041986Y028646D01*
X042053Y028597D01*
X042128Y028559D01*
X042183Y028541D01*
X042042Y028482D01*
X041899Y028339D01*
X041821Y028151D01*
X041821Y027949D01*
X041899Y027761D01*
X042042Y027618D01*
X042205Y027550D01*
X042042Y027482D01*
X041899Y027339D01*
X041858Y027240D01*
X040771Y027240D01*
X040771Y027540D01*
X040851Y027620D01*
X040899Y027737D01*
X040899Y027863D01*
X040851Y027980D01*
X040761Y028070D01*
X040644Y028118D01*
X040518Y028118D01*
X040401Y028070D01*
X040311Y027980D01*
X040263Y027863D01*
X040263Y027737D01*
X040311Y027620D01*
X040391Y027540D01*
X040391Y027240D01*
X036966Y027240D01*
X036886Y027320D01*
X036769Y027368D01*
X036643Y027368D01*
X036526Y027320D01*
X036436Y027230D01*
X036388Y027113D01*
X036388Y026987D01*
X036436Y026870D01*
X036516Y026790D01*
X036504Y026802D02*
X024348Y026802D01*
X024229Y026921D02*
X036415Y026921D01*
X036388Y027039D02*
X022111Y027039D01*
X022151Y027155D02*
X022268Y027107D01*
X022394Y027107D01*
X022511Y027155D01*
X022601Y027245D01*
X022649Y027362D01*
X022649Y027488D01*
X022601Y027605D01*
X022511Y027695D01*
X022394Y027743D01*
X022282Y027743D01*
X021896Y028129D01*
X021785Y028240D01*
X018091Y028240D01*
X018011Y028320D01*
X017894Y028368D01*
X017768Y028368D01*
X017651Y028320D01*
X017561Y028230D01*
X017513Y028113D01*
X017513Y027987D01*
X014912Y027987D01*
X015030Y028106D02*
X017513Y028106D01*
X017513Y027987D02*
X017561Y027870D01*
X017651Y027780D01*
X017768Y027732D01*
X017894Y027732D01*
X018011Y027780D01*
X018091Y027860D01*
X021627Y027860D01*
X022013Y027474D01*
X022013Y027362D01*
X022061Y027245D01*
X022151Y027155D01*
X022149Y027158D02*
X021992Y027158D01*
X022048Y027276D02*
X021874Y027276D01*
X021755Y027395D02*
X022013Y027395D01*
X021974Y027513D02*
X021637Y027513D01*
X021856Y027632D02*
X014556Y027632D01*
X014675Y027750D02*
X017724Y027750D01*
X017563Y027869D02*
X014793Y027869D01*
X014493Y028106D02*
X014021Y028106D01*
X014021Y028224D02*
X014611Y028224D01*
X014730Y028343D02*
X014021Y028343D01*
X014021Y028461D02*
X014848Y028461D01*
X014967Y028580D02*
X014185Y028580D01*
X014258Y028698D02*
X015085Y028698D01*
X015204Y028817D02*
X014274Y028817D01*
X014244Y028935D02*
X015322Y028935D01*
X015441Y029054D02*
X014152Y029054D01*
X013760Y029054D02*
X013521Y029054D01*
X013521Y029172D02*
X015559Y029172D01*
X015678Y029291D02*
X013590Y029291D01*
X013709Y029409D02*
X015796Y029409D01*
X015915Y029528D02*
X013827Y029528D01*
X013527Y029765D02*
X009468Y029765D01*
X009454Y029799D02*
X009330Y029923D01*
X009168Y029990D01*
X008993Y029990D01*
X008832Y029923D01*
X008708Y029799D01*
X008641Y029638D01*
X008641Y029462D01*
X008708Y029301D01*
X008832Y029177D01*
X008993Y029110D01*
X009168Y029110D01*
X009330Y029177D01*
X009454Y029301D01*
X009521Y029462D01*
X009521Y029638D01*
X009454Y029799D01*
X009370Y029883D02*
X013645Y029883D01*
X013408Y029646D02*
X009517Y029646D01*
X009521Y029528D02*
X013290Y029528D01*
X013171Y029409D02*
X009499Y029409D01*
X009444Y029291D02*
X013141Y029291D01*
X013141Y029172D02*
X009318Y029172D01*
X009301Y028935D02*
X013141Y028935D01*
X013141Y028817D02*
X009437Y028817D01*
X009496Y028698D02*
X013141Y028698D01*
X013141Y028580D02*
X009570Y028580D01*
X009689Y028461D02*
X011624Y028461D01*
X011654Y028476D02*
X011590Y028443D01*
X011531Y028401D01*
X011480Y028350D01*
X011438Y028291D01*
X011405Y028227D01*
X011382Y028158D01*
X011372Y028090D01*
X011791Y028090D01*
X011791Y028509D01*
X011723Y028499D01*
X011654Y028476D01*
X011791Y028461D02*
X011871Y028461D01*
X011871Y028509D02*
X011871Y028090D01*
X012290Y028090D01*
X012280Y028158D01*
X012257Y028227D01*
X012224Y028291D01*
X012182Y028350D01*
X012131Y028401D01*
X012072Y028443D01*
X012008Y028476D01*
X011939Y028499D01*
X011871Y028509D01*
X011871Y028343D02*
X011791Y028343D01*
X011791Y028224D02*
X011871Y028224D01*
X011871Y028106D02*
X011791Y028106D01*
X011791Y028090D02*
X011871Y028090D01*
X011871Y028010D01*
X012290Y028010D01*
X012280Y027942D01*
X012257Y027873D01*
X012224Y027809D01*
X012182Y027750D01*
X012131Y027699D01*
X012072Y027657D01*
X012008Y027624D01*
X011939Y027601D01*
X011871Y027591D01*
X011871Y028010D01*
X011791Y028010D01*
X011791Y027591D01*
X011723Y027601D01*
X011654Y027624D01*
X011590Y027657D01*
X011531Y027699D01*
X011480Y027750D01*
X011438Y027809D01*
X011405Y027873D01*
X011382Y027942D01*
X011372Y028010D01*
X011791Y028010D01*
X011791Y028090D01*
X011791Y027987D02*
X011871Y027987D01*
X011871Y027869D02*
X011791Y027869D01*
X011791Y027750D02*
X011871Y027750D01*
X011871Y027632D02*
X011791Y027632D01*
X011639Y027632D02*
X010518Y027632D01*
X010400Y027750D02*
X011480Y027750D01*
X011407Y027869D02*
X010281Y027869D01*
X010163Y027987D02*
X011375Y027987D01*
X011374Y028106D02*
X010044Y028106D01*
X009926Y028224D02*
X011404Y028224D01*
X011475Y028343D02*
X009807Y028343D01*
X009507Y028106D02*
X008291Y028106D01*
X008291Y028224D02*
X008785Y028224D01*
X008691Y028343D02*
X008291Y028343D01*
X008291Y028461D02*
X008642Y028461D01*
X008641Y028580D02*
X008291Y028580D01*
X008291Y028698D02*
X008666Y028698D01*
X008725Y028817D02*
X008291Y028817D01*
X008291Y028935D02*
X008861Y028935D01*
X008844Y029172D02*
X008291Y029172D01*
X008291Y029054D02*
X013141Y029054D01*
X013521Y028935D02*
X013668Y028935D01*
X013638Y028817D02*
X013521Y028817D01*
X013521Y028698D02*
X013641Y028698D01*
X013641Y028580D02*
X013521Y028580D01*
X013521Y028461D02*
X013641Y028461D01*
X013641Y028343D02*
X013521Y028343D01*
X013521Y028224D02*
X013641Y028224D01*
X013641Y028106D02*
X013521Y028106D01*
X013521Y027987D02*
X013641Y027987D01*
X013641Y027869D02*
X013521Y027869D01*
X013521Y027750D02*
X013641Y027750D01*
X013641Y027632D02*
X013521Y027632D01*
X013521Y027513D02*
X013641Y027513D01*
X013641Y027395D02*
X013521Y027395D01*
X013521Y027276D02*
X013641Y027276D01*
X013641Y027158D02*
X013521Y027158D01*
X013521Y027039D02*
X013641Y027039D01*
X013641Y026921D02*
X013521Y026921D01*
X013521Y026802D02*
X013685Y026802D01*
X013804Y026684D02*
X013521Y026684D01*
X013521Y026565D02*
X013922Y026565D01*
X014041Y026447D02*
X013496Y026447D01*
X013378Y026328D02*
X015853Y026328D01*
X016309Y026328D02*
X020343Y026328D01*
X020235Y026210D02*
X013259Y026210D01*
X013271Y026091D02*
X020186Y026091D01*
X020181Y025973D02*
X013271Y025973D01*
X013226Y025854D02*
X020208Y025854D01*
X020280Y025736D02*
X013139Y025736D01*
X012523Y025736D02*
X012139Y025736D01*
X012226Y025854D02*
X012436Y025854D01*
X012391Y025973D02*
X012271Y025973D01*
X012271Y026091D02*
X012391Y026091D01*
X012403Y026210D02*
X012241Y026210D01*
X012284Y026328D02*
X012175Y026328D01*
X012466Y026684D02*
X012575Y026684D01*
X012585Y026565D02*
X013077Y026565D01*
X013087Y026684D02*
X013141Y026684D01*
X012457Y026802D02*
X012205Y026802D01*
X012254Y026921D02*
X012408Y026921D01*
X012391Y027039D02*
X012271Y027039D01*
X012263Y027158D02*
X012399Y027158D01*
X012448Y027276D02*
X012214Y027276D01*
X012109Y027395D02*
X012553Y027395D01*
X012691Y027632D02*
X012023Y027632D01*
X012182Y027750D02*
X012509Y027750D01*
X012430Y027869D02*
X012255Y027869D01*
X012287Y027987D02*
X012391Y027987D01*
X012391Y028106D02*
X012288Y028106D01*
X012258Y028224D02*
X012427Y028224D01*
X012501Y028343D02*
X012187Y028343D01*
X012037Y028461D02*
X012674Y028461D01*
X012988Y028461D02*
X013141Y028461D01*
X014021Y027987D02*
X014374Y027987D01*
X014256Y027869D02*
X014021Y027869D01*
X013141Y027632D02*
X012971Y027632D01*
X013141Y027513D02*
X010637Y027513D01*
X010755Y027395D02*
X011553Y027395D01*
X011448Y027276D02*
X010874Y027276D01*
X010992Y027158D02*
X011399Y027158D01*
X011391Y027039D02*
X011111Y027039D01*
X011229Y026921D02*
X011408Y026921D01*
X011457Y026802D02*
X011348Y026802D01*
X011047Y026565D02*
X009521Y026565D01*
X009521Y026638D02*
X009454Y026799D01*
X009330Y026923D01*
X009168Y026990D01*
X008993Y026990D01*
X008832Y026923D01*
X008708Y026799D01*
X008641Y026638D01*
X008641Y026462D01*
X008708Y026301D01*
X008832Y026177D01*
X008993Y026110D01*
X009168Y026110D01*
X009330Y026177D01*
X009454Y026301D01*
X009521Y026462D01*
X009521Y026638D01*
X009502Y026684D02*
X010929Y026684D01*
X010810Y026802D02*
X009451Y026802D01*
X009333Y026921D02*
X010692Y026921D01*
X010573Y027039D02*
X008291Y027039D01*
X008291Y026921D02*
X008829Y026921D01*
X008711Y026802D02*
X008291Y026802D01*
X008291Y026684D02*
X008660Y026684D01*
X008641Y026565D02*
X008291Y026565D01*
X008291Y026447D02*
X008648Y026447D01*
X008697Y026328D02*
X008291Y026328D01*
X008291Y026210D02*
X008799Y026210D01*
X008951Y025973D02*
X008291Y025973D01*
X008291Y026091D02*
X011391Y026091D01*
X011391Y025973D02*
X009211Y025973D01*
X009399Y025854D02*
X009991Y025854D01*
X009465Y026328D02*
X011487Y026328D01*
X011421Y026210D02*
X009363Y026210D01*
X009514Y026447D02*
X011166Y026447D01*
X010932Y025854D02*
X011436Y025854D01*
X011523Y025736D02*
X010941Y025736D01*
X010658Y025736D02*
X010653Y025736D01*
X010653Y025854D02*
X010658Y025854D01*
X010941Y025380D02*
X031392Y025380D01*
X031274Y025262D02*
X010936Y025262D01*
X009991Y025262D02*
X009415Y025262D01*
X009121Y024788D02*
X009041Y024788D01*
X009041Y024669D02*
X009121Y024669D01*
X009121Y024432D02*
X009041Y024432D01*
X009041Y024314D02*
X009121Y024314D01*
X009121Y024195D02*
X009041Y024195D01*
X008686Y024788D02*
X008291Y024788D01*
X008291Y024906D02*
X008788Y024906D01*
X008747Y025262D02*
X008291Y025262D01*
X008291Y025380D02*
X008675Y025380D01*
X008641Y025499D02*
X008291Y025499D01*
X008291Y025617D02*
X008641Y025617D01*
X008682Y025736D02*
X008291Y025736D01*
X008291Y025854D02*
X008763Y025854D01*
X008993Y027110D02*
X009168Y027110D01*
X009330Y027177D01*
X009454Y027301D01*
X009521Y027462D01*
X009521Y027638D01*
X009454Y027799D01*
X009330Y027923D01*
X009168Y027990D01*
X008993Y027990D01*
X008832Y027923D01*
X008708Y027799D01*
X008641Y027638D01*
X008641Y027462D01*
X008708Y027301D01*
X008832Y027177D01*
X008993Y027110D01*
X008879Y027158D02*
X008291Y027158D01*
X008291Y027276D02*
X008733Y027276D01*
X008669Y027395D02*
X008291Y027395D01*
X008291Y027513D02*
X008641Y027513D01*
X008641Y027632D02*
X008291Y027632D01*
X008291Y027750D02*
X008688Y027750D01*
X008777Y027869D02*
X008291Y027869D01*
X008291Y027987D02*
X008986Y027987D01*
X009176Y027987D02*
X009625Y027987D01*
X009744Y027869D02*
X009385Y027869D01*
X009474Y027750D02*
X009862Y027750D01*
X009981Y027632D02*
X009521Y027632D01*
X009521Y027513D02*
X010099Y027513D01*
X010218Y027395D02*
X009493Y027395D01*
X009429Y027276D02*
X010336Y027276D01*
X010455Y027158D02*
X009283Y027158D01*
X009377Y028224D02*
X009388Y028224D01*
X008718Y029291D02*
X008291Y029291D01*
X008291Y029409D02*
X008663Y029409D01*
X008641Y029528D02*
X008291Y029528D01*
X008291Y029646D02*
X008645Y029646D01*
X008694Y029765D02*
X008291Y029765D01*
X008291Y029883D02*
X008792Y029883D01*
X008291Y030002D02*
X027264Y030002D01*
X027382Y030120D02*
X008291Y030120D01*
X008291Y030239D02*
X027501Y030239D01*
X027619Y030357D02*
X008291Y030357D01*
X008291Y030476D02*
X027738Y030476D01*
X027856Y030594D02*
X008291Y030594D01*
X008291Y030713D02*
X027975Y030713D01*
X028093Y030831D02*
X008291Y030831D01*
X008291Y030950D02*
X010830Y030950D01*
X010762Y030978D02*
X010950Y030900D01*
X011152Y030900D01*
X011340Y030978D01*
X011483Y031121D01*
X011561Y031309D01*
X011561Y031511D01*
X011483Y031699D01*
X011340Y031842D01*
X011152Y031920D01*
X010950Y031920D01*
X010762Y031842D01*
X010619Y031699D01*
X010541Y031511D01*
X010541Y031309D01*
X010619Y031121D01*
X010762Y030978D01*
X010672Y031068D02*
X008291Y031068D01*
X008291Y031187D02*
X010592Y031187D01*
X010542Y031305D02*
X008291Y031305D01*
X008291Y031424D02*
X010541Y031424D01*
X010554Y031542D02*
X008291Y031542D01*
X008291Y031661D02*
X010603Y031661D01*
X010699Y031779D02*
X008291Y031779D01*
X009679Y031898D02*
X010895Y031898D01*
X011207Y031898D02*
X013455Y031898D01*
X013510Y031920D02*
X013322Y031842D01*
X013179Y031699D01*
X013101Y031511D01*
X013101Y031309D01*
X013179Y031121D01*
X013322Y030978D01*
X013510Y030900D01*
X013712Y030900D01*
X013900Y030978D01*
X014043Y031121D01*
X014121Y031309D01*
X014121Y031511D01*
X014043Y031699D01*
X013900Y031842D01*
X013712Y031920D01*
X013510Y031920D01*
X013767Y031898D02*
X016207Y031898D01*
X016149Y031839D02*
X016071Y031651D01*
X016071Y031449D01*
X016149Y031261D01*
X016292Y031118D01*
X016480Y031040D01*
X016682Y031040D01*
X016870Y031118D01*
X017013Y031261D01*
X017081Y031424D01*
X017149Y031261D01*
X017292Y031118D01*
X017480Y031040D01*
X017682Y031040D01*
X017870Y031118D01*
X018013Y031261D01*
X018072Y031402D01*
X018090Y031347D01*
X018128Y031272D01*
X018177Y031205D01*
X018236Y031146D01*
X018303Y031097D01*
X018378Y031059D01*
X018457Y031033D01*
X018539Y031020D01*
X018541Y031020D01*
X018541Y031510D01*
X018621Y031510D01*
X018621Y031020D01*
X018623Y031020D01*
X018705Y031033D01*
X018784Y031059D01*
X018859Y031097D01*
X018926Y031146D01*
X018985Y031205D01*
X019034Y031272D01*
X019072Y031347D01*
X019090Y031402D01*
X019149Y031261D01*
X019292Y031118D01*
X019480Y031040D01*
X019682Y031040D01*
X019870Y031118D01*
X020013Y031261D01*
X020081Y031424D01*
X020149Y031261D01*
X020292Y031118D01*
X020480Y031040D01*
X020682Y031040D01*
X020870Y031118D01*
X021013Y031261D01*
X021091Y031449D01*
X021091Y031651D01*
X021013Y031839D01*
X020870Y031982D01*
X020707Y032050D01*
X020870Y032118D01*
X021013Y032261D01*
X021091Y032449D01*
X021091Y032651D01*
X021013Y032839D01*
X020870Y032982D01*
X020682Y033060D01*
X020480Y033060D01*
X020292Y032982D01*
X020149Y032839D01*
X020081Y032676D01*
X020013Y032839D01*
X019870Y032982D01*
X019682Y033060D01*
X019480Y033060D01*
X019292Y032982D01*
X019149Y032839D01*
X019081Y032676D01*
X019013Y032839D01*
X018870Y032982D01*
X018682Y033060D01*
X018480Y033060D01*
X018292Y032982D01*
X018149Y032839D01*
X018081Y032676D01*
X018013Y032839D01*
X017870Y032982D01*
X017682Y033060D01*
X017480Y033060D01*
X017292Y032982D01*
X017149Y032839D01*
X017081Y032676D01*
X017013Y032839D01*
X016870Y032982D01*
X016682Y033060D01*
X016480Y033060D01*
X016292Y032982D01*
X016149Y032839D01*
X016071Y032651D01*
X016071Y032449D01*
X016149Y032261D01*
X016292Y032118D01*
X016455Y032050D01*
X016292Y031982D01*
X016149Y031839D01*
X016124Y031779D02*
X013963Y031779D01*
X014059Y031661D02*
X016075Y031661D01*
X016071Y031542D02*
X014108Y031542D01*
X014121Y031424D02*
X016081Y031424D01*
X016130Y031305D02*
X014120Y031305D01*
X014070Y031187D02*
X016223Y031187D01*
X016412Y031068D02*
X013990Y031068D01*
X013832Y030950D02*
X028212Y030950D01*
X028330Y031068D02*
X028000Y031068D01*
X028189Y031187D02*
X028449Y031187D01*
X028380Y031305D02*
X028282Y031305D01*
X028331Y031424D02*
X028331Y031424D01*
X027662Y031068D02*
X027053Y031068D01*
X026871Y031068D02*
X026791Y031068D01*
X026791Y031187D02*
X026871Y031187D01*
X026871Y031305D02*
X026791Y031305D01*
X026791Y031424D02*
X026871Y031424D01*
X027217Y031187D02*
X027473Y031187D01*
X027380Y031305D02*
X027301Y031305D01*
X026609Y031068D02*
X026000Y031068D01*
X026189Y031187D02*
X026445Y031187D01*
X026361Y031305D02*
X026282Y031305D01*
X025662Y031068D02*
X025000Y031068D01*
X025189Y031187D02*
X025473Y031187D01*
X025380Y031305D02*
X025282Y031305D01*
X025331Y031424D02*
X025331Y031424D01*
X024662Y031068D02*
X020750Y031068D01*
X020939Y031187D02*
X024473Y031187D01*
X024380Y031305D02*
X021032Y031305D01*
X021081Y031424D02*
X024331Y031424D01*
X024321Y031542D02*
X021091Y031542D01*
X021087Y031661D02*
X024325Y031661D01*
X024374Y031779D02*
X021038Y031779D01*
X020955Y031898D02*
X024457Y031898D01*
X024623Y032016D02*
X020788Y032016D01*
X020887Y032135D02*
X024525Y032135D01*
X024407Y032253D02*
X021005Y032253D01*
X021059Y032372D02*
X024353Y032372D01*
X024321Y032490D02*
X021091Y032490D01*
X021091Y032609D02*
X024321Y032609D01*
X024352Y032727D02*
X021060Y032727D01*
X021007Y032846D02*
X024405Y032846D01*
X024524Y032964D02*
X020888Y032964D01*
X020274Y032964D02*
X019888Y032964D01*
X020007Y032846D02*
X020155Y032846D01*
X020102Y032727D02*
X020060Y032727D01*
X019274Y032964D02*
X018888Y032964D01*
X019007Y032846D02*
X019155Y032846D01*
X019102Y032727D02*
X019060Y032727D01*
X018274Y032964D02*
X017888Y032964D01*
X018007Y032846D02*
X018155Y032846D01*
X018102Y032727D02*
X018060Y032727D01*
X017274Y032964D02*
X016888Y032964D01*
X017007Y032846D02*
X017155Y032846D01*
X017102Y032727D02*
X017060Y032727D01*
X016274Y032964D02*
X014091Y032964D01*
X014102Y032987D02*
X014128Y033066D01*
X014141Y033148D01*
X014141Y033150D01*
X013651Y033150D01*
X013651Y033230D01*
X014141Y033230D01*
X014141Y033232D01*
X014128Y033314D01*
X014102Y033393D01*
X014064Y033468D01*
X014015Y033535D01*
X013956Y033594D01*
X013889Y033643D01*
X013814Y033681D01*
X013735Y033707D01*
X013653Y033720D01*
X013651Y033720D01*
X013651Y033230D01*
X013571Y033230D01*
X013571Y033720D01*
X013569Y033720D01*
X013487Y033707D01*
X013408Y033681D01*
X013333Y033643D01*
X013266Y033594D01*
X013207Y033535D01*
X013158Y033468D01*
X013120Y033393D01*
X013094Y033314D01*
X013081Y033232D01*
X013081Y033230D01*
X013571Y033230D01*
X013571Y033150D01*
X013651Y033150D01*
X013651Y032660D01*
X013653Y032660D01*
X013735Y032673D01*
X013814Y032699D01*
X013889Y032737D01*
X013956Y032786D01*
X014015Y032845D01*
X014064Y032912D01*
X014102Y032987D01*
X014131Y033083D02*
X042195Y033083D01*
X042208Y033051D02*
X042332Y032927D01*
X042493Y032860D01*
X042668Y032860D01*
X042830Y032927D01*
X042954Y033051D01*
X043021Y033212D01*
X043021Y033388D01*
X042954Y033549D01*
X042830Y033673D01*
X042668Y033740D01*
X042493Y033740D01*
X042332Y033673D01*
X042208Y033549D01*
X042141Y033388D01*
X042141Y033212D01*
X042208Y033051D01*
X042295Y032964D02*
X037388Y032964D01*
X037370Y032982D02*
X037182Y033060D01*
X036980Y033060D01*
X036792Y032982D01*
X036649Y032839D01*
X036581Y032676D01*
X036513Y032839D01*
X036370Y032982D01*
X036182Y033060D01*
X035980Y033060D01*
X035792Y032982D01*
X035649Y032839D01*
X035581Y032676D01*
X035513Y032839D01*
X035370Y032982D01*
X035182Y033060D01*
X034980Y033060D01*
X034792Y032982D01*
X034649Y032839D01*
X034581Y032676D01*
X034513Y032839D01*
X034370Y032982D01*
X034182Y033060D01*
X033980Y033060D01*
X033792Y032982D01*
X033649Y032839D01*
X033581Y032676D01*
X033513Y032839D01*
X033370Y032982D01*
X033182Y033060D01*
X032980Y033060D01*
X032792Y032982D01*
X032649Y032839D01*
X032571Y032651D01*
X032571Y032449D01*
X032612Y032350D01*
X032391Y032129D01*
X032391Y029560D01*
X032311Y029480D01*
X032263Y029363D01*
X032263Y029237D01*
X032311Y029120D01*
X032401Y029030D01*
X032518Y028982D01*
X032644Y028982D01*
X032761Y029030D01*
X032831Y029100D01*
X032901Y029030D01*
X033018Y028982D01*
X033144Y028982D01*
X033261Y029030D01*
X033351Y029120D01*
X033399Y029237D01*
X033399Y029363D01*
X033351Y029480D01*
X033271Y029560D01*
X033271Y031077D01*
X033370Y031118D01*
X033513Y031261D01*
X033581Y031424D01*
X033649Y031261D01*
X033792Y031118D01*
X033891Y031077D01*
X033891Y029810D01*
X033811Y029730D01*
X033763Y029613D01*
X033763Y029487D01*
X033811Y029370D01*
X033901Y029280D01*
X034018Y029232D01*
X034144Y029232D01*
X034261Y029280D01*
X034351Y029370D01*
X034399Y029487D01*
X034399Y029532D01*
X034401Y029530D01*
X034518Y029482D01*
X034644Y029482D01*
X034761Y029530D01*
X034851Y029620D01*
X034899Y029737D01*
X034899Y029863D01*
X034851Y029980D01*
X034771Y030060D01*
X034771Y031120D01*
X034803Y031097D01*
X034878Y031059D01*
X034957Y031033D01*
X035039Y031020D01*
X035041Y031020D01*
X035041Y031510D01*
X035121Y031510D01*
X035121Y031020D01*
X035123Y031020D01*
X035205Y031033D01*
X035284Y031059D01*
X035359Y031097D01*
X035391Y031120D01*
X035391Y030560D01*
X035311Y030480D01*
X035263Y030363D01*
X035263Y030237D01*
X035311Y030120D01*
X034771Y030120D01*
X034771Y030239D02*
X035263Y030239D01*
X035263Y030357D02*
X034771Y030357D01*
X034771Y030476D02*
X035309Y030476D01*
X035391Y030594D02*
X034771Y030594D01*
X034771Y030713D02*
X035391Y030713D01*
X035391Y030831D02*
X034771Y030831D01*
X034771Y030950D02*
X035391Y030950D01*
X035391Y031068D02*
X035303Y031068D01*
X035121Y031068D02*
X035041Y031068D01*
X035041Y031187D02*
X035121Y031187D01*
X035121Y031305D02*
X035041Y031305D01*
X035041Y031424D02*
X035121Y031424D01*
X034859Y031068D02*
X034771Y031068D01*
X033891Y031068D02*
X033271Y031068D01*
X033271Y030950D02*
X033891Y030950D01*
X033891Y030831D02*
X033271Y030831D01*
X033271Y030713D02*
X033891Y030713D01*
X033891Y030594D02*
X033271Y030594D01*
X033271Y030476D02*
X033891Y030476D01*
X033891Y030357D02*
X033271Y030357D01*
X033271Y030239D02*
X033891Y030239D01*
X033891Y030120D02*
X033271Y030120D01*
X033271Y030002D02*
X033891Y030002D01*
X033891Y029883D02*
X033271Y029883D01*
X033271Y029765D02*
X033846Y029765D01*
X033776Y029646D02*
X033271Y029646D01*
X033303Y029528D02*
X033763Y029528D01*
X033795Y029409D02*
X033380Y029409D01*
X033399Y029291D02*
X033891Y029291D01*
X034271Y029291D02*
X041859Y029291D01*
X041814Y029172D02*
X033372Y029172D01*
X033284Y029054D02*
X042293Y029054D01*
X042369Y029054D02*
X043144Y029054D01*
X043128Y029059D02*
X043183Y029041D01*
X043042Y028982D01*
X042899Y028839D01*
X042821Y028651D01*
X042821Y028449D01*
X042899Y028261D01*
X043042Y028118D01*
X043183Y028059D01*
X043128Y028041D01*
X043053Y028003D01*
X042986Y027954D01*
X042927Y027895D01*
X042878Y027828D01*
X042840Y027753D01*
X042814Y027674D01*
X042801Y027592D01*
X042801Y027588D01*
X043293Y027588D01*
X043293Y027512D01*
X042801Y027512D01*
X042801Y027508D01*
X042814Y027426D01*
X042840Y027347D01*
X042878Y027272D01*
X042927Y027205D01*
X042986Y027146D01*
X043053Y027097D01*
X043128Y027059D01*
X043183Y027041D01*
X043042Y026982D01*
X042899Y026839D01*
X042821Y026651D01*
X042821Y026449D01*
X042862Y026350D01*
X042252Y025740D01*
X041466Y025740D01*
X041386Y025820D01*
X041269Y025868D01*
X041143Y025868D01*
X041026Y025820D01*
X040936Y025730D01*
X040888Y025613D01*
X040888Y025487D01*
X040936Y025370D01*
X041026Y025280D01*
X041143Y025232D01*
X041269Y025232D01*
X041386Y025280D01*
X041466Y025360D01*
X042410Y025360D01*
X042521Y025471D01*
X043131Y026081D01*
X043230Y026040D01*
X043432Y026040D01*
X043620Y026118D01*
X043763Y026261D01*
X043841Y026449D01*
X043841Y026651D01*
X043763Y026839D01*
X043620Y026982D01*
X043479Y027041D01*
X043534Y027059D01*
X043609Y027097D01*
X043676Y027146D01*
X043735Y027205D01*
X043784Y027272D01*
X043822Y027347D01*
X043848Y027426D01*
X043861Y027508D01*
X043861Y027512D01*
X043369Y027512D01*
X043369Y027588D01*
X043861Y027588D01*
X043861Y027592D01*
X043848Y027674D01*
X043822Y027753D01*
X043784Y027828D01*
X043735Y027895D01*
X043676Y027954D01*
X043609Y028003D01*
X043534Y028041D01*
X043479Y028059D01*
X043620Y028118D01*
X043763Y028261D01*
X043841Y028449D01*
X043841Y028651D01*
X043763Y028839D01*
X043620Y028982D01*
X043479Y029041D01*
X043534Y029059D01*
X043609Y029097D01*
X043676Y029146D01*
X043735Y029205D01*
X043784Y029272D01*
X043822Y029347D01*
X043848Y029426D01*
X043861Y029508D01*
X043861Y029512D01*
X043369Y029512D01*
X043369Y029588D01*
X043861Y029588D01*
X043861Y029592D01*
X043848Y029674D01*
X043822Y029753D01*
X043784Y029828D01*
X043735Y029895D01*
X043676Y029954D01*
X043609Y030003D01*
X043534Y030041D01*
X043455Y030067D01*
X043373Y030080D01*
X043369Y030080D01*
X043369Y029588D01*
X043293Y029588D01*
X043293Y029512D01*
X042801Y029512D01*
X042801Y029508D01*
X042814Y029426D01*
X042840Y029347D01*
X042878Y029272D01*
X042927Y029205D01*
X042986Y029146D01*
X043053Y029097D01*
X043128Y029059D01*
X042995Y028935D02*
X042849Y028935D01*
X042889Y028817D02*
X042807Y028817D01*
X042840Y028698D02*
X042729Y028698D01*
X042821Y028580D02*
X042575Y028580D01*
X042641Y028461D02*
X042821Y028461D01*
X042865Y028343D02*
X042760Y028343D01*
X042811Y028224D02*
X042936Y028224D01*
X042841Y028106D02*
X043071Y028106D01*
X043031Y027987D02*
X042841Y027987D01*
X042808Y027869D02*
X042907Y027869D01*
X042839Y027750D02*
X042752Y027750D01*
X042807Y027632D02*
X042634Y027632D01*
X042546Y027513D02*
X043293Y027513D01*
X043369Y027513D02*
X043991Y027513D01*
X043991Y027395D02*
X043838Y027395D01*
X043786Y027276D02*
X043991Y027276D01*
X043991Y027158D02*
X043688Y027158D01*
X043483Y027039D02*
X043991Y027039D01*
X043991Y026921D02*
X043682Y026921D01*
X043779Y026802D02*
X043991Y026802D01*
X043991Y026684D02*
X043828Y026684D01*
X043841Y026565D02*
X043991Y026565D01*
X043991Y026447D02*
X043840Y026447D01*
X043791Y026328D02*
X043991Y026328D01*
X043991Y026210D02*
X043712Y026210D01*
X043556Y026091D02*
X043991Y026091D01*
X043991Y025973D02*
X043022Y025973D01*
X042904Y025854D02*
X043991Y025854D01*
X043991Y025736D02*
X042785Y025736D01*
X042667Y025617D02*
X043991Y025617D01*
X043991Y025499D02*
X042548Y025499D01*
X042430Y025380D02*
X043991Y025380D01*
X043991Y025262D02*
X041341Y025262D01*
X041071Y025262D02*
X037024Y025262D01*
X037017Y025380D02*
X040932Y025380D01*
X040888Y025499D02*
X036957Y025499D01*
X036896Y025617D02*
X040889Y025617D01*
X040942Y025736D02*
X036896Y025736D01*
X036896Y025854D02*
X041109Y025854D01*
X041303Y025854D02*
X042366Y025854D01*
X042485Y025973D02*
X036896Y025973D01*
X036896Y026091D02*
X042603Y026091D01*
X042722Y026210D02*
X036896Y026210D01*
X036896Y026328D02*
X042840Y026328D01*
X042822Y026447D02*
X036896Y026447D01*
X036896Y026565D02*
X042169Y026565D01*
X041976Y026684D02*
X036896Y026684D01*
X036908Y026802D02*
X041882Y026802D01*
X041873Y027276D02*
X040771Y027276D01*
X040771Y027395D02*
X041954Y027395D01*
X042116Y027513D02*
X040771Y027513D01*
X040856Y027632D02*
X042028Y027632D01*
X041910Y027750D02*
X040899Y027750D01*
X040897Y027869D02*
X041854Y027869D01*
X041821Y027987D02*
X040844Y027987D01*
X040675Y028106D02*
X041821Y028106D01*
X041851Y028224D02*
X021801Y028224D01*
X021919Y028106D02*
X040487Y028106D01*
X040318Y027987D02*
X022038Y027987D01*
X022156Y027869D02*
X040265Y027869D01*
X040263Y027750D02*
X022275Y027750D01*
X022574Y027632D02*
X040306Y027632D01*
X040391Y027513D02*
X022639Y027513D01*
X022649Y027395D02*
X040391Y027395D01*
X040391Y027276D02*
X036930Y027276D01*
X036482Y027276D02*
X022614Y027276D01*
X022513Y027158D02*
X036406Y027158D01*
X036516Y026565D02*
X033016Y026565D01*
X033115Y026447D02*
X036516Y026447D01*
X036516Y026328D02*
X033149Y026328D01*
X033138Y026210D02*
X036516Y026210D01*
X036516Y026091D02*
X033072Y026091D01*
X032522Y025973D02*
X036516Y025973D01*
X036516Y025854D02*
X032404Y025854D01*
X032285Y025736D02*
X036516Y025736D01*
X036516Y025617D02*
X032167Y025617D01*
X032048Y025499D02*
X036455Y025499D01*
X036395Y025380D02*
X031930Y025380D01*
X031811Y025262D02*
X036388Y025262D01*
X036427Y025143D02*
X031693Y025143D01*
X031574Y025025D02*
X032606Y025025D01*
X033056Y025025D02*
X036540Y025025D01*
X036872Y025025D02*
X043825Y025025D01*
X043943Y025143D02*
X036985Y025143D01*
X036080Y023673D02*
X035918Y023740D01*
X035743Y023740D01*
X035582Y023673D01*
X035458Y023549D01*
X035391Y023388D01*
X035391Y023212D01*
X035458Y023051D01*
X035582Y022927D01*
X035743Y022860D01*
X035918Y022860D01*
X036080Y022927D01*
X036204Y023051D01*
X036271Y023212D01*
X036271Y023388D01*
X036204Y023549D01*
X036080Y023673D01*
X036151Y023603D02*
X041298Y023603D01*
X041179Y023721D02*
X035964Y023721D01*
X035698Y023721D02*
X034964Y023721D01*
X034918Y023740D02*
X034743Y023740D01*
X034582Y023673D01*
X034458Y023549D01*
X034391Y023388D01*
X034391Y023212D01*
X034458Y023051D01*
X034582Y022927D01*
X034743Y022860D01*
X034918Y022860D01*
X035080Y022927D01*
X035204Y023051D01*
X035271Y023212D01*
X035271Y023388D01*
X035204Y023549D01*
X035080Y023673D01*
X034918Y023740D01*
X034698Y023721D02*
X033964Y023721D01*
X033918Y023740D02*
X033743Y023740D01*
X033582Y023673D01*
X033458Y023549D01*
X033391Y023388D01*
X033391Y023212D01*
X033458Y023051D01*
X033582Y022927D01*
X033743Y022860D01*
X033918Y022860D01*
X034080Y022927D01*
X034204Y023051D01*
X034271Y023212D01*
X034271Y023388D01*
X034204Y023549D01*
X034080Y023673D01*
X033918Y023740D01*
X033698Y023721D02*
X027771Y023721D01*
X027889Y023840D02*
X041061Y023840D01*
X040942Y023958D02*
X028008Y023958D01*
X028126Y024077D02*
X040074Y024077D01*
X040006Y024195D02*
X028245Y024195D01*
X028363Y024314D02*
X039991Y024314D01*
X040018Y024432D02*
X028482Y024432D01*
X028600Y024551D02*
X032631Y024551D01*
X033031Y024551D02*
X040101Y024551D01*
X041311Y024551D02*
X043351Y024551D01*
X043469Y024669D02*
X033121Y024669D01*
X033149Y024788D02*
X043588Y024788D01*
X043706Y024906D02*
X033131Y024906D01*
X033511Y023603D02*
X027652Y023603D01*
X027534Y023484D02*
X033431Y023484D01*
X033391Y023366D02*
X027415Y023366D01*
X027297Y023247D02*
X033391Y023247D01*
X033426Y023129D02*
X027178Y023129D01*
X027060Y023010D02*
X033499Y023010D01*
X033667Y022892D02*
X026941Y022892D01*
X026823Y022773D02*
X041894Y022773D01*
X041845Y022892D02*
X035995Y022892D01*
X036163Y023010D02*
X041821Y023010D01*
X041772Y023129D02*
X036236Y023129D01*
X036271Y023247D02*
X041653Y023247D01*
X041535Y023366D02*
X036271Y023366D01*
X036231Y023484D02*
X041416Y023484D01*
X041904Y023958D02*
X042758Y023958D01*
X042640Y023840D02*
X042022Y023840D01*
X042141Y023721D02*
X042521Y023721D01*
X042403Y023603D02*
X042259Y023603D01*
X041785Y024077D02*
X042877Y024077D01*
X042995Y024195D02*
X041667Y024195D01*
X041548Y024314D02*
X043114Y024314D01*
X043232Y024432D02*
X041430Y024432D01*
X042890Y023129D02*
X045151Y023129D01*
X045161Y023103D02*
X045384Y022880D01*
X045674Y022760D01*
X045988Y022760D01*
X046278Y022880D01*
X046501Y023103D01*
X046621Y023393D01*
X046621Y023707D01*
X046501Y023997D01*
X046278Y024220D01*
X045988Y024340D01*
X045674Y024340D01*
X045384Y024220D01*
X045161Y023997D01*
X045041Y023707D01*
X045041Y023393D01*
X045161Y023103D01*
X045254Y023010D02*
X043596Y023010D01*
X043609Y023003D02*
X043534Y023041D01*
X043455Y023067D01*
X043373Y023080D01*
X043369Y023080D01*
X043369Y022588D01*
X043861Y022588D01*
X043861Y022592D01*
X043848Y022674D01*
X043822Y022753D01*
X043784Y022828D01*
X043735Y022895D01*
X043676Y022954D01*
X043609Y023003D01*
X043738Y022892D02*
X045372Y022892D01*
X045643Y022773D02*
X043812Y022773D01*
X043851Y022655D02*
X047121Y022655D01*
X047121Y022773D02*
X046019Y022773D01*
X046290Y022892D02*
X047121Y022892D01*
X047121Y023010D02*
X046408Y023010D01*
X046511Y023129D02*
X047121Y023129D01*
X047121Y023247D02*
X046560Y023247D01*
X046610Y023366D02*
X047121Y023366D01*
X047121Y023484D02*
X046621Y023484D01*
X046621Y023603D02*
X047121Y023603D01*
X047121Y023721D02*
X046615Y023721D01*
X046566Y023840D02*
X047121Y023840D01*
X047121Y023958D02*
X046517Y023958D01*
X046422Y024077D02*
X047121Y024077D01*
X047121Y024195D02*
X046303Y024195D01*
X046052Y024314D02*
X047121Y024314D01*
X047121Y024432D02*
X044194Y024432D01*
X044312Y024551D02*
X047121Y024551D01*
X047121Y024669D02*
X044431Y024669D01*
X044549Y024788D02*
X047121Y024788D01*
X047121Y024906D02*
X044639Y024906D01*
X044671Y025025D02*
X047121Y025025D01*
X047121Y025143D02*
X044671Y025143D01*
X044671Y025262D02*
X045670Y025262D01*
X045674Y025260D02*
X045988Y025260D01*
X046278Y025380D01*
X047121Y025380D01*
X047121Y025262D02*
X045992Y025262D01*
X046278Y025380D02*
X046501Y025603D01*
X046621Y025893D01*
X046621Y026207D01*
X046501Y026497D01*
X046278Y026720D01*
X045988Y026840D01*
X045674Y026840D01*
X045384Y026720D01*
X045161Y026497D01*
X045041Y026207D01*
X045041Y025893D01*
X045161Y025603D01*
X045384Y025380D01*
X044671Y025380D01*
X044671Y025499D02*
X045265Y025499D01*
X045155Y025617D02*
X044671Y025617D01*
X044671Y025736D02*
X045106Y025736D01*
X045057Y025854D02*
X044671Y025854D01*
X044671Y025973D02*
X045041Y025973D01*
X045041Y026091D02*
X044671Y026091D01*
X044671Y026210D02*
X045042Y026210D01*
X045091Y026328D02*
X044671Y026328D01*
X044671Y026447D02*
X045140Y026447D01*
X045229Y026565D02*
X044671Y026565D01*
X044671Y026684D02*
X045347Y026684D01*
X045582Y026802D02*
X044671Y026802D01*
X044671Y026921D02*
X047121Y026921D01*
X047121Y027039D02*
X044671Y027039D01*
X044671Y027158D02*
X047121Y027158D01*
X047121Y027276D02*
X044671Y027276D01*
X044671Y027395D02*
X047121Y027395D01*
X047121Y027513D02*
X044671Y027513D01*
X044671Y027632D02*
X047121Y027632D01*
X047121Y027750D02*
X044671Y027750D01*
X044671Y027869D02*
X047121Y027869D01*
X047121Y027987D02*
X044671Y027987D01*
X044671Y028106D02*
X047121Y028106D01*
X047121Y028224D02*
X044671Y028224D01*
X044671Y028343D02*
X047121Y028343D01*
X047121Y028461D02*
X044671Y028461D01*
X044671Y028580D02*
X047121Y028580D01*
X047121Y028698D02*
X044671Y028698D01*
X044671Y028817D02*
X047121Y028817D01*
X047121Y028935D02*
X044671Y028935D01*
X044671Y029054D02*
X047121Y029054D01*
X047121Y029172D02*
X044671Y029172D01*
X044671Y029291D02*
X047121Y029291D01*
X047121Y029409D02*
X044671Y029409D01*
X044671Y029528D02*
X047121Y029528D01*
X047121Y029646D02*
X044671Y029646D01*
X044671Y029765D02*
X045663Y029765D01*
X045674Y029760D02*
X045988Y029760D01*
X046278Y029880D01*
X046501Y030103D01*
X046621Y030393D01*
X046621Y030707D01*
X046501Y030997D01*
X046278Y031220D01*
X045988Y031340D01*
X045674Y031340D01*
X045384Y031220D01*
X045161Y030997D01*
X045041Y030707D01*
X045041Y030393D01*
X045161Y030103D01*
X045384Y029880D01*
X045674Y029760D01*
X045381Y029883D02*
X044671Y029883D01*
X044671Y030002D02*
X045262Y030002D01*
X045154Y030120D02*
X044670Y030120D01*
X044621Y030239D02*
X045105Y030239D01*
X045056Y030357D02*
X044505Y030357D01*
X044386Y030476D02*
X045041Y030476D01*
X045041Y030594D02*
X044268Y030594D01*
X044149Y030713D02*
X045043Y030713D01*
X045092Y030831D02*
X044031Y030831D01*
X043780Y030120D02*
X042882Y030120D01*
X042841Y030002D02*
X043051Y030002D01*
X043053Y030003D02*
X042986Y029954D01*
X042927Y029895D01*
X042878Y029828D01*
X042840Y029753D01*
X042814Y029674D01*
X042801Y029592D01*
X042801Y029588D01*
X043293Y029588D01*
X043293Y030080D01*
X043289Y030080D01*
X043207Y030067D01*
X043128Y030041D01*
X043053Y030003D01*
X042918Y029883D02*
X042814Y029883D01*
X042845Y029765D02*
X042765Y029765D01*
X042810Y029646D02*
X042648Y029646D01*
X042561Y029528D02*
X043293Y029528D01*
X043369Y029528D02*
X043991Y029528D01*
X043991Y029646D02*
X043852Y029646D01*
X043816Y029765D02*
X043991Y029765D01*
X043991Y029883D02*
X043744Y029883D01*
X043611Y030002D02*
X043899Y030002D01*
X043369Y030002D02*
X043293Y030002D01*
X043293Y029883D02*
X043369Y029883D01*
X043369Y029765D02*
X043293Y029765D01*
X043293Y029646D02*
X043369Y029646D01*
X043842Y029409D02*
X043991Y029409D01*
X043991Y029291D02*
X043794Y029291D01*
X043703Y029172D02*
X043991Y029172D01*
X043991Y029054D02*
X043518Y029054D01*
X043667Y028935D02*
X043991Y028935D01*
X043991Y028817D02*
X043773Y028817D01*
X043822Y028698D02*
X043991Y028698D01*
X043991Y028580D02*
X043841Y028580D01*
X043841Y028461D02*
X043991Y028461D01*
X043991Y028343D02*
X043797Y028343D01*
X043726Y028224D02*
X043991Y028224D01*
X043991Y028106D02*
X043591Y028106D01*
X043631Y027987D02*
X043991Y027987D01*
X043991Y027869D02*
X043755Y027869D01*
X043823Y027750D02*
X043991Y027750D01*
X043991Y027632D02*
X043855Y027632D01*
X043179Y027039D02*
X042841Y027039D01*
X042838Y027158D02*
X042974Y027158D01*
X042876Y027276D02*
X042789Y027276D01*
X042824Y027395D02*
X042708Y027395D01*
X042829Y026921D02*
X042980Y026921D01*
X042883Y026802D02*
X042780Y026802D01*
X042834Y026684D02*
X042686Y026684D01*
X042821Y026565D02*
X042493Y026565D01*
X041902Y028343D02*
X017956Y028343D01*
X017706Y028343D02*
X015267Y028343D01*
X015386Y028461D02*
X042021Y028461D01*
X042087Y028580D02*
X015504Y028580D01*
X015623Y028698D02*
X041933Y028698D01*
X041855Y028817D02*
X015741Y028817D01*
X015860Y028935D02*
X041813Y028935D01*
X041940Y029409D02*
X034367Y029409D01*
X034399Y029528D02*
X034407Y029528D01*
X034754Y029528D02*
X042101Y029528D01*
X042014Y029646D02*
X034862Y029646D01*
X034899Y029765D02*
X041897Y029765D01*
X041848Y029883D02*
X034891Y029883D01*
X034829Y030002D02*
X035470Y030002D01*
X035518Y029982D02*
X035644Y029982D01*
X035761Y030030D01*
X035831Y030100D01*
X035901Y030030D01*
X036018Y029982D01*
X036144Y029982D01*
X036261Y030030D01*
X036351Y030120D01*
X041821Y030120D01*
X041821Y030002D02*
X036192Y030002D01*
X036351Y030120D02*
X036399Y030237D01*
X036399Y030363D01*
X036351Y030480D01*
X036271Y030560D01*
X036271Y031077D01*
X036370Y031118D01*
X036513Y031261D01*
X036581Y031424D01*
X036649Y031261D01*
X036792Y031118D01*
X036980Y031040D01*
X037182Y031040D01*
X037370Y031118D01*
X037513Y031261D01*
X037591Y031449D01*
X037591Y031651D01*
X037513Y031839D01*
X037370Y031982D01*
X037207Y032050D01*
X037370Y032118D01*
X037513Y032261D01*
X037591Y032449D01*
X037591Y032651D01*
X037513Y032839D01*
X037370Y032982D01*
X037507Y032846D02*
X045081Y032846D01*
X045081Y032964D02*
X043867Y032964D01*
X043830Y032927D02*
X043954Y033051D01*
X044021Y033212D01*
X044021Y033388D01*
X043954Y033549D01*
X043830Y033673D01*
X043668Y033740D01*
X043493Y033740D01*
X043332Y033673D01*
X043208Y033549D01*
X043141Y033388D01*
X043141Y033212D01*
X043208Y033051D01*
X043332Y032927D01*
X043493Y032860D01*
X043668Y032860D01*
X043830Y032927D01*
X043967Y033083D02*
X045081Y033083D01*
X045081Y033201D02*
X044016Y033201D01*
X044021Y033320D02*
X045081Y033320D01*
X045081Y033438D02*
X044000Y033438D01*
X043947Y033557D02*
X045081Y033557D01*
X045081Y033675D02*
X043825Y033675D01*
X043337Y033675D02*
X042825Y033675D01*
X042947Y033557D02*
X043215Y033557D01*
X043162Y033438D02*
X043000Y033438D01*
X043021Y033320D02*
X043141Y033320D01*
X043146Y033201D02*
X043016Y033201D01*
X042967Y033083D02*
X043195Y033083D01*
X043295Y032964D02*
X042867Y032964D01*
X042700Y032727D02*
X043462Y032727D01*
X043493Y032740D02*
X043332Y032673D01*
X043208Y032549D01*
X043141Y032388D01*
X043141Y032212D01*
X043208Y032051D01*
X043332Y031927D01*
X043493Y031860D01*
X043668Y031860D01*
X043830Y031927D01*
X043954Y032051D01*
X044021Y032212D01*
X044021Y032388D01*
X043954Y032549D01*
X043830Y032673D01*
X043668Y032740D01*
X043493Y032740D01*
X043700Y032727D02*
X045081Y032727D01*
X045081Y032609D02*
X043895Y032609D01*
X043978Y032490D02*
X045141Y032490D01*
X045259Y032372D02*
X044021Y032372D01*
X044021Y032253D02*
X045378Y032253D01*
X045496Y032135D02*
X043989Y032135D01*
X043919Y032016D02*
X045615Y032016D01*
X045733Y031898D02*
X043759Y031898D01*
X043403Y031898D02*
X042759Y031898D01*
X042830Y031927D02*
X042954Y032051D01*
X043021Y032212D01*
X043021Y032388D01*
X042954Y032549D01*
X042830Y032673D01*
X042668Y032740D01*
X042493Y032740D01*
X042332Y032673D01*
X042208Y032549D01*
X042141Y032388D01*
X042141Y032212D01*
X042208Y032051D01*
X042332Y031927D01*
X042493Y031860D01*
X042668Y031860D01*
X042830Y031927D01*
X042919Y032016D02*
X043243Y032016D01*
X043173Y032135D02*
X042989Y032135D01*
X043021Y032253D02*
X043141Y032253D01*
X043141Y032372D02*
X043021Y032372D01*
X042978Y032490D02*
X043183Y032490D01*
X043267Y032609D02*
X042895Y032609D01*
X042462Y032727D02*
X037560Y032727D01*
X037591Y032609D02*
X042267Y032609D01*
X042183Y032490D02*
X037591Y032490D01*
X037559Y032372D02*
X042141Y032372D01*
X042141Y032253D02*
X037505Y032253D01*
X037387Y032135D02*
X042173Y032135D01*
X042243Y032016D02*
X037288Y032016D01*
X037455Y031898D02*
X042403Y031898D01*
X042631Y030831D02*
X036271Y030831D01*
X036271Y030713D02*
X042513Y030713D01*
X042394Y030594D02*
X036271Y030594D01*
X036353Y030476D02*
X042035Y030476D01*
X041917Y030357D02*
X036399Y030357D01*
X036399Y030239D02*
X041857Y030239D01*
X042721Y029409D02*
X042819Y029409D01*
X042803Y029291D02*
X042868Y029291D01*
X042848Y029172D02*
X042959Y029172D01*
X045141Y030950D02*
X036271Y030950D01*
X036271Y031068D02*
X036912Y031068D01*
X036723Y031187D02*
X036439Y031187D01*
X036532Y031305D02*
X036630Y031305D01*
X036581Y031424D02*
X036581Y031424D01*
X037250Y031068D02*
X045232Y031068D01*
X045350Y031187D02*
X037439Y031187D01*
X037532Y031305D02*
X045590Y031305D01*
X046072Y031305D02*
X047121Y031305D01*
X047121Y031187D02*
X046312Y031187D01*
X046430Y031068D02*
X047121Y031068D01*
X047121Y030950D02*
X046520Y030950D01*
X046570Y030831D02*
X047121Y030831D01*
X047121Y030713D02*
X046619Y030713D01*
X046621Y030594D02*
X047121Y030594D01*
X047121Y030476D02*
X046621Y030476D01*
X046606Y030357D02*
X047121Y030357D01*
X047121Y030239D02*
X046557Y030239D01*
X046508Y030120D02*
X047121Y030120D01*
X047121Y030002D02*
X046400Y030002D01*
X046281Y029883D02*
X047121Y029883D01*
X047121Y029765D02*
X045999Y029765D01*
X047121Y031424D02*
X037581Y031424D01*
X037591Y031542D02*
X047121Y031542D01*
X047121Y031661D02*
X037587Y031661D01*
X037538Y031779D02*
X047121Y031779D01*
X045081Y033794D02*
X010331Y033794D01*
X010331Y033675D02*
X010836Y033675D01*
X010848Y033681D02*
X010773Y033643D01*
X010706Y033594D01*
X010647Y033535D01*
X010598Y033468D01*
X010560Y033393D01*
X010534Y033314D01*
X010521Y033232D01*
X010521Y033230D01*
X011011Y033230D01*
X011011Y033720D01*
X011009Y033720D01*
X010927Y033707D01*
X010848Y033681D01*
X011011Y033675D02*
X011091Y033675D01*
X011091Y033720D02*
X011091Y033230D01*
X011581Y033230D01*
X011581Y033232D01*
X011568Y033314D01*
X011542Y033393D01*
X011504Y033468D01*
X011455Y033535D01*
X011396Y033594D01*
X011329Y033643D01*
X011254Y033681D01*
X011175Y033707D01*
X011093Y033720D01*
X011091Y033720D01*
X011091Y033557D02*
X011011Y033557D01*
X011011Y033438D02*
X011091Y033438D01*
X011091Y033320D02*
X011011Y033320D01*
X011011Y033230D02*
X011091Y033230D01*
X011091Y033150D01*
X011581Y033150D01*
X011581Y033148D01*
X011568Y033066D01*
X011542Y032987D01*
X011504Y032912D01*
X011455Y032845D01*
X011396Y032786D01*
X011329Y032737D01*
X011254Y032699D01*
X011175Y032673D01*
X011093Y032660D01*
X011091Y032660D01*
X011091Y033150D01*
X011011Y033150D01*
X011011Y032660D01*
X011009Y032660D01*
X010927Y032673D01*
X010848Y032699D01*
X010773Y032737D01*
X010706Y032786D01*
X010647Y032845D01*
X010598Y032912D01*
X010560Y032987D01*
X010534Y033066D01*
X010521Y033148D01*
X010521Y033150D01*
X011011Y033150D01*
X011011Y033230D01*
X011011Y033201D02*
X010331Y033201D01*
X010331Y033083D02*
X010531Y033083D01*
X010571Y032964D02*
X010331Y032964D01*
X010331Y032846D02*
X010646Y032846D01*
X010792Y032727D02*
X010331Y032727D01*
X010331Y032609D02*
X016071Y032609D01*
X016071Y032490D02*
X010271Y032490D01*
X010153Y032372D02*
X016103Y032372D01*
X016157Y032253D02*
X010034Y032253D01*
X009916Y032135D02*
X016275Y032135D01*
X016373Y032016D02*
X009797Y032016D01*
X011011Y032727D02*
X011091Y032727D01*
X011091Y032846D02*
X011011Y032846D01*
X011011Y032964D02*
X011091Y032964D01*
X011091Y033083D02*
X011011Y033083D01*
X011091Y033201D02*
X013571Y033201D01*
X013571Y033150D02*
X013081Y033150D01*
X013081Y033148D01*
X013094Y033066D01*
X013120Y032987D01*
X013158Y032912D01*
X013207Y032845D01*
X013266Y032786D01*
X013333Y032737D01*
X013408Y032699D01*
X013487Y032673D01*
X013569Y032660D01*
X013571Y032660D01*
X013571Y033150D01*
X013571Y033083D02*
X013651Y033083D01*
X013651Y033201D02*
X042146Y033201D01*
X042141Y033320D02*
X014126Y033320D01*
X014079Y033438D02*
X042162Y033438D01*
X042215Y033557D02*
X013994Y033557D01*
X013826Y033675D02*
X042337Y033675D01*
X036774Y032964D02*
X036388Y032964D01*
X036507Y032846D02*
X036655Y032846D01*
X036602Y032727D02*
X036560Y032727D01*
X035774Y032964D02*
X035388Y032964D01*
X035507Y032846D02*
X035655Y032846D01*
X035602Y032727D02*
X035560Y032727D01*
X034774Y032964D02*
X034388Y032964D01*
X034507Y032846D02*
X034655Y032846D01*
X034602Y032727D02*
X034560Y032727D01*
X033774Y032964D02*
X033388Y032964D01*
X033507Y032846D02*
X033655Y032846D01*
X033602Y032727D02*
X033560Y032727D01*
X032774Y032964D02*
X029138Y032964D01*
X029257Y032846D02*
X032655Y032846D01*
X032602Y032727D02*
X029310Y032727D01*
X029341Y032609D02*
X032571Y032609D01*
X032571Y032490D02*
X029341Y032490D01*
X029309Y032372D02*
X032603Y032372D01*
X032515Y032253D02*
X029397Y032253D01*
X029515Y032135D02*
X032397Y032135D01*
X032391Y032016D02*
X029521Y032016D01*
X029521Y031898D02*
X032391Y031898D01*
X032391Y031779D02*
X029521Y031779D01*
X029521Y031661D02*
X032391Y031661D01*
X032391Y031542D02*
X029521Y031542D01*
X029521Y031424D02*
X032391Y031424D01*
X032391Y031305D02*
X029521Y031305D01*
X029486Y031187D02*
X032391Y031187D01*
X032391Y031068D02*
X029368Y031068D01*
X029249Y030950D02*
X032391Y030950D01*
X032391Y030831D02*
X029131Y030831D01*
X029012Y030713D02*
X032391Y030713D01*
X032391Y030594D02*
X028894Y030594D01*
X028775Y030476D02*
X032391Y030476D01*
X032391Y030357D02*
X028657Y030357D01*
X028538Y030239D02*
X032391Y030239D01*
X032391Y030120D02*
X028420Y030120D01*
X028301Y030002D02*
X032391Y030002D01*
X032391Y029883D02*
X028183Y029883D01*
X028064Y029765D02*
X032391Y029765D01*
X032391Y029646D02*
X027946Y029646D01*
X027827Y029528D02*
X032359Y029528D01*
X032282Y029409D02*
X027709Y029409D01*
X027352Y032727D02*
X027310Y032727D01*
X027257Y032846D02*
X027405Y032846D01*
X027524Y032964D02*
X027138Y032964D01*
X026524Y032964D02*
X026138Y032964D01*
X026257Y032846D02*
X026405Y032846D01*
X026352Y032727D02*
X026310Y032727D01*
X025524Y032964D02*
X025138Y032964D01*
X025257Y032846D02*
X025405Y032846D01*
X025352Y032727D02*
X025310Y032727D01*
X028138Y032964D02*
X028524Y032964D01*
X028405Y032846D02*
X028257Y032846D01*
X028310Y032727D02*
X028352Y032727D01*
X032263Y029291D02*
X016215Y029291D01*
X016097Y029172D02*
X032290Y029172D01*
X032378Y029054D02*
X015978Y029054D01*
X015149Y028224D02*
X017559Y028224D01*
X017938Y027750D02*
X021737Y027750D01*
X021455Y027158D02*
X014582Y027158D01*
X014524Y027039D02*
X021573Y027039D01*
X021692Y026921D02*
X014497Y026921D01*
X014408Y026802D02*
X015883Y026802D01*
X016279Y026802D02*
X021810Y026802D01*
X021929Y026684D02*
X016370Y026684D01*
X016399Y026565D02*
X024047Y026565D01*
X024166Y026447D02*
X016382Y026447D01*
X013141Y027395D02*
X013109Y027395D01*
X013390Y030950D02*
X011272Y030950D01*
X011430Y031068D02*
X013232Y031068D01*
X013152Y031187D02*
X011510Y031187D01*
X011560Y031305D02*
X013102Y031305D01*
X013101Y031424D02*
X011561Y031424D01*
X011548Y031542D02*
X013114Y031542D01*
X013163Y031661D02*
X011499Y031661D01*
X011403Y031779D02*
X013259Y031779D01*
X013352Y032727D02*
X011310Y032727D01*
X011456Y032846D02*
X013206Y032846D01*
X013131Y032964D02*
X011531Y032964D01*
X011571Y033083D02*
X013091Y033083D01*
X013096Y033320D02*
X011566Y033320D01*
X011519Y033438D02*
X013143Y033438D01*
X013228Y033557D02*
X011434Y033557D01*
X011266Y033675D02*
X013396Y033675D01*
X013571Y033675D02*
X013651Y033675D01*
X013651Y033557D02*
X013571Y033557D01*
X013571Y033438D02*
X013651Y033438D01*
X013651Y033320D02*
X013571Y033320D01*
X013571Y032964D02*
X013651Y032964D01*
X013651Y032846D02*
X013571Y032846D01*
X013571Y032727D02*
X013651Y032727D01*
X013870Y032727D02*
X016102Y032727D01*
X016155Y032846D02*
X014016Y032846D01*
X016750Y031068D02*
X017412Y031068D01*
X017223Y031187D02*
X016939Y031187D01*
X017032Y031305D02*
X017130Y031305D01*
X017081Y031424D02*
X017081Y031424D01*
X017750Y031068D02*
X018359Y031068D01*
X018541Y031068D02*
X018621Y031068D01*
X018621Y031187D02*
X018541Y031187D01*
X018541Y031305D02*
X018621Y031305D01*
X018621Y031424D02*
X018541Y031424D01*
X018195Y031187D02*
X017939Y031187D01*
X018032Y031305D02*
X018111Y031305D01*
X018803Y031068D02*
X019412Y031068D01*
X019223Y031187D02*
X018967Y031187D01*
X019051Y031305D02*
X019130Y031305D01*
X019750Y031068D02*
X020412Y031068D01*
X020223Y031187D02*
X019939Y031187D01*
X020032Y031305D02*
X020130Y031305D01*
X020081Y031424D02*
X020081Y031424D01*
X020819Y026328D02*
X024284Y026328D01*
X024403Y026210D02*
X020927Y026210D01*
X020976Y026091D02*
X024513Y026091D01*
X024519Y025973D02*
X020981Y025973D01*
X020953Y025854D02*
X024577Y025854D01*
X026704Y022655D02*
X042005Y022655D01*
X042117Y022536D02*
X026586Y022536D01*
X026467Y022418D02*
X041949Y022418D01*
X041863Y022299D02*
X026349Y022299D01*
X026230Y022181D02*
X041816Y022181D01*
X041811Y021944D02*
X038890Y021944D01*
X038921Y021825D02*
X041851Y021825D01*
X041925Y021707D02*
X038921Y021707D01*
X038921Y021588D02*
X042070Y021588D01*
X042029Y021470D02*
X038921Y021470D01*
X038921Y021351D02*
X041911Y021351D01*
X041855Y021233D02*
X038921Y021233D01*
X038921Y021114D02*
X041821Y021114D01*
X041821Y020996D02*
X038921Y020996D01*
X038921Y020877D02*
X041851Y020877D01*
X041901Y020759D02*
X038921Y020759D01*
X038921Y020640D02*
X042020Y020640D01*
X042137Y020522D02*
X038921Y020522D01*
X038921Y020403D02*
X041963Y020403D01*
X041876Y020285D02*
X038921Y020285D01*
X038921Y020166D02*
X041827Y020166D01*
X041821Y020048D02*
X038921Y020048D01*
X038921Y019929D02*
X041829Y019929D01*
X041878Y019811D02*
X038921Y019811D01*
X038921Y019692D02*
X041968Y019692D01*
X042149Y019574D02*
X038921Y019574D01*
X038921Y019455D02*
X042821Y019455D01*
X042821Y019449D02*
X042899Y019261D01*
X043042Y019118D01*
X043230Y019040D01*
X043432Y019040D01*
X043620Y019118D01*
X043763Y019261D01*
X043841Y019449D01*
X043841Y019651D01*
X043763Y019839D01*
X043620Y019982D01*
X043479Y020041D01*
X043534Y020059D01*
X043609Y020097D01*
X043676Y020146D01*
X043735Y020205D01*
X043784Y020272D01*
X043822Y020347D01*
X043848Y020426D01*
X043861Y020508D01*
X043861Y020512D01*
X043369Y020512D01*
X043369Y020588D01*
X043861Y020588D01*
X043861Y020592D01*
X043848Y020674D01*
X043822Y020753D01*
X043784Y020828D01*
X043735Y020895D01*
X043676Y020954D01*
X043609Y021003D01*
X043534Y021041D01*
X043479Y021059D01*
X043620Y021118D01*
X043763Y021261D01*
X043804Y021360D01*
X043910Y021360D01*
X044282Y021732D01*
X044394Y021732D01*
X044511Y021780D01*
X044601Y021870D01*
X044649Y021987D01*
X044649Y022113D01*
X044601Y022230D01*
X044511Y022320D01*
X044394Y022368D01*
X044268Y022368D01*
X044151Y022320D01*
X044061Y022230D01*
X044013Y022113D01*
X044013Y022001D01*
X043789Y021777D01*
X043763Y021839D01*
X043620Y021982D01*
X043479Y022041D01*
X043534Y022059D01*
X043609Y022097D01*
X043676Y022146D01*
X043735Y022205D01*
X043784Y022272D01*
X043822Y022347D01*
X043848Y022426D01*
X043861Y022508D01*
X043861Y022512D01*
X043369Y022512D01*
X043369Y022588D01*
X043293Y022588D01*
X043293Y022512D01*
X042801Y022512D01*
X042801Y022508D01*
X042814Y022426D01*
X042840Y022347D01*
X042878Y022272D01*
X042927Y022205D01*
X042986Y022146D01*
X043053Y022097D01*
X043128Y022059D01*
X043183Y022041D01*
X043042Y021982D01*
X042899Y021839D01*
X042821Y021651D01*
X042821Y021449D01*
X042899Y021261D01*
X043042Y021118D01*
X043183Y021059D01*
X043128Y021041D01*
X043053Y021003D01*
X042986Y020954D01*
X042927Y020895D01*
X042878Y020828D01*
X042840Y020753D01*
X042814Y020674D01*
X042801Y020592D01*
X042801Y020588D01*
X043293Y020588D01*
X043293Y020512D01*
X042801Y020512D01*
X042801Y020508D01*
X042814Y020426D01*
X042840Y020347D01*
X042878Y020272D01*
X042927Y020205D01*
X042986Y020146D01*
X043053Y020097D01*
X043128Y020059D01*
X043183Y020041D01*
X043042Y019982D01*
X042899Y019839D01*
X042821Y019651D01*
X042821Y019449D01*
X042867Y019337D02*
X038921Y019337D01*
X038921Y019218D02*
X042942Y019218D01*
X043086Y019100D02*
X038921Y019100D01*
X038921Y018981D02*
X045041Y018981D01*
X045041Y018893D02*
X045161Y018603D01*
X045384Y018380D01*
X045674Y018260D01*
X045988Y018260D01*
X046278Y018380D01*
X046501Y018603D01*
X046621Y018893D01*
X046621Y019207D01*
X046501Y019497D01*
X046278Y019720D01*
X045988Y019840D01*
X045674Y019840D01*
X045384Y019720D01*
X045161Y019497D01*
X045041Y019207D01*
X045041Y018893D01*
X045054Y018863D02*
X038921Y018863D01*
X038921Y018744D02*
X045103Y018744D01*
X045152Y018626D02*
X038921Y018626D01*
X038921Y018507D02*
X045257Y018507D01*
X045375Y018389D02*
X038921Y018389D01*
X038921Y018270D02*
X045650Y018270D01*
X046012Y018270D02*
X047121Y018270D01*
X047121Y018152D02*
X038921Y018152D01*
X038921Y018033D02*
X047121Y018033D01*
X047121Y017915D02*
X038921Y017915D01*
X038921Y017796D02*
X043650Y017796D01*
X043629Y017786D02*
X043533Y017725D01*
X043444Y017655D01*
X043364Y017574D01*
X043293Y017486D01*
X043233Y017390D01*
X043184Y017288D01*
X043146Y017180D01*
X043121Y017070D01*
X043109Y016960D01*
X044058Y016960D01*
X044058Y016840D01*
X044178Y016840D01*
X044178Y015891D01*
X044288Y015903D01*
X044398Y015928D01*
X044505Y015966D01*
X044608Y016015D01*
X044704Y016075D01*
X044792Y016146D01*
X044873Y016226D01*
X044943Y016315D01*
X045004Y016411D01*
X045053Y016513D01*
X045090Y016620D01*
X045116Y016731D01*
X045128Y016840D01*
X044178Y016840D01*
X044178Y016960D01*
X045128Y016960D01*
X045116Y017070D01*
X045090Y017180D01*
X045053Y017288D01*
X045004Y017390D01*
X044943Y017486D01*
X044873Y017574D01*
X044792Y017655D01*
X044704Y017725D01*
X044608Y017786D01*
X044505Y017835D01*
X044398Y017872D01*
X044288Y017898D01*
X044178Y017910D01*
X044178Y016960D01*
X044058Y016960D01*
X044058Y017910D01*
X043949Y017898D01*
X043838Y017872D01*
X043731Y017835D01*
X043629Y017786D01*
X043473Y017678D02*
X038921Y017678D01*
X038921Y017559D02*
X043352Y017559D01*
X043265Y017441D02*
X038921Y017441D01*
X038921Y017322D02*
X043200Y017322D01*
X043154Y017204D02*
X038921Y017204D01*
X038921Y017085D02*
X043125Y017085D01*
X043109Y016967D02*
X038921Y016967D01*
X038921Y016848D02*
X044058Y016848D01*
X044058Y016840D02*
X043109Y016840D01*
X043121Y016731D01*
X043146Y016620D01*
X043184Y016513D01*
X043233Y016411D01*
X043293Y016315D01*
X043364Y016226D01*
X043444Y016146D01*
X043533Y016075D01*
X043629Y016015D01*
X043731Y015966D01*
X043838Y015928D01*
X043949Y015903D01*
X044058Y015891D01*
X044058Y016840D01*
X044058Y016730D02*
X044178Y016730D01*
X044178Y016848D02*
X047121Y016848D01*
X047121Y016730D02*
X045115Y016730D01*
X045087Y016611D02*
X047121Y016611D01*
X047121Y016493D02*
X045043Y016493D01*
X044980Y016374D02*
X047121Y016374D01*
X047121Y016256D02*
X044896Y016256D01*
X044781Y016137D02*
X047121Y016137D01*
X047121Y016019D02*
X045590Y016019D01*
X045580Y016022D02*
X045469Y016047D01*
X045359Y016060D01*
X045359Y015110D01*
X045239Y015110D01*
X045239Y014990D01*
X044290Y014990D01*
X044302Y014881D01*
X044327Y014770D01*
X044365Y014663D01*
X044414Y014561D01*
X044474Y014465D01*
X044545Y014376D01*
X044625Y014296D01*
X044714Y014225D01*
X044810Y014165D01*
X044912Y014115D01*
X045019Y014078D01*
X045130Y014053D01*
X045239Y014040D01*
X045239Y014990D01*
X045359Y014990D01*
X045359Y014040D01*
X045469Y014053D01*
X045580Y014078D01*
X045687Y014115D01*
X045789Y014165D01*
X045885Y014225D01*
X045974Y014296D01*
X046054Y014376D01*
X046124Y014465D01*
X046185Y014561D01*
X046234Y014663D01*
X046272Y014770D01*
X046297Y014881D01*
X046309Y014990D01*
X045359Y014990D01*
X045359Y015110D01*
X046309Y015110D01*
X046297Y015219D01*
X046272Y015330D01*
X046234Y015437D01*
X046185Y015539D01*
X046124Y015635D01*
X046054Y015724D01*
X045974Y015804D01*
X045885Y015875D01*
X045789Y015935D01*
X045687Y015985D01*
X045580Y016022D01*
X045359Y016019D02*
X045239Y016019D01*
X045239Y016060D02*
X045130Y016047D01*
X045019Y016022D01*
X044912Y015985D01*
X044810Y015935D01*
X044714Y015875D01*
X044625Y015804D01*
X044545Y015724D01*
X044474Y015635D01*
X044414Y015539D01*
X044365Y015437D01*
X044327Y015330D01*
X044302Y015219D01*
X044290Y015110D01*
X045239Y015110D01*
X045239Y016060D01*
X045239Y015900D02*
X045359Y015900D01*
X045359Y015782D02*
X045239Y015782D01*
X045239Y015663D02*
X045359Y015663D01*
X045359Y015545D02*
X045239Y015545D01*
X045239Y015426D02*
X045359Y015426D01*
X045359Y015308D02*
X045239Y015308D01*
X045239Y015189D02*
X045359Y015189D01*
X045359Y015071D02*
X047121Y015071D01*
X047121Y015189D02*
X046300Y015189D01*
X046277Y015308D02*
X047121Y015308D01*
X047121Y015426D02*
X046238Y015426D01*
X046182Y015545D02*
X047121Y015545D01*
X047121Y015663D02*
X046102Y015663D01*
X045996Y015782D02*
X047121Y015782D01*
X047121Y015900D02*
X045845Y015900D01*
X045009Y016019D02*
X044613Y016019D01*
X044754Y015900D02*
X044261Y015900D01*
X044178Y015900D02*
X044058Y015900D01*
X043976Y015900D02*
X043472Y015900D01*
X043498Y015889D02*
X043134Y016040D01*
X042740Y016040D01*
X042376Y015889D01*
X042098Y015611D01*
X041947Y015247D01*
X041947Y014853D01*
X042098Y014489D01*
X042376Y014211D01*
X042740Y014060D01*
X043134Y014060D01*
X043498Y014211D01*
X043777Y014489D01*
X043927Y014853D01*
X043927Y015247D01*
X043777Y015611D01*
X043498Y015889D01*
X043606Y015782D02*
X044603Y015782D01*
X044497Y015663D02*
X043724Y015663D01*
X043804Y015545D02*
X044417Y015545D01*
X044361Y015426D02*
X043853Y015426D01*
X043902Y015308D02*
X044322Y015308D01*
X044299Y015189D02*
X043927Y015189D01*
X043927Y015071D02*
X045239Y015071D01*
X045239Y014952D02*
X045359Y014952D01*
X045359Y014834D02*
X045239Y014834D01*
X045239Y014715D02*
X045359Y014715D01*
X045359Y014597D02*
X045239Y014597D01*
X045239Y014478D02*
X045359Y014478D01*
X045359Y014360D02*
X045239Y014360D01*
X045239Y014241D02*
X045359Y014241D01*
X045359Y014123D02*
X045239Y014123D01*
X044898Y014123D02*
X043285Y014123D01*
X043528Y014241D02*
X044694Y014241D01*
X044562Y014360D02*
X043647Y014360D01*
X043765Y014478D02*
X044466Y014478D01*
X044397Y014597D02*
X043821Y014597D01*
X043870Y014715D02*
X044347Y014715D01*
X044313Y014834D02*
X043919Y014834D01*
X043927Y014952D02*
X044294Y014952D01*
X044178Y016019D02*
X044058Y016019D01*
X044058Y016137D02*
X044178Y016137D01*
X044178Y016256D02*
X044058Y016256D01*
X044058Y016374D02*
X044178Y016374D01*
X044178Y016493D02*
X044058Y016493D01*
X044058Y016611D02*
X044178Y016611D01*
X044178Y016967D02*
X044058Y016967D01*
X044058Y017085D02*
X044178Y017085D01*
X044178Y017204D02*
X044058Y017204D01*
X044058Y017322D02*
X044178Y017322D01*
X044178Y017441D02*
X044058Y017441D01*
X044058Y017559D02*
X044178Y017559D01*
X044178Y017678D02*
X044058Y017678D01*
X044058Y017796D02*
X044178Y017796D01*
X044586Y017796D02*
X047121Y017796D01*
X047121Y017678D02*
X044764Y017678D01*
X044885Y017559D02*
X047121Y017559D01*
X047121Y017441D02*
X044972Y017441D01*
X045036Y017322D02*
X047121Y017322D01*
X047121Y017204D02*
X045082Y017204D01*
X045112Y017085D02*
X047121Y017085D01*
X047121Y016967D02*
X045127Y016967D01*
X043623Y016019D02*
X043186Y016019D01*
X043341Y016256D02*
X038921Y016256D01*
X038921Y016374D02*
X043256Y016374D01*
X043194Y016493D02*
X038921Y016493D01*
X038921Y016611D02*
X043150Y016611D01*
X043121Y016730D02*
X038921Y016730D01*
X038921Y016137D02*
X043456Y016137D01*
X042689Y016019D02*
X038921Y016019D01*
X038921Y015900D02*
X042402Y015900D01*
X042269Y015782D02*
X038921Y015782D01*
X038921Y015663D02*
X042150Y015663D01*
X042071Y015545D02*
X038921Y015545D01*
X038921Y015426D02*
X042021Y015426D01*
X041972Y015308D02*
X038921Y015308D01*
X038921Y015189D02*
X041947Y015189D01*
X041947Y015071D02*
X038921Y015071D01*
X038921Y014952D02*
X041947Y014952D01*
X041955Y014834D02*
X038921Y014834D01*
X038921Y014715D02*
X042004Y014715D01*
X042054Y014597D02*
X038921Y014597D01*
X038921Y014478D02*
X042109Y014478D01*
X042228Y014360D02*
X038921Y014360D01*
X038921Y014241D02*
X042346Y014241D01*
X042589Y014123D02*
X038921Y014123D01*
X038921Y014004D02*
X047121Y014004D01*
X047121Y013886D02*
X038921Y013886D01*
X038921Y013767D02*
X047121Y013767D01*
X047121Y013649D02*
X038921Y013649D01*
X038921Y013530D02*
X047121Y013530D01*
X047121Y013412D02*
X038921Y013412D01*
X038921Y013293D02*
X047121Y013293D01*
X047121Y013175D02*
X038921Y013175D01*
X038921Y013056D02*
X047121Y013056D01*
X047121Y012938D02*
X038921Y012938D01*
X038921Y012819D02*
X047121Y012819D01*
X047121Y012701D02*
X038921Y012701D01*
X038921Y012582D02*
X047121Y012582D01*
X047121Y012464D02*
X038913Y012464D01*
X038857Y012345D02*
X047121Y012345D01*
X047121Y012227D02*
X038688Y012227D01*
X045701Y014123D02*
X047121Y014123D01*
X047121Y014241D02*
X045905Y014241D01*
X046037Y014360D02*
X047121Y014360D01*
X047121Y014478D02*
X046133Y014478D01*
X046202Y014597D02*
X047121Y014597D01*
X047121Y014715D02*
X046252Y014715D01*
X046286Y014834D02*
X047121Y014834D01*
X047121Y014952D02*
X046305Y014952D01*
X047121Y012108D02*
X031671Y012108D01*
X031671Y011990D02*
X047121Y011990D01*
X047121Y011871D02*
X031671Y011871D01*
X031671Y011753D02*
X047121Y011753D01*
X047121Y011634D02*
X031671Y011634D01*
X031671Y011516D02*
X047121Y011516D01*
X047121Y011397D02*
X031671Y011397D01*
X031671Y011279D02*
X047121Y011279D01*
X047121Y011160D02*
X031671Y011160D01*
X031671Y011042D02*
X047121Y011042D01*
X047121Y010923D02*
X031671Y010923D01*
X031671Y010805D02*
X047121Y010805D01*
X047121Y010686D02*
X031671Y010686D01*
X031671Y010568D02*
X047121Y010568D01*
X047121Y010449D02*
X031671Y010449D01*
X031671Y010331D02*
X047121Y010331D01*
X047121Y010212D02*
X031671Y010212D01*
X031671Y010094D02*
X047121Y010094D01*
X047121Y009975D02*
X031671Y009975D01*
X031671Y009857D02*
X047121Y009857D01*
X047121Y009738D02*
X031671Y009738D01*
X031671Y009620D02*
X047121Y009620D01*
X047121Y009501D02*
X031671Y009501D01*
X031671Y009383D02*
X047121Y009383D01*
X047121Y009264D02*
X031671Y009264D01*
X031671Y009146D02*
X047121Y009146D01*
X047121Y009027D02*
X031671Y009027D01*
X031671Y008909D02*
X047121Y008909D01*
X047121Y008790D02*
X031671Y008790D01*
X031671Y008672D02*
X047121Y008672D01*
X047121Y008553D02*
X031671Y008553D01*
X031671Y008435D02*
X047121Y008435D01*
X047121Y008316D02*
X031671Y008316D01*
X031671Y008198D02*
X047121Y008198D01*
X047121Y008079D02*
X031671Y008079D01*
X031671Y007961D02*
X047121Y007961D01*
X047121Y007842D02*
X031671Y007842D01*
X031671Y007724D02*
X047121Y007724D01*
X047121Y007605D02*
X031671Y007605D01*
X031671Y007487D02*
X047121Y007487D01*
X047121Y007368D02*
X031671Y007368D01*
X031671Y007250D02*
X047121Y007250D01*
X047121Y007131D02*
X031629Y007131D01*
X031524Y007013D02*
X047121Y007013D01*
X047121Y006894D02*
X031406Y006894D01*
X031287Y006776D02*
X047121Y006776D01*
X047121Y006657D02*
X031169Y006657D01*
X031050Y006539D02*
X047121Y006539D01*
X047121Y006420D02*
X030932Y006420D01*
X030813Y006302D02*
X047121Y006302D01*
X045714Y006183D02*
X030695Y006183D01*
X030576Y006065D02*
X045595Y006065D01*
X045477Y005946D02*
X041067Y005946D01*
X041072Y005943D02*
X041008Y005976D01*
X040939Y005999D01*
X040871Y006009D01*
X040871Y005590D01*
X041290Y005590D01*
X041280Y005658D01*
X041257Y005727D01*
X041224Y005791D01*
X041182Y005850D01*
X041131Y005901D01*
X041072Y005943D01*
X041198Y005828D02*
X045358Y005828D01*
X045240Y005709D02*
X041263Y005709D01*
X041290Y005591D02*
X045121Y005591D01*
X045081Y005472D02*
X041284Y005472D01*
X041280Y005442D02*
X041290Y005510D01*
X040871Y005510D01*
X040871Y005590D01*
X040791Y005590D01*
X040791Y006009D01*
X040723Y005999D01*
X040654Y005976D01*
X040590Y005943D01*
X040531Y005901D01*
X040480Y005850D01*
X040438Y005791D01*
X040405Y005727D01*
X040382Y005658D01*
X040372Y005590D01*
X040791Y005590D01*
X040791Y005510D01*
X040871Y005510D01*
X040871Y005091D01*
X040939Y005101D01*
X041008Y005124D01*
X041072Y005157D01*
X041131Y005199D01*
X041182Y005250D01*
X041224Y005309D01*
X041257Y005373D01*
X041280Y005442D01*
X041247Y005354D02*
X045081Y005354D01*
X045081Y005235D02*
X041167Y005235D01*
X040985Y005117D02*
X045081Y005117D01*
X045081Y004998D02*
X026010Y004998D01*
X025891Y004880D02*
X045081Y004880D01*
X045081Y004761D02*
X025773Y004761D01*
X025654Y004643D02*
X045081Y004643D01*
X045081Y004524D02*
X025536Y004524D01*
X025417Y004406D02*
X045081Y004406D01*
X045081Y004287D02*
X010331Y004287D01*
X011508Y005354D02*
X013186Y005354D01*
X013141Y005472D02*
X011390Y005472D01*
X011271Y005591D02*
X013141Y005591D01*
X013171Y005709D02*
X011153Y005709D01*
X011034Y005828D02*
X013236Y005828D01*
X013387Y005946D02*
X010916Y005946D01*
X010797Y006065D02*
X014827Y006065D01*
X014945Y006183D02*
X010679Y006183D01*
X010560Y006302D02*
X015064Y006302D01*
X015182Y006420D02*
X010442Y006420D01*
X011627Y005235D02*
X013274Y005235D01*
X013888Y005235D02*
X014274Y005235D01*
X014186Y005354D02*
X013976Y005354D01*
X014021Y005472D02*
X014141Y005472D01*
X014141Y005591D02*
X014021Y005591D01*
X013991Y005709D02*
X014171Y005709D01*
X014236Y005828D02*
X013926Y005828D01*
X013775Y005946D02*
X014387Y005946D01*
X015009Y005709D02*
X015171Y005709D01*
X015141Y005591D02*
X015021Y005591D01*
X015021Y005472D02*
X015141Y005472D01*
X015186Y005354D02*
X014976Y005354D01*
X014888Y005235D02*
X015274Y005235D01*
X015236Y005828D02*
X015127Y005828D01*
X015246Y005946D02*
X015387Y005946D01*
X015364Y006065D02*
X015827Y006065D01*
X015945Y006183D02*
X015483Y006183D01*
X015601Y006302D02*
X016064Y006302D01*
X016182Y006420D02*
X015720Y006420D01*
X015838Y006539D02*
X016301Y006539D01*
X016419Y006657D02*
X015957Y006657D01*
X016075Y006776D02*
X016538Y006776D01*
X016656Y006894D02*
X016194Y006894D01*
X016312Y007013D02*
X016775Y007013D01*
X016893Y007131D02*
X016431Y007131D01*
X016549Y007250D02*
X017012Y007250D01*
X017130Y007368D02*
X016668Y007368D01*
X016786Y007487D02*
X017249Y007487D01*
X017367Y007605D02*
X016905Y007605D01*
X017023Y007724D02*
X017486Y007724D01*
X017604Y007842D02*
X017267Y007842D01*
X017385Y007961D02*
X017723Y007961D01*
X017841Y008079D02*
X017504Y008079D01*
X017521Y008198D02*
X017960Y008198D01*
X018078Y008316D02*
X017521Y008316D01*
X017521Y008435D02*
X018197Y008435D01*
X018315Y008553D02*
X017603Y008553D01*
X017721Y008672D02*
X018391Y008672D01*
X018391Y008790D02*
X017840Y008790D01*
X017958Y008909D02*
X018391Y008909D01*
X018391Y009027D02*
X018077Y009027D01*
X018195Y009146D02*
X018391Y009146D01*
X018391Y009264D02*
X018314Y009264D01*
X018616Y008316D02*
X018641Y008316D01*
X018641Y008198D02*
X018497Y008198D01*
X018379Y008079D02*
X018641Y008079D01*
X018641Y007961D02*
X018260Y007961D01*
X018142Y007842D02*
X018604Y007842D01*
X018486Y007724D02*
X018023Y007724D01*
X017905Y007605D02*
X018367Y007605D01*
X018249Y007487D02*
X017786Y007487D01*
X017668Y007368D02*
X018130Y007368D01*
X018012Y007250D02*
X017549Y007250D01*
X017431Y007131D02*
X017893Y007131D01*
X017775Y007013D02*
X017312Y007013D01*
X017194Y006894D02*
X017656Y006894D01*
X017538Y006776D02*
X017075Y006776D01*
X016957Y006657D02*
X017419Y006657D01*
X017301Y006539D02*
X016838Y006539D01*
X016720Y006420D02*
X017182Y006420D01*
X017064Y006302D02*
X016601Y006302D01*
X016483Y006183D02*
X016945Y006183D01*
X016827Y006065D02*
X016364Y006065D01*
X016387Y005946D02*
X016246Y005946D01*
X016236Y005828D02*
X016127Y005828D01*
X016171Y005709D02*
X016009Y005709D01*
X016021Y005591D02*
X016141Y005591D01*
X016141Y005472D02*
X016021Y005472D01*
X015976Y005354D02*
X016186Y005354D01*
X016274Y005235D02*
X015888Y005235D01*
X016888Y005235D02*
X017274Y005235D01*
X017186Y005354D02*
X016976Y005354D01*
X017021Y005472D02*
X017141Y005472D01*
X017141Y005591D02*
X017021Y005591D01*
X017009Y005709D02*
X017171Y005709D01*
X017127Y005828D02*
X017236Y005828D01*
X017246Y005946D02*
X017387Y005946D01*
X017364Y006065D02*
X017827Y006065D01*
X017945Y006183D02*
X017483Y006183D01*
X017601Y006302D02*
X018064Y006302D01*
X018182Y006420D02*
X017720Y006420D01*
X017838Y006539D02*
X018301Y006539D01*
X018419Y006657D02*
X017957Y006657D01*
X018075Y006776D02*
X018538Y006776D01*
X018656Y006894D02*
X018194Y006894D01*
X018312Y007013D02*
X018775Y007013D01*
X018891Y007131D02*
X018431Y007131D01*
X018549Y007250D02*
X018891Y007250D01*
X018891Y007368D02*
X018668Y007368D01*
X018786Y007487D02*
X018891Y007487D01*
X019075Y006776D02*
X019141Y006776D01*
X019141Y006657D02*
X018957Y006657D01*
X018838Y006539D02*
X019141Y006539D01*
X019141Y006420D02*
X018720Y006420D01*
X018601Y006302D02*
X019064Y006302D01*
X018945Y006183D02*
X018483Y006183D01*
X018364Y006065D02*
X018827Y006065D01*
X019127Y005828D02*
X019236Y005828D01*
X019246Y005946D02*
X019387Y005946D01*
X019391Y006065D02*
X019364Y006065D01*
X019171Y005709D02*
X019009Y005709D01*
X019021Y005591D02*
X019141Y005591D01*
X019141Y005472D02*
X019021Y005472D01*
X018976Y005354D02*
X019186Y005354D01*
X019274Y005235D02*
X018888Y005235D01*
X018274Y005235D02*
X017888Y005235D01*
X017976Y005354D02*
X018186Y005354D01*
X018141Y005472D02*
X018021Y005472D01*
X018021Y005591D02*
X018141Y005591D01*
X018171Y005709D02*
X018009Y005709D01*
X018127Y005828D02*
X018236Y005828D01*
X018246Y005946D02*
X018387Y005946D01*
X020684Y005117D02*
X021478Y005117D01*
X021684Y005117D02*
X022427Y005117D01*
X022404Y005124D02*
X022473Y005101D01*
X022541Y005091D01*
X022541Y005510D01*
X022621Y005510D01*
X022621Y005590D01*
X023040Y005590D01*
X023030Y005658D01*
X023007Y005727D01*
X022974Y005791D01*
X022932Y005850D01*
X022881Y005901D01*
X022822Y005943D01*
X022758Y005976D01*
X022689Y005999D01*
X022621Y006009D01*
X022621Y005590D01*
X022541Y005590D01*
X022541Y006009D01*
X022473Y005999D01*
X022404Y005976D01*
X022340Y005943D01*
X022281Y005901D01*
X022230Y005850D01*
X022188Y005791D01*
X022155Y005727D01*
X022132Y005658D01*
X022122Y005590D01*
X022541Y005590D01*
X022541Y005510D01*
X022122Y005510D01*
X022132Y005442D01*
X022155Y005373D01*
X022188Y005309D01*
X022230Y005250D01*
X022281Y005199D01*
X022340Y005157D01*
X022404Y005124D01*
X022541Y005117D02*
X022621Y005117D01*
X022621Y005091D02*
X022689Y005101D01*
X022758Y005124D01*
X022822Y005157D01*
X022881Y005199D01*
X022932Y005250D01*
X022974Y005309D01*
X023007Y005373D01*
X023030Y005442D01*
X023040Y005510D01*
X022621Y005510D01*
X022621Y005091D01*
X022735Y005117D02*
X025167Y005117D01*
X025285Y005235D02*
X022917Y005235D01*
X022997Y005354D02*
X025404Y005354D01*
X025522Y005472D02*
X023034Y005472D01*
X023040Y005591D02*
X025641Y005591D01*
X025671Y005709D02*
X023013Y005709D01*
X022948Y005828D02*
X025736Y005828D01*
X025887Y005946D02*
X022817Y005946D01*
X022621Y005946D02*
X022541Y005946D01*
X022541Y005828D02*
X022621Y005828D01*
X022621Y005709D02*
X022541Y005709D01*
X022541Y005591D02*
X022621Y005591D01*
X022621Y005472D02*
X022541Y005472D01*
X022541Y005354D02*
X022621Y005354D01*
X022621Y005235D02*
X022541Y005235D01*
X022245Y005235D02*
X021888Y005235D01*
X021976Y005354D02*
X022165Y005354D01*
X022128Y005472D02*
X022021Y005472D01*
X022021Y005591D02*
X022122Y005591D01*
X022149Y005709D02*
X021991Y005709D01*
X021926Y005828D02*
X022214Y005828D01*
X022345Y005946D02*
X021775Y005946D01*
X021153Y005709D02*
X020991Y005709D01*
X021021Y005591D02*
X021141Y005591D01*
X021141Y005472D02*
X021021Y005472D01*
X020976Y005354D02*
X021186Y005354D01*
X021274Y005235D02*
X020888Y005235D01*
X026184Y005117D02*
X026978Y005117D01*
X026993Y005110D02*
X027168Y005110D01*
X027330Y005177D01*
X027454Y005301D01*
X027521Y005462D01*
X027521Y005638D01*
X027454Y005799D01*
X027330Y005923D01*
X027168Y005990D01*
X026993Y005990D01*
X026832Y005923D01*
X026708Y005799D01*
X026641Y005638D01*
X026641Y005462D01*
X026708Y005301D01*
X026832Y005177D01*
X026993Y005110D01*
X027184Y005117D02*
X027978Y005117D01*
X028184Y005117D02*
X031728Y005117D01*
X031743Y005110D02*
X031918Y005110D01*
X032080Y005177D01*
X032204Y005301D01*
X032271Y005462D01*
X032271Y005638D01*
X032204Y005799D01*
X032080Y005923D01*
X031918Y005990D01*
X031743Y005990D01*
X031582Y005923D01*
X031458Y005799D01*
X031391Y005638D01*
X031391Y005462D01*
X031458Y005301D01*
X031582Y005177D01*
X031743Y005110D01*
X031934Y005117D02*
X032728Y005117D01*
X032743Y005110D02*
X032918Y005110D01*
X033080Y005177D01*
X033204Y005301D01*
X033271Y005462D01*
X033271Y005638D01*
X033204Y005799D01*
X033080Y005923D01*
X032918Y005990D01*
X032743Y005990D01*
X032582Y005923D01*
X032458Y005799D01*
X032391Y005638D01*
X032391Y005462D01*
X032458Y005301D01*
X032582Y005177D01*
X032743Y005110D01*
X032934Y005117D02*
X033728Y005117D01*
X033743Y005110D02*
X033918Y005110D01*
X034080Y005177D01*
X034204Y005301D01*
X034271Y005462D01*
X034271Y005638D01*
X034204Y005799D01*
X034080Y005923D01*
X033918Y005990D01*
X033743Y005990D01*
X033582Y005923D01*
X033458Y005799D01*
X033391Y005638D01*
X033391Y005462D01*
X033458Y005301D01*
X033582Y005177D01*
X033743Y005110D01*
X033934Y005117D02*
X034728Y005117D01*
X034743Y005110D02*
X034918Y005110D01*
X035080Y005177D01*
X035204Y005301D01*
X035271Y005462D01*
X035271Y005638D01*
X035204Y005799D01*
X035080Y005923D01*
X034918Y005990D01*
X034743Y005990D01*
X034582Y005923D01*
X034458Y005799D01*
X034391Y005638D01*
X034391Y005462D01*
X034458Y005301D01*
X034582Y005177D01*
X034743Y005110D01*
X034934Y005117D02*
X035728Y005117D01*
X035743Y005110D02*
X035918Y005110D01*
X036080Y005177D01*
X036204Y005301D01*
X036271Y005462D01*
X036271Y005638D01*
X036204Y005799D01*
X036080Y005923D01*
X035918Y005990D01*
X035743Y005990D01*
X035582Y005923D01*
X035458Y005799D01*
X035391Y005638D01*
X035391Y005462D01*
X035458Y005301D01*
X035582Y005177D01*
X035743Y005110D01*
X035934Y005117D02*
X036728Y005117D01*
X036743Y005110D02*
X036918Y005110D01*
X037080Y005177D01*
X037204Y005301D01*
X037271Y005462D01*
X037271Y005638D01*
X037204Y005799D01*
X037080Y005923D01*
X036918Y005990D01*
X036743Y005990D01*
X036582Y005923D01*
X036458Y005799D01*
X036391Y005638D01*
X036391Y005462D01*
X036458Y005301D01*
X036582Y005177D01*
X036743Y005110D01*
X036934Y005117D02*
X037728Y005117D01*
X037743Y005110D02*
X037918Y005110D01*
X038080Y005177D01*
X038204Y005301D01*
X038271Y005462D01*
X038271Y005638D01*
X038204Y005799D01*
X038080Y005923D01*
X037918Y005990D01*
X037743Y005990D01*
X037582Y005923D01*
X037458Y005799D01*
X037391Y005638D01*
X037391Y005462D01*
X037458Y005301D01*
X037582Y005177D01*
X037743Y005110D01*
X037934Y005117D02*
X038728Y005117D01*
X038743Y005110D02*
X038918Y005110D01*
X039080Y005177D01*
X039204Y005301D01*
X039271Y005462D01*
X039271Y005638D01*
X039204Y005799D01*
X039080Y005923D01*
X038918Y005990D01*
X038743Y005990D01*
X038582Y005923D01*
X038458Y005799D01*
X038391Y005638D01*
X038391Y005462D01*
X038458Y005301D01*
X038582Y005177D01*
X038743Y005110D01*
X038934Y005117D02*
X039728Y005117D01*
X039743Y005110D02*
X039918Y005110D01*
X040080Y005177D01*
X040204Y005301D01*
X040271Y005462D01*
X040271Y005638D01*
X040204Y005799D01*
X040080Y005923D01*
X039918Y005990D01*
X039743Y005990D01*
X039582Y005923D01*
X039458Y005799D01*
X039391Y005638D01*
X039391Y005462D01*
X039458Y005301D01*
X039582Y005177D01*
X039743Y005110D01*
X039934Y005117D02*
X040677Y005117D01*
X040654Y005124D02*
X040723Y005101D01*
X040791Y005091D01*
X040791Y005510D01*
X040372Y005510D01*
X040382Y005442D01*
X040405Y005373D01*
X040438Y005309D01*
X040480Y005250D01*
X040531Y005199D01*
X040590Y005157D01*
X040654Y005124D01*
X040791Y005117D02*
X040871Y005117D01*
X040871Y005235D02*
X040791Y005235D01*
X040791Y005354D02*
X040871Y005354D01*
X040871Y005472D02*
X040791Y005472D01*
X040791Y005591D02*
X040871Y005591D01*
X040871Y005709D02*
X040791Y005709D01*
X040791Y005828D02*
X040871Y005828D01*
X040871Y005946D02*
X040791Y005946D01*
X040595Y005946D02*
X040025Y005946D01*
X040176Y005828D02*
X040464Y005828D01*
X040399Y005709D02*
X040241Y005709D01*
X040271Y005591D02*
X040372Y005591D01*
X040378Y005472D02*
X040271Y005472D01*
X040226Y005354D02*
X040415Y005354D01*
X040495Y005235D02*
X040138Y005235D01*
X039524Y005235D02*
X039138Y005235D01*
X039226Y005354D02*
X039436Y005354D01*
X039391Y005472D02*
X039271Y005472D01*
X039271Y005591D02*
X039391Y005591D01*
X039421Y005709D02*
X039241Y005709D01*
X039176Y005828D02*
X039486Y005828D01*
X039637Y005946D02*
X039025Y005946D01*
X038637Y005946D02*
X038025Y005946D01*
X038176Y005828D02*
X038486Y005828D01*
X038421Y005709D02*
X038241Y005709D01*
X038271Y005591D02*
X038391Y005591D01*
X038391Y005472D02*
X038271Y005472D01*
X038226Y005354D02*
X038436Y005354D01*
X038524Y005235D02*
X038138Y005235D01*
X037524Y005235D02*
X037138Y005235D01*
X037226Y005354D02*
X037436Y005354D01*
X037391Y005472D02*
X037271Y005472D01*
X037271Y005591D02*
X037391Y005591D01*
X037421Y005709D02*
X037241Y005709D01*
X037176Y005828D02*
X037486Y005828D01*
X037637Y005946D02*
X037025Y005946D01*
X036637Y005946D02*
X036025Y005946D01*
X036176Y005828D02*
X036486Y005828D01*
X036421Y005709D02*
X036241Y005709D01*
X036271Y005591D02*
X036391Y005591D01*
X036391Y005472D02*
X036271Y005472D01*
X036226Y005354D02*
X036436Y005354D01*
X036524Y005235D02*
X036138Y005235D01*
X035524Y005235D02*
X035138Y005235D01*
X035226Y005354D02*
X035436Y005354D01*
X035391Y005472D02*
X035271Y005472D01*
X035271Y005591D02*
X035391Y005591D01*
X035421Y005709D02*
X035241Y005709D01*
X035176Y005828D02*
X035486Y005828D01*
X035637Y005946D02*
X035025Y005946D01*
X034637Y005946D02*
X034025Y005946D01*
X034176Y005828D02*
X034486Y005828D01*
X034421Y005709D02*
X034241Y005709D01*
X034271Y005591D02*
X034391Y005591D01*
X034391Y005472D02*
X034271Y005472D01*
X034226Y005354D02*
X034436Y005354D01*
X034524Y005235D02*
X034138Y005235D01*
X033524Y005235D02*
X033138Y005235D01*
X033226Y005354D02*
X033436Y005354D01*
X033391Y005472D02*
X033271Y005472D01*
X033271Y005591D02*
X033391Y005591D01*
X033421Y005709D02*
X033241Y005709D01*
X033176Y005828D02*
X033486Y005828D01*
X033637Y005946D02*
X033025Y005946D01*
X032637Y005946D02*
X032025Y005946D01*
X032176Y005828D02*
X032486Y005828D01*
X032421Y005709D02*
X032241Y005709D01*
X032271Y005591D02*
X032391Y005591D01*
X032391Y005472D02*
X032271Y005472D01*
X032226Y005354D02*
X032436Y005354D01*
X032524Y005235D02*
X032138Y005235D01*
X031524Y005235D02*
X029709Y005235D01*
X029865Y005354D02*
X031436Y005354D01*
X031391Y005472D02*
X029984Y005472D01*
X030102Y005591D02*
X031391Y005591D01*
X031421Y005709D02*
X030221Y005709D01*
X030339Y005828D02*
X031486Y005828D01*
X031637Y005946D02*
X030458Y005946D01*
X029496Y005946D02*
X028275Y005946D01*
X027887Y005946D02*
X027275Y005946D01*
X027426Y005828D02*
X027736Y005828D01*
X027671Y005709D02*
X027491Y005709D01*
X027521Y005591D02*
X027641Y005591D01*
X027641Y005472D02*
X027521Y005472D01*
X027476Y005354D02*
X027686Y005354D01*
X027774Y005235D02*
X027388Y005235D01*
X026774Y005235D02*
X026388Y005235D01*
X026476Y005354D02*
X026686Y005354D01*
X026641Y005472D02*
X026521Y005472D01*
X026521Y005591D02*
X026641Y005591D01*
X026671Y005709D02*
X026491Y005709D01*
X026426Y005828D02*
X026736Y005828D01*
X026887Y005946D02*
X026275Y005946D01*
X013381Y013886D02*
X012730Y013886D01*
X013021Y014241D02*
X013125Y014241D01*
X013125Y014360D02*
X013021Y014360D01*
X012983Y014478D02*
X013155Y014478D01*
X013228Y014597D02*
X012907Y014597D01*
X012729Y014715D02*
X013382Y014715D01*
X009205Y020285D02*
X008291Y020285D01*
X008291Y020403D02*
X009105Y020403D01*
X009056Y020522D02*
X008291Y020522D01*
X008291Y020640D02*
X009041Y020640D01*
X009041Y020759D02*
X008291Y020759D01*
X008291Y020877D02*
X009089Y020877D01*
X009165Y020996D02*
X008291Y020996D01*
X008291Y021114D02*
X009314Y021114D01*
X009788Y021114D02*
X011874Y021114D01*
X011725Y020996D02*
X009937Y020996D01*
X009065Y022655D02*
X008291Y022655D01*
X008291Y022773D02*
X009138Y022773D01*
X010331Y033320D02*
X010536Y033320D01*
X010583Y033438D02*
X010331Y033438D01*
X010331Y033557D02*
X010668Y033557D01*
X026112Y022062D02*
X027612Y022062D01*
X033995Y022892D02*
X034667Y022892D01*
X034499Y023010D02*
X034163Y023010D01*
X034236Y023129D02*
X034426Y023129D01*
X034391Y023247D02*
X034271Y023247D01*
X034271Y023366D02*
X034391Y023366D01*
X034431Y023484D02*
X034231Y023484D01*
X034151Y023603D02*
X034511Y023603D01*
X035151Y023603D02*
X035511Y023603D01*
X035431Y023484D02*
X035231Y023484D01*
X035271Y023366D02*
X035391Y023366D01*
X035391Y023247D02*
X035271Y023247D01*
X035236Y023129D02*
X035426Y023129D01*
X035499Y023010D02*
X035163Y023010D01*
X034995Y022892D02*
X035667Y022892D01*
X038800Y022062D02*
X042293Y022062D01*
X042369Y022062D02*
X043121Y022062D01*
X043003Y021944D02*
X042851Y021944D01*
X042811Y021825D02*
X042893Y021825D01*
X042844Y021707D02*
X042737Y021707D01*
X042821Y021588D02*
X042592Y021588D01*
X042633Y021470D02*
X042821Y021470D01*
X042861Y021351D02*
X042751Y021351D01*
X042807Y021233D02*
X042927Y021233D01*
X042841Y021114D02*
X043051Y021114D01*
X043043Y020996D02*
X042841Y020996D01*
X042811Y020877D02*
X042913Y020877D01*
X042842Y020759D02*
X042761Y020759D01*
X042809Y020640D02*
X042642Y020640D01*
X042525Y020522D02*
X043293Y020522D01*
X043369Y020522D02*
X047121Y020522D01*
X047121Y020640D02*
X043853Y020640D01*
X043820Y020759D02*
X047121Y020759D01*
X047121Y020877D02*
X043748Y020877D01*
X043619Y020996D02*
X047121Y020996D01*
X047121Y021114D02*
X043611Y021114D01*
X043735Y021233D02*
X047121Y021233D01*
X047121Y021351D02*
X043801Y021351D01*
X044019Y021470D02*
X047121Y021470D01*
X047121Y021588D02*
X044138Y021588D01*
X044256Y021707D02*
X047121Y021707D01*
X047121Y021825D02*
X044556Y021825D01*
X044631Y021944D02*
X047121Y021944D01*
X047121Y022062D02*
X044649Y022062D01*
X044621Y022181D02*
X047121Y022181D01*
X047121Y022299D02*
X044532Y022299D01*
X044130Y022299D02*
X043798Y022299D01*
X043845Y022418D02*
X047121Y022418D01*
X047121Y022536D02*
X043369Y022536D01*
X043293Y022536D02*
X042544Y022536D01*
X042657Y022655D02*
X042811Y022655D01*
X042814Y022674D02*
X042801Y022592D01*
X042801Y022588D01*
X043293Y022588D01*
X043293Y023080D01*
X043289Y023080D01*
X043207Y023067D01*
X043128Y023041D01*
X043053Y023003D01*
X042986Y022954D01*
X042927Y022895D01*
X042878Y022828D01*
X042840Y022753D01*
X042814Y022674D01*
X042850Y022773D02*
X042768Y022773D01*
X042817Y022892D02*
X042924Y022892D01*
X042841Y023010D02*
X043066Y023010D01*
X043293Y023010D02*
X043369Y023010D01*
X043369Y022892D02*
X043293Y022892D01*
X043293Y022773D02*
X043369Y022773D01*
X043369Y022655D02*
X043293Y022655D01*
X042817Y022418D02*
X042713Y022418D01*
X042799Y022299D02*
X042864Y022299D01*
X042846Y022181D02*
X042951Y022181D01*
X043541Y022062D02*
X044013Y022062D01*
X044041Y022181D02*
X043711Y022181D01*
X043659Y021944D02*
X043956Y021944D01*
X043837Y021825D02*
X043769Y021825D01*
X043009Y023247D02*
X045101Y023247D01*
X045052Y023366D02*
X043127Y023366D01*
X043246Y023484D02*
X045041Y023484D01*
X045041Y023603D02*
X043364Y023603D01*
X043483Y023721D02*
X045047Y023721D01*
X045096Y023840D02*
X043601Y023840D01*
X043720Y023958D02*
X045145Y023958D01*
X045240Y024077D02*
X043838Y024077D01*
X043957Y024195D02*
X045359Y024195D01*
X045610Y024314D02*
X044075Y024314D01*
X045384Y025380D02*
X045674Y025260D01*
X046397Y025499D02*
X047121Y025499D01*
X047121Y025617D02*
X046507Y025617D01*
X046556Y025736D02*
X047121Y025736D01*
X047121Y025854D02*
X046605Y025854D01*
X046621Y025973D02*
X047121Y025973D01*
X047121Y026091D02*
X046621Y026091D01*
X046620Y026210D02*
X047121Y026210D01*
X047121Y026328D02*
X046571Y026328D01*
X046522Y026447D02*
X047121Y026447D01*
X047121Y026565D02*
X046433Y026565D01*
X046315Y026684D02*
X047121Y026684D01*
X047121Y026802D02*
X046080Y026802D01*
X047121Y020403D02*
X043840Y020403D01*
X043791Y020285D02*
X047121Y020285D01*
X047121Y020166D02*
X043697Y020166D01*
X043500Y020048D02*
X047121Y020048D01*
X047121Y019929D02*
X043673Y019929D01*
X043775Y019811D02*
X045603Y019811D01*
X045356Y019692D02*
X043824Y019692D01*
X043841Y019574D02*
X045237Y019574D01*
X045144Y019455D02*
X043841Y019455D01*
X043795Y019337D02*
X045095Y019337D01*
X045046Y019218D02*
X043720Y019218D01*
X043576Y019100D02*
X045041Y019100D01*
X046059Y019811D02*
X047121Y019811D01*
X047121Y019692D02*
X046306Y019692D01*
X046425Y019574D02*
X047121Y019574D01*
X047121Y019455D02*
X046518Y019455D01*
X046567Y019337D02*
X047121Y019337D01*
X047121Y019218D02*
X046616Y019218D01*
X046621Y019100D02*
X047121Y019100D01*
X047121Y018981D02*
X046621Y018981D01*
X046608Y018863D02*
X047121Y018863D01*
X047121Y018744D02*
X046559Y018744D01*
X046510Y018626D02*
X047121Y018626D01*
X047121Y018507D02*
X046405Y018507D01*
X046287Y018389D02*
X047121Y018389D01*
X043162Y020048D02*
X042841Y020048D01*
X042835Y020166D02*
X042965Y020166D01*
X042871Y020285D02*
X042786Y020285D01*
X042821Y020403D02*
X042699Y020403D01*
X042833Y019929D02*
X042989Y019929D01*
X042887Y019811D02*
X042784Y019811D01*
X042838Y019692D02*
X042694Y019692D01*
X042821Y019574D02*
X042513Y019574D01*
X032878Y029054D02*
X032784Y029054D01*
X033439Y031187D02*
X033723Y031187D01*
X033630Y031305D02*
X033532Y031305D01*
X033581Y031424D02*
X033581Y031424D01*
X035311Y030120D02*
X035401Y030030D01*
X035518Y029982D01*
X035692Y030002D02*
X035970Y030002D01*
D20*
X036081Y030300D02*
X036081Y031550D01*
X035581Y032050D02*
X036081Y032550D01*
X035581Y032050D02*
X035581Y030300D01*
X034581Y029800D02*
X034581Y032050D01*
X034081Y032550D01*
X033081Y032550D02*
X032581Y032050D01*
X032581Y029300D01*
X033081Y029300D02*
X033081Y031550D01*
X034081Y031550D02*
X034081Y029550D01*
X034081Y031425D02*
X034081Y031550D01*
X029331Y031300D02*
X029331Y032050D01*
X028831Y032550D01*
X028831Y031550D02*
X028831Y031300D01*
X027331Y029800D01*
X013831Y029800D01*
X013331Y029300D01*
X013331Y026550D01*
X012831Y026050D01*
X012331Y026550D01*
X011331Y026550D01*
X009331Y028550D01*
X009081Y028550D01*
X013831Y028675D02*
X013831Y026925D01*
X014206Y026550D01*
X016081Y026550D01*
X014581Y027425D02*
X021456Y027425D01*
X022081Y026800D01*
X024081Y026800D01*
X024831Y026050D01*
X024706Y024925D02*
X024706Y023800D01*
X022956Y022050D01*
X021956Y022050D01*
X019831Y022050D01*
X019831Y021050D02*
X022331Y021050D01*
X025081Y023800D01*
X024849Y022068D02*
X025474Y022068D01*
X028456Y025050D01*
X031331Y025050D01*
X032581Y026300D01*
X032831Y026300D01*
X032688Y026300D01*
X032831Y024800D02*
X029081Y024800D01*
X028831Y024800D01*
X028581Y024800D01*
X025534Y021753D01*
X025284Y021753D01*
X026581Y021050D02*
X027081Y021550D01*
X026581Y021050D02*
X026581Y019550D01*
X021081Y014050D01*
X016081Y014050D01*
X014331Y015800D01*
X016831Y018050D02*
X021581Y018050D01*
X023581Y020050D01*
X023081Y020050D02*
X018081Y020050D01*
X016831Y021300D01*
X014206Y027050D02*
X014581Y027425D01*
X014206Y027550D02*
X016206Y029550D01*
X027581Y029550D01*
X029331Y031300D01*
X022331Y027425D02*
X021706Y028050D01*
X017831Y028050D01*
X013956Y028800D02*
X013831Y028675D01*
X025331Y017050D02*
X022706Y014425D01*
X022706Y013925D01*
X017331Y008550D01*
X017331Y008175D01*
X017081Y007925D01*
X016956Y007925D01*
X014581Y005550D01*
X015581Y005550D02*
X018581Y008550D01*
X018581Y009425D01*
X022956Y013800D01*
X022956Y014300D01*
X025206Y016550D01*
X026081Y016550D01*
X026331Y017050D02*
X025331Y017050D01*
X025081Y016050D02*
X023206Y014175D01*
X023206Y013675D01*
X018831Y009300D01*
X018831Y007800D01*
X016581Y005550D01*
X017581Y005550D02*
X019081Y007050D01*
X019081Y009175D01*
X023456Y013550D01*
X023456Y014050D01*
X024956Y015550D01*
X025581Y015550D01*
X025831Y016050D02*
X025081Y016050D01*
X025331Y015050D02*
X024831Y015050D01*
X023706Y013925D01*
X023706Y013425D01*
X019331Y009050D01*
X019331Y006300D01*
X018581Y005550D01*
X019581Y005550D02*
X019581Y008925D01*
X023956Y013300D01*
X023956Y013800D01*
X024706Y014550D01*
X025081Y014550D01*
X024831Y014050D02*
X024581Y014050D01*
X024206Y013675D01*
X024206Y013175D01*
X019831Y008800D01*
X019831Y006300D01*
X020581Y005550D01*
X021581Y005550D02*
X020081Y007050D01*
X020081Y008675D01*
X024581Y013175D01*
X024581Y013550D01*
X036706Y025300D02*
X036706Y027050D01*
X040581Y027050D01*
X040581Y027800D01*
X040581Y027050D02*
X042331Y027050D01*
X043331Y026550D02*
X042331Y025550D01*
X041206Y025550D01*
X044331Y022050D02*
X043831Y021550D01*
X043331Y021550D01*
D21*
X010256Y025550D02*
X009081Y025550D01*
M02*
